<svg id="Layer_4" data-name="Layer 4" xmlns="http://www.w3.org/2000/svg" viewBox="0 0 619.15 649.88"><defs><style>.cls-1{fill:#d48279;}.cls-2{fill:#f6e9e1;}.cls-3{fill:#dea49d;}.cls-4{fill:#b25a65;}.cls-5{fill:#e2bfb9;}.cls-6{fill:#e8d8d0;}.cls-7{fill:#367ab2;}.cls-8{fill:#e5e9d0;}.cls-9{fill:#2972b0;}.cls-10{fill:#4a86b6;}.cls-11{fill:#dee1cc;}.cls-12{fill:#4382b4;}.cls-13{fill:#6899b9;}.cls-14{fill:#86abbe;}.cls-15{fill:#ecdbd2;}.cls-16{fill:#1e237c;}.cls-17{fill:#23213d;}.cls-18{fill:#953535;}.cls-19{fill:#1c227c;}.cls-20{fill:#1b2383;}.cls-21{fill:#d2dac9;}.cls-22{opacity:0.5;}</style></defs><title>Untitled-1</title><path class="cls-1" d="M799.45,454.87q1.24,13.41,2.5,26.82-.56,25.59-1.12,51.17-1.92,13.39-3.83,26.81l-5.22,23.09q-5.4,16.34-10.81,32.68-9.75,20.1-19.49,40.21c-6.7,10-13.37,20.09-20.14,30.08a39.26,39.26,0,0,1-4,4.38c-5.45.46-8.44-2-9-7.47a32.67,32.67,0,0,0-1.06-5.35c-1.83-6.64-7.45-10.26-13.84-9-6.54,1.3-9.87,5.89-9.56,12.62,0,1.21-1.26,2.48-2,3.73l-3.81,13.12c-2.09,2.31-1,3.59,1.44,4.43V702l2.88,4.18c-2.74,2.81-4.5,7.73-10,4.59-.05-3.68-.09-7.35-.14-11,.1-.11.31-.26.28-.32a4.19,4.19,0,0,0-.39-.72q-4.32-8.55-8.65-17.1c-.37-.44-.74-.88-1.12-1.31-11.39-13-25.57-22-41.32-28.72-11.84-5.06-23.65-10.22-35.48-15.34l8.65-13a129.24,129.24,0,0,0,29.05-38.1c8.18-10,7.94-16.95-3.28-27.07-1.28-.66-2.55-1.33-3.82-2,0-2,0-4-.07-6q-.63-18.12-1.28-36.24l-.13-1.61c-.77-11.42-.86-22.94-2.56-34.22-1.07-7.12-4.56-13.87-7-20.79l.08.09-2.55-5,.08.13-1.39-2.49.06.1-3.46-5-12-15.88,4.5-4.54,11-11.06c1.56-1.86,3.25-3.62,4.64-5.59,5.6-7.94,3.44-15-5.87-17.92-3.77-1.16-8-.85-12-1.21.22-1.88.06-3.91.73-5.62a117,117,0,0,0,7-58.64c-5.24-38.56-24.47-68.67-58-89-26.66-16.15-55.7-21.1-86-15.09-33.72,6.69-60.62,24.52-79.08,53.94-22.13,35.26-25.06,72.41-10.05,111.11-10.21,6.35-12.7,11.84-7.64,19.74,2.69,4.2,7.2,7.23,10.88,10.79l6.65,5.72c-.47,3,3.81,7.67-2.35,8.74-5.28.93-6.49,4.6-7.58,8.75-6.62.75-8.09,5.9-9.51,11.1l-.16-.27c-.83,1.28-1.67,2.55-2.5,3.82l-3.84,9.51c-1.95,8.79-5.15,17.52-5.6,26.39-1.31,25.74-1.51,51.54-2.15,77.32l-3.32,4.63h0c-.46.76-.91,1.52-1.36,2.28l-.68,3.86.19,3.74.64,2.46.14,2.33q3.13,7.3,6.26,14.63l2.13,3.71,2.46,3.65h0l1.07,1.47c7.43,7.23,14.9,14.43,22.29,21.71,2.23,2.19,4.27,4.58,6.4,6.88l-13.08,6-8.52,3.73-33.86,17.33-7.71,4.55c-14.46,10.73-24.44,23.94-23.74,43l-1.54,1.52-13.38,1.13.15-.07c-.62-1.67-1.23-3.35-1.44-3.92l6.34-2.33-.06.07c2.94-2.89,6.37-5.71,1.37-9.71l-5.67-4.43c1.31-4.71,3.72-9,3.27-12.92a8.8,8.8,0,0,0-10.13-7.53c-6.22.8-7.28,6-7.12,11.43L265.51,695l-8.68.11.22,0-.18-3.72c-1.36,1.24-2.3,2.08-3.24,2.93l-2.79-.54-3.57-4.89.12.1-1.26-1.28q-7.75-10.47-15.52-20.95l-1.42-2.24L228,662.78l-1.48-2-1-1.27.08.06a6.18,6.18,0,0,0-.2-1.14Q215,636.5,204.52,614.62l-6.15-17.07q-3.69-13.42-7.39-26.84-3.34-19-6.7-38l-1.47-31.6q1.73-23.19,3.47-46.36l9.66-43.9a57.58,57.58,0,0,1,1.72-7.45c2.57-6.89,5.38-13.69,8.1-20.52l7.72-18.07,17-30.46,21.57-30.69,18.56-21.78,2.32-1.29h0l33.26-29.11a.68.68,0,0,0,.13-1l0,0c6.1-3.86,12.23-7.68,18.3-11.6a350.22,350.22,0,0,1,57.92-30l5.07-2.33.29.09c12.49-3.39,24.87-7.31,37.49-10.09q89-19.63,174.7,11.75c2.08.76,4.23,1.36,6.35,2l.18-.34,1.37,1a361,361,0,0,1,72.83,41.65l42.84,40.12q9,11,18.07,22l12.11,17.71c4.07,7.24,8.05,14.52,12.29,21.64.65,1.1,2.51,1.47,3.81,2.18-.25,1.31-1.1,2.9-.64,3.88,3.23,6.91,6.74,13.69,10.16,20.51l.21-.17,1.2,4.13,6.51,19Q793.46,429.28,799.45,454.87Z" transform="translate(-182.81 -189.02)"/><path class="cls-2" d="M757.86,698.41c-.39,4.35-1.21,8.71-1,13,.16,3.88,1.52,7.69,2.13,11.57s1,8.07,1.46,12.11q0,3.06,0,6.1c-3.59,2.7-7.26,5.3-10.71,8.16-1.19,1-1.82,2.64-2.7,4l-6,.59q-1.46-3.51-2.9-7l-2.4.47c4.9,5.24.56,8.31-1.63,12-.79,1.33-.68,3.18-1,4.8a22,22,0,0,0,4.54-.32,16.58,16.58,0,0,0,3.54-2l4.46,2.53,2.55,2.45c.39,1.08.79,2.15,1.18,3.22-.4,3-.81,5.91-1.21,8.86l0,0c-7.7-.22-13.2,3.34-17,9.84l-4.88-2.45-3.56,7.35c-4-2.25-7.75-4.83-11.9-6.64-3-1.33-6-.81-6.1,3.66-.1.58-.19,1.15-.29,1.73l-5,3.55a40.65,40.65,0,0,1-4.13,3.33c-3.87,2.39-6,1.52-5.56-3.35-.63-1.49-1.26-3-1.88-4.48-1.05,1.24-2.4,2.33-3.05,3.75a10.16,10.16,0,0,0-1,5.19c.09.72,2.22,1.17,3.42,1.74l-2.68,9.34-8.33,5.23-3.65,1.3-2.44.08c1.06-8.73-6.16,1.09-7.56-1.56l6.76,1.54-20.69,1c6.48-6,13.14-11.73,19.35-18,4-4,3.4-8.92.21-13.3-1.4-1.93-3.87-3.14-5.09-5.14-1.47-2.43-3.07-5.45-2.78-8,.15-1.4,4-2.94,6.37-3.37s4.72.7,7.11.92a40.38,40.38,0,0,0,5-.16c-.36-1.85-.36-3.87-1.15-5.51-1.74-3.59-3.89-7-5.88-10.45l-.84,0c1.56,4.59,3.13,9.18,4.65,13.63-16.18-.8-18,.33-18.15,11.52l-6.35,3.19c2,.44,3.68-.09,5.41-.34,5.26-.78,8.45,2.24,10.68,6.39,1.92,3.57,1.71,7.07-1.74,9.82q-11,8.73-21.94,17.42a9.24,9.24,0,0,0-.11,1.18l-21.92,10.4-9,.92,4.86-4.07c-3.16.25-5,.81-6.55.43-3-.71-3.19-2.21-.36-3.75l.27.3-.33-.24c2.37-9.92,10.88-13.68,18.41-18.92-3.15-.06-6.63-.13-8.83,1.51-4.31,3.24-7.82,7.52-11.82,11.18-2.36,2.15-4.8,4.46-7.63,5.77-2.61,1.22-6,.75-8.69,1.81-10.27,4-20.78,6.82-31.82,5.61-3.93-.44-7.65-2.84-11.47-4.34q5.83-3.4,11.65-6.83l2.89-4.2q1.5-1.56,3-3.14l2.21-2.06c8.48-7.62,8.31-7.54,3.27-17.61-.82-1.64.65-4.41,1-6.66l15,3.46c3.1-4.14,3.1-4.14.11-8.6-2.88-5-2.14-9.21,2.44-12.73,4.94.43,9.88,1,14.83,1.16,1.35.05,2.74-1.23,4.11-1.9-2.05-3.9-.66-7.62,3-8.3,5.13-1,10.61-.29,15.9.2.51.05,1.17,3.72.93,5.61-.31,2.38-1.47,4.66-2.26,7l1.94,1.82q4.46-2.81,8.92-5.6l6.45.4c7.92,5.62,8.24,7,3.12,15.29,1.11-.31,2-.29,2.47-.72,5.9-5.39,4.07-11.41-4.69-15.61l-6.5-3.25c2.62-13.35,11.87-4.42,17.72-5.79,2.74-3.72,6.12-9.42,9.19-9.26,8.35.43,16.7,2.92,24.74,5.55,2.51.82,4.55,5.15,7.36,2,1.27-1.42.7-5.57-.4-7.83-2.85-5.85-2.59-7.65,3.11-10.41,8.91-4.31,13.08-1.64,13.24,8,0,2.11,1.7,4.19,2.62,6.28a43.61,43.61,0,0,0,5.17-4.14,74.1,74.1,0,0,0,4.82-6.33l-4.52-1.21c.22-6.93,3.64-11,11.15-12.71l-11.16-8.75c-.06-8.36,1.83-10.06,10-9,1.8.23,3.82,1.25,5.32.71,2-.69,5.17-3,4.95-3.85-1.37-5,.66-9.45,4.54-10.62C749.61,694.92,754,697.45,757.86,698.41Zm-83.41,115a5.63,5.63,0,0,0-.38-.91c0-.06-.48,0-.5.08a6.13,6.13,0,0,0-.1,1Z" transform="translate(-182.81 -189.02)"/><path class="cls-2" d="M539.92,828.79c-8,3.68-15.83,8.27-25.21,7.47L511,833.61c2.4-1.84,7.94.2,7-5.71l4.74-1.37c3.84-2.22,7.68-4.42,11.41-6.79.07,0-1.16-2.14-1.39-2.56-8.13,2.6-15.82,2.57-23.55,2.25l-.37-1.45c.41-2.41.83-4.83,1.24-7.24l-1.76.77c-1.76-1.9-3.89-3.59-5.17-5.77-1.52-2.59-2.13-5.7-3.52-8.38-.48-.92-2.14-1.21-3.78-2.05,1.71,4.51,3,7.85,4.63,12.23-5.52-.83-9.62-1-10.67,4.35l-3.73-3.08-3.21,6.2-1.46-.56v-8.86c-2.42,1.57-3.77,2.38-5,3.31s-2.24,1.82-4.19,3.43L485.1,818c-1.12,2.33-3.48,4.86-3.14,7,1.29,7.9-3.66,8.47-9.15,8.87-5.85-.5-10.66-2.6-13.81-8a28,28,0,0,0-6.06-7.36c-2.87-2.38-6.36-4-9.57-6-2.52-.6-5-1.39-7.55-1.74-7.37-1-10-6.13-6.44-12.6,3-5.51,7.62-4.18,12.18-3,2.75.72,5.44,1.67,8.16,2.51l1-1.54c-1.6-2.21-3.13-4.46-4.79-6.61-5.05-6.57-5.05-7.71.25-14.06,8.56-2.41,9.4-1.88,14.95,5.56,1.41,1.9,4.38,2.65,6.64,3.93.44-1.93.89-3.85,1.33-5.77q.57-6,1.13-12.07l2.78-1.15c2.87,2.59,5.68,5.26,8.64,7.73a14.76,14.76,0,0,0,3.52,1.64c4.56,1,4.65.84,4.84-5.43.25-8.74,5.69-13.41,14.65-12.59,6.74.61,8.32,3.64,6.87,13.17,0,.2-.19.44-.13.59.66,1.45,1.36,2.89,2,4.33,1.28-1,2.89-1.69,3.75-2.93,1.24-1.78,1.54-4.31,3-5.86,3.37-3.69,7.89-5.67,12.53-3.15,4.28,2.34,1.77,6.42.94,9.83-.19.78-.87,1.56-.78,2.27.2,1.66.28,3.74,1.31,4.75.71.7,3.27.44,4.34-.32,2.43-1.73,4.37-4.13,6.66-6.09,3.65-3.12,7.75-2.79,11,.13s2.1,6.61-.28,9.82c-1.08,1.45-2.23,2.86-3.35,4.28q-.4,2.64-.82,5.26c2-.33,4.15-.21,5.83-1.07,6-3,12.12-1,15,5.27,1.85,4.06-.73,6.66-7.15,9.74-4.32,2.07-7.83,5.81-11.7,8.8L545.9,824Z" transform="translate(-182.81 -189.02)"/><path class="cls-1" d="M539.92,828.79l6-4.78,2.69,1.49c3.82,1.5,7.54,3.9,11.47,4.34,11,1.21,21.55-1.61,31.82-5.61,2.72-1.06,6.08-.59,8.69-1.81,2.83-1.31,5.27-3.62,7.63-5.77,4-3.66,7.51-7.94,11.82-11.18,2.2-1.64,5.68-1.57,8.83-1.51-7.53,5.24-16,9-18.41,18.92l.06-.06c-2.83,1.54-2.63,3,.36,3.75,1.58.38,3.39-.18,6.55-.43l-4.86,4.07,9-.92,0,2.16c-4.36,0-9.07,1-13-.28-6.68-2.24-13-2.06-19.6-.54a82,82,0,0,1-43-1.47C544.05,828.59,541.92,828.89,539.92,828.79Zm51.39-1.56v-.5h-1.83v.5Zm-6.84.79v.5h1.9V828Z" transform="translate(-182.81 -189.02)"/><path class="cls-3" d="M443.37,812.46c3.21,2,6.7,3.62,9.57,6a28,28,0,0,1,6.06,7.36c3.15,5.4,8,7.5,13.81,8,2.63.8,5.23,2.15,7.89,2.3,8.94.5,11.31-1.86,11.66-10.66.08-1.87.29-3.73.44-5.59l1.73-.51c1.9,3.16,3.19,7,5.85,9.3,2.87,2.44,7,3.36,10.62,5l3.71,2.65c-8.39-2.52-16.3-.52-24.58,1.46-11.49,2.74-22.66.86-32-7.39l-8.36-8.83L447.26,818l-3.71-2.39Z" transform="translate(-182.81 -189.02)"/><path class="cls-1" d="M676.23,816.73l8.33-5.23,17.49-14.11c.8-1.65,1.59-3.3,2.39-5,.1-.58.19-1.15.29-1.74h5.4L697.58,809.4a2.22,2.22,0,0,0-.58.13,2.32,2.32,0,0,0-.47.37c1,.44,2.25,1.48,3.07,1.24,6.13-1.84,12.17-4,18.27-5.9a28,28,0,0,1,4.7-.68c-8.06,2.9-16,6.16-24.2,8.59-7.27,2.16-14.8,3.41-22.22,5.06C676.18,817.72,676.2,817.23,676.23,816.73Z" transform="translate(-182.81 -189.02)"/><path class="cls-1" d="M757.86,698.41c-3.89-1-8.25-3.49-11.55-2.49-3.88,1.17-5.91,5.57-4.54,10.62.22.83-3,3.16-4.95,3.85-1.5.54-3.52-.48-5.32-.71-8.22-1.07-10.11.63-10,9L720,720.44l-1.24-1.14,0-1.24c-.22-12,1.41-13.09,18.29-12.8.38-3.18.74-6.31,1.11-9.44l.22-2c2.07,0,4.4.54,6.16-.21C750.14,691.22,755.08,692.8,757.86,698.41Z" transform="translate(-182.81 -189.02)"/><path class="cls-4" d="M738.37,693.83c-.07.66-.15,1.33-.22,2L731,693.07c-3.48-.32-4.79-2.32-4.81-5.69,0-2.6,0-5.38-.81-7.74-1.74-4.73-3.83-9.86-10.07-9.66-5.12.17-9,6.4-8.86,13.21,0,.35-.27.7-.59,1.46h-4c.69-1.25,2-2.52,2-3.73-.31-6.73,3-11.32,9.56-12.62,6.39-1.27,12,2.35,13.84,9a32.67,32.67,0,0,1,1.06,5.35c.55,5.5,3.54,7.93,9,7.47C737.67,691.35,738,692.59,738.37,693.83Z" transform="translate(-182.81 -189.02)"/><path class="cls-1" d="M449.8,821.5l8.36,8.83a36,36,0,0,0-4.77.67c-4.2,1.15-8.35,2.47-12.53,3.72l-3.38.41-1.21.81-1.26-.77v-1.36l7.23-6.62-4.72-4.35-.05.06,4.05,1.63c-.69-2.3-1.13-3.8-1.58-5.29l9.7,6.09,1.39.57L449.9,825l-.66-3Z" transform="translate(-182.81 -189.02)"/><path class="cls-5" d="M722.57,804.56a28,28,0,0,0-4.7.68c-6.1,1.92-12.14,4.06-18.27,5.9-.82.24-2-.8-3.07-1.24a2.32,2.32,0,0,1,.47-.37,2.22,2.22,0,0,1,.58-.13c6.8-2.27,13.65-4.38,20.35-6.91,1.45-.55,2.32-2.63,3.45-4l1.27-4.83.08,0,3.56-7.35,4.88,2.45L724,802.84Z" transform="translate(-182.81 -189.02)"/><path class="cls-1" d="M760.4,741.23q0-3,0-6.1c.74.52,1.88.89,2.17,1.59,3.83,9.29-.92,23.68-9.55,29.28.74-2.68,1.49-5.34,2.23-8C760.91,753.61,760.7,747.43,760.4,741.23Z" transform="translate(-182.81 -189.02)"/><path class="cls-1" d="M724,802.84l7.22-14.06c3.8-6.5,9.3-10.06,17-9.84-2,1.45-3.83,3.74-6,4.18-5.29,1.06-7.48,4.72-9.9,8.87C730,795.89,726.75,799.24,724,802.84Z" transform="translate(-182.81 -189.02)"/><path class="cls-3" d="M643.43,818.89l-7.63,7.52-14.26,5,0-2.16Z" transform="translate(-182.81 -189.02)"/><path class="cls-3" d="M755.26,758c-.74,2.67-1.49,5.33-2.23,8l-4.86.9-2.55-2.45c-.36-1.51-.71-3-1-4l4.73-2.35Z" transform="translate(-182.81 -189.02)"/><path class="cls-3" d="M670.13,821.25c-5.86.15-11.72.44-17.57.37-1.83,0-3.65-1-5.47-1.6l1.56-.92,20.68-1,.4,0,.41,0,2.44-.08c.06.38.12.77.17,1.16Z" transform="translate(-182.81 -189.02)"/><path class="cls-1" d="M748.14,779c.4-3,.81-5.9,1.21-8.86C753.8,773.74,751.07,776.38,748.14,779Z" transform="translate(-182.81 -189.02)"/><path class="cls-6" d="M672.75,819.19c0-.39-.11-.78-.17-1.16l3.65-1.3c0,.5-.05,1-.08,1.48Z" transform="translate(-182.81 -189.02)"/><path class="cls-4" d="M437.48,835.13l3.38-.41Z" transform="translate(-182.81 -189.02)"/><path class="cls-7" d="M382.64,206.3l5.34.36-.29-.09-5.06-.27Z" transform="translate(-182.81 -189.02)"/><path class="cls-7" d="M604.39,203.87l-2.79-1.29.59-.8,2.22,2.07Z" transform="translate(-182.81 -189.02)"/><path class="cls-2" d="M437.51,822.84l4.72,4.35L435,833.81l-1.84-1-1.53,1-14.73-.36-3.76-.78-15.74-6.38-5.85-4.78-9.42,3.86,2.94,3.69c-7.63.43-15.17.33-22.08-3.63-2-2.23-4.32-4.27-6-6.72-4.41-6.35-9.35-11.65-17.91-11.39-6.47-3.64-1.25-8.93-2-13.37L332.33,791c-5.49,10-2,18.84,4,27.2-4.17,0-7.39.31-10.52-.1-2.77-.35-5.89-.87-8-2.45-2.67-2-4.47-5.1-6.68-7.7-2.63-3.09-5.31-6.13-8-9.2l-12-11.06c-4.1.68-5.23,3-3.82,7a19.73,19.73,0,0,1,1,6.75,69.2,69.2,0,0,1-1,8.06c-3.61,1.59-3.61,1.59-3.61-.18-.24-1-.2-2.14-.76-2.85-3.69-4.74-7.38-9.5-11.38-14-.86-1-3-.77-4.57-1.11-3.32.78-7.42,4.43-8.69-2.36l-4.07-10.23c2.06-8.36,6.87-12.69,17.46-9.38-1.83-2.9-2.8-3.92-3.16-5.12-1-3.39-3-7.15-2.23-10.2.45-1.88,5.09-3.54,8-3.8s6.18,1,9,2.15c3.49,1.45,6.31,1.77,6-3-.4-5.92,4.71-6.79,8-8.62,1.49-.84,6,1.26,7.35,3.24,1.69,2.43,1.4,6.17,2.27,9.26a55.83,55.83,0,0,0,2.63,6.32c1.64-.86,3.51-1.46,4.89-2.63,4.63-3.91,8.37-3.49,11.42,1.78a56.48,56.48,0,0,1,2.86,6.83c1.18-2,.68-3.8.75-5.54.08-2,.57-5.72,1.06-5.75a24.09,24.09,0,0,1,8.77,1.06c1.13.37,1.82,2.58,2.38,4.07,1.67,4.44,3.89,4.76,7.79,2.09,6.6-4.52,9.14-3.15,10.37,4.86l-6.46.53c5,2.36,10,4.78,15,7.13,1.45.68,3,1.18,4.47,1.77l1.17-.46.45-1.19,16.54-2.5c4,5,5.88,5,9.68,0,6.94-2.58,9.28-1.64,14.84,6-.35,2-.53,4-1.07,5.89-1.63,5.8-.83,7,4.74,5.13,5.2-1.73,9.25-.82,12.9,3-8.64,7.58-12.63,15.06,1.94,21.81a22.44,22.44,0,0,0,2.13.76l0-.05c.82,1.22,1.63,2.45,2.44,3.67l0,0,1.17,1.18.06.06c.45,1.49.89,3,1.58,5.29l-4.05-1.63c-.42-.42-.84-.83-1.25-1.25l-5-4.21L430,819.61l6.28,2ZM339,789l17-1.08L340.73,782l-2.79,6-.88,1.75Z" transform="translate(-182.81 -189.02)"/><path class="cls-4" d="M415.62,777.71c-5.56-7.63-7.9-8.57-14.84-6l-6.08,1.06c0-3.79.18-6.73-.05-9.64-.19-2.43-1.11-4.13-3.46-1.26-3.74-1.18-7.48-3.24-11.21-3.21-2.34,0-6.09,2.79-6.63,5-.8,3.22.69,7,1.21,10.54l-.45,1.19-1.17.46c-1.49-.59-3-1.09-4.47-1.77-5-2.35-10.05-4.77-15-7.13l6.46-.53c-1.23-8-3.77-9.38-10.37-4.86-3.9,2.67-6.12,2.35-7.79-2.09-.56-1.49-1.25-3.7-2.38-4.07a24.09,24.09,0,0,0-8.77-1.06c-.49,0-1,3.73-1.06,5.75-.07,1.74.43,3.51-.75,5.54a56.48,56.48,0,0,0-2.86-6.83c-3.05-5.27-6.79-5.69-11.42-1.78-1.38,1.17-3.25,1.77-4.89,2.63a55.83,55.83,0,0,1-2.63-6.32c-.87-3.09-.58-6.83-2.27-9.26-1.38-2-5.86-4.08-7.35-3.24-3.25,1.83-8.36,2.7-8,8.62.32,4.74-2.5,4.42-6,3-2.85-1.18-6.09-2.42-9-2.15s-7.53,1.92-8,3.8c-.74,3.05,1.21,6.81,2.23,10.2.36,1.2,1.33,2.22,3.16,5.12-10.59-3.31-15.4,1-17.46,9.38a1.46,1.46,0,0,0-.69,0c-.44-.75-.89-1.5-1.33-2.26l3.69-9.13,5.64-3.82,2,.53-1.06-1.57.84-9.62c4.16-1.7,8.19-4.25,12.51-4.88,5-.73,6-3.15,5.56-7.31-.15-1.45-.43-2.88-.65-4.32l1.58-.28c.61,4.71,1.21,9.42,1.71,13.37l11.63-11.78c-.07-.26-.57-1.94-1.07-3.63-2.83-3-5.22-6.85-8.68-8.55-1.77-.87-5.46,2.16-8.28,3.43-.5-.42-1.51-1-1.43-1.25,4.21-11.7,4-12.23-8.06-13.82-3.95-.53-6.7-2.12-6.12-6.46a12.2,12.2,0,0,0-5.31-12.34l8.69-.11c-.18,3.94,0,7.94-.62,11.8s.88,5,4.5,5c10.41-.09,12.28,1.83,12.14,11.95,5-1,12.29,1.27,11.94-7.91l13.38-1.13c-.91,1.09-1.86,2.14-2.72,3.26-6.26,8.1-5.88,12.35.63,20.36,5.1,6.27,12.23,7.54,19.31,9,26.19,5.61,52.76,3.12,79.19,3.43l2.51.16,36.57,1,2.53,0,7-.12,10.05,0,9.52.13,7.49-.09,2.19-.19c18-.5,36-1.25,54-1.44,14.56-.16,29.12.34,43.68.54l.56,0,.55-.14,8.66.15c18.23-.48,36.54-.12,54.68-1.74a182.35,182.35,0,0,0,39.6-7.93c13.14-4.25,19.78-14.12,9.47-28.89,0-.49,0-1,.08-1.48,5.48,3.14,7.24-1.78,10-4.59L699.55,702l8.51,2.68-8.65,9,13.47,7.46c0,.57,0,1.14-.08,1.7-7.21,4.48-7,7.26-.43,12.86,2.27,1.93,2.81,6,3.76,9.27.36,1.21-.36,2.73-.59,4.11l1.63.56c1-2.24,3.13-4.77,2.69-6.69-1.79-7.77,1.56-12.8,8.36-17.33L719,721.39a2.05,2.05,0,0,0,0-.78,6.78,6.78,0,0,1,1-.17l1.44-1.77,11.16,8.75c-7.51,1.73-10.93,5.78-11.15,12.71l4.52,1.21a74.1,74.1,0,0,1-4.82,6.33,43.61,43.61,0,0,1-5.17,4.14c-.92-2.09-2.59-4.17-2.62-6.28-.16-9.68-4.33-12.35-13.24-8-5.7,2.76-6,4.56-3.11,10.41,1.1,2.26,1.67,6.41.4,7.83-2.81,3.13-4.85-1.2-7.36-2-8-2.63-16.39-5.12-24.74-5.55-3.07-.16-6.45,5.54-9.19,9.26-5.85,1.37-15.1-7.56-17.72,5.79-.29,1.29-.57,2.59-.85,3.89q-4.47,2.79-8.92,5.6l-1.94-1.82c.79-2.32,1.95-4.6,2.26-7,.24-1.89-.42-5.56-.93-5.61-5.29-.49-10.77-1.16-15.9-.2-3.68.68-5.07,4.4-3,8.3-1.37.67-2.76,2-4.11,1.9-5-.15-9.89-.73-14.83-1.16l-3.09-.37c-4-6.79-10.93-6.4-18.68,1-10.54-7.47-14.89-7-16.35,2.1,5.72,1.58,8.79,5.31,8.36,11.5l-7.06,7.44a9.84,9.84,0,0,0-.82-.76c1.12-1.42,2.27-2.83,3.35-4.28,2.38-3.21,3.59-6.87.28-9.82s-7.38-3.25-11-.13c-2.29,2-4.23,4.36-6.66,6.09-1.07.76-3.63,1-4.34.32-1-1-1.11-3.09-1.31-4.75-.09-.71.59-1.49.78-2.27.83-3.41,3.34-7.49-.94-9.83-4.64-2.52-9.16-.54-12.53,3.15-1.42,1.55-1.72,4.08-3,5.86-.86,1.24-2.47,2-3.75,2.93-.68-1.44-1.38-2.88-2-4.33-.06-.15.1-.39.13-.59,1.45-9.53-.13-12.56-6.87-13.17-9-.82-14.4,3.85-14.65,12.59-.19,6.27-.28,6.38-4.84,5.43-1.78-3.64-2.77-8.14-5.54-10.72-4.18-3.9-10.59-2.55-13.59,1.62s-2.12,8.18,3.06,12.95c-.44,1.92-.89,3.84-1.33,5.77-2.26-1.28-5.23-2-6.64-3.93-5.55-7.44-6.39-8-14.95-5.56l-1.31-1.15,5.79-3c-4.8-9.18-7.89-8.83-19.14,2-.35-.49-.7-1-1-1.43-1.69-2.42-3.15-6.61-5.1-6.85-3.16-.39-7.07,1.25-9.74,3.25-.92.69.91,5,1.44,7.71a11.16,11.16,0,0,1,.07,1.74Z" transform="translate(-182.81 -189.02)"/><path class="cls-2" d="M294.71,734.06c.5,1.69,1,3.37,1.07,3.63l-11.63,11.78c-.5-4-1.1-8.66-1.71-13.37l-1.58.28c.22,1.44.5,2.87.65,4.32.43,4.16-.57,6.58-5.56,7.31-4.32.63-8.35,3.18-12.51,4.88L258,746.5c-.25,7.73-5,3.13-7.56,4.14l1.81,6.26-8.59-2.18c-3.42-12.06-4.74-24,1.95-35.52,2.44-4.21,3.51-8.43-2.82-10.44q.07-6.59.16-13.16l7.94-1.89,2.79.54,3.42.79-.22,0a12.2,12.2,0,0,1,5.31,12.34c-.58,4.34,2.17,5.93,6.12,6.46,12,1.59,12.27,2.12,8.06,13.82-.08.22.93.83,1.43,1.25l5,1.34,0,0c0,.41,0,.83,0,1.25l-.25.37.21-.41c3,1.87,7.29.56,9.71,3.95C292.46,735.46,293.91,734.53,294.71,734.06Z" transform="translate(-182.81 -189.02)"/><path class="cls-5" d="M287.43,809.44a69.2,69.2,0,0,0,1-8.06,19.73,19.73,0,0,0-1-6.75c-1.41-3.94-.28-6.3,3.82-7l12.18,15.48,1.11-.76-1.31-3.66c2.65,3.07,5.33,6.11,8,9.2,2.21,2.6,4,5.73,6.68,7.7,2.13,1.58,5.25,2.1,8,2.45,3.13.41,6.35.1,10.52.1-6-8.36-9.51-17.18-4-27.2l4.76,2.94c.72,4.44-4.5,9.73,2,13.36L356,822.81c-13.95,2.2-27.72,3.16-40.3-5.26-1.4-.94-3.2-1.27-4.81-1.88l-5.14-.35c-1.64-7.35-6-10-10.88-7-1.86,1.17-4.64.86-7,1.22Z" transform="translate(-182.81 -189.02)"/><path class="cls-1" d="M242.74,708.76c6.33,2,5.26,6.23,2.82,10.44-6.69,11.55-5.37,23.46-1.95,35.52l2.52,10.89,0,0c-8.76-14.19-10.22-29-4-44.57C243.78,717.05,246.7,713,242.74,708.76Z" transform="translate(-182.81 -189.02)"/><path class="cls-1" d="M310.85,815.67c1.61.61,3.41.94,4.81,1.88C328.24,826,342,825,356,822.81l1.21,2.3-5,1.19-1.2.34-2.46.17-6.06,0-10.91-.48-2.43,0v.14l-1.31-1.2C321.66,822.93,314.52,822.37,310.85,815.67Z" transform="translate(-182.81 -189.02)"/><path class="cls-3" d="M287.83,809.59c2.36-.36,5.14-.05,7-1.22,4.84-3,9.24-.4,10.88,7-5.38-.89-10.78-1.67-16.11-2.79C288.84,812.37,288.41,810.61,287.83,809.59Z" transform="translate(-182.81 -189.02)"/><path class="cls-3" d="M267.11,791.34c1.56.34,3.71.15,4.57,1.11,4,4.46,7.69,9.22,11.38,14,.56.71.52,1.89.76,2.85C275.82,805.55,270,799.81,267.11,791.34Z" transform="translate(-182.81 -189.02)"/><path class="cls-3" d="M256,767.37l-3.69,9.13q-3-4.86-6.1-9.73l1.4-.07,6.05-5.74Z" transform="translate(-182.81 -189.02)"/><path class="cls-4" d="M250.84,693.71l-7.94,1.89c1.87-2,7.21-1.75,4.37-6.78Z" transform="translate(-182.81 -189.02)"/><path class="cls-3" d="M253.66,778.76a1.46,1.46,0,0,1,.69,0L258.42,789C254.85,786.5,252.61,783.4,253.66,778.76Z" transform="translate(-182.81 -189.02)"/><path class="cls-8" d="M329.1,826.32l2.43,0Z" transform="translate(-182.81 -189.02)"/><path class="cls-8" d="M327.8,825.26l1.31,1.2Z" transform="translate(-182.81 -189.02)"/><path class="cls-1" d="M247.63,766.7l-1.4.07a3.6,3.6,0,0,1-.07-1.18l0,0Z" transform="translate(-182.81 -189.02)"/><path class="cls-4" d="M246.13,687.64l1.26,1.28Z" transform="translate(-182.81 -189.02)"/><path class="cls-9" d="M608.07,211.07l-1.37-1Z" transform="translate(-182.81 -189.02)"/><path class="cls-10" d="M718.94,283.06l-.38-.22.38.22Z" transform="translate(-182.81 -189.02)"/><path class="cls-4" d="M357.17,825.11l-1.21-2.3-16.9-15.55c8.56-.25,13.5,5,17.91,11.4,1.7,2.45,4,4.49,6,6.72-.36.41-.72.83-1.09,1.24q-.48-.25-1-.48Z" transform="translate(-182.81 -189.02)"/><path class="cls-5" d="M385.07,829l-2.94-3.69,9.42-3.86,5.85,4.78L394.79,828l-6,2.11-2.63,0L385,828.94Z" transform="translate(-182.81 -189.02)"/><path class="cls-1" d="M394.79,828l2.61-1.73,15.74,6.38c0,1.18,0,2.37,0,3.55Z" transform="translate(-182.81 -189.02)"/><path class="cls-3" d="M386.15,830.06l2.63,0c-9.44,2.56-18.52,2.34-26.88-3.46.37-.41.73-.83,1.09-1.24,6.91,4,14.45,4.06,22.08,3.63l0-.07Z" transform="translate(-182.81 -189.02)"/><path class="cls-1" d="M416.9,833.4l14.73.35,1.16,1.48-10.08.57Z" transform="translate(-182.81 -189.02)"/><path class="cls-4" d="M416.9,833.4l5.81,2.4-9.58.37c0-1.18,0-2.37,0-3.55Z" transform="translate(-182.81 -189.02)"/><path class="cls-3" d="M357.17,825.11l3.74,1-8.75.16Z" transform="translate(-182.81 -189.02)"/><path class="cls-4" d="M432.79,835.23l-1.16-1.48,1.53-1h0l1.84,1c0,.45,0,.9,0,1.36Z" transform="translate(-182.81 -189.02)"/><path class="cls-11" d="M348.5,826.81l2.46-.17-1.15,1.68Z" transform="translate(-182.81 -189.02)"/><path class="cls-12" d="M723.82,280.62l-.22.39.22-.38Z" transform="translate(-182.81 -189.02)"/><path class="cls-13" d="M781,384.72l-1.2-4.13Z" transform="translate(-182.81 -189.02)"/><polygon class="cls-14" points="608.87 212.12 608.61 212.56 608.42 212.08 608.87 212.12"/><path class="cls-5" d="M382.87,385.52c-15-38.7-12.08-75.85,10.05-111.11C411.38,245,438.28,227.16,472,220.47c30.33-6,59.37-1.06,86,15.09,33.56,20.34,52.79,50.45,58,89a117,117,0,0,1-7,58.64c-.67,1.71-.51,3.74-.74,5.62-4,.45-7.93.81-11.88,1.37-8.89,1.24-17.76,2.58-26.64,3.88-3.78-5.4-7.87-10.25-15.52-8.89l-3.12-4.63q-.85-6.74-1.73-13.47a1.68,1.68,0,0,0,.17-.93l1-5.07a2.28,2.28,0,0,0,.23-1.06c1.44-4.63,3.71-9.2,4.12-13.93.79-9.18.13-18.49.8-27.7,1.51-20.77-6.87-35.39-25.37-45.07-4.51-2.36-11.31-3.48-11.41-11.7-.14-11.34-7.37-17.82-17-21l-2.17-6.54v.11l-5-4.63c-5.36,1.12-5.75,5.34-6,9.64-1.62,1.37-3,3.2-4.9,4-10.34,4.65-15.55,18-13.39,25-7.68,5.25-15.28,10.08-22.48,15.47s-12.18,12.44-12.64,21.38a238.41,238.41,0,0,0,.38,35.56c.81,8.19,4.22,16.12,6.47,24.16-.37,4.68-.8,9.37-1.09,14.06-.12,2,.06,4.07.11,6.12l7.24-.65c.84-5.29,1.88-10.56,2.43-15.89.29-2.7-.3-5.49-.49-8.24h1.05l4.11,10.72c.33.49.66,1,1,1.46l1.33,2.31,2.38,3.72,1.23,1.21,2.7,2.17q-.12,5.91-.23,11.8l-1,.33c-10.17-1.43-20.52-2.1-30.47-4.45C416.12,385.62,399.81,382.25,382.87,385.52Z" transform="translate(-182.81 -189.02)"/><path class="cls-15" d="M382.87,385.52c16.94-3.27,33.25.1,49.69,4,9.95,2.35,20.3,3,30.47,4.45a1.59,1.59,0,0,0,.19,1.09q-2.66,4.34-5.33,8.66a9.17,9.17,0,0,1-2.41-.08c-5.15-1.59-9.58-7.11-15.83-2.76-.34.24-1.38-.73-2.15-.9-3.91-.85-7.83-1.71-11.77-2.41-3.12-.55-6.28-1.31-9.4-1.23-4.94.14-9.86.9-14.79,1.4l.21,2.19H410c2.46,5.43,18.31,10.78,21.83,7.13,2.48,6.42,8.66,3.88,13.14,5.44l21.56,6.79,5.8,5.23,1.8-.92c-.38-6.08-.75-12.16-1.08-17.5h6.29l2.07,2.28-3.76,3.87-.71-2.58-1.2,1,1.91,1.63c-1.31,5.21-2.62,10.43-4.25,16.89l7.36.89c-.28,3.27.58,7.37-1.05,9.82-4.54,6.82-3.4,13.75-1.91,20.76.4,1.89,2.54,3.42,3.89,5.12,2.08,3.63,3.93,7.43,6.32,10.85,2.94,4.2,3.44,8.07,1.38,13-2.15,5.11-4.48,10.82-4.2,16.13.63,12.08,4.1,23.49,13.62,32.09,8.91,8,10.8,18.05,7.88,29.31-.55,2.15-1.6,4.27-1.68,6.43-.22,6.59-.08,13.2-.08,19.8l2.05-.09v-9.65l3,4.36c.8-3.06,1.55-5.91,2.29-8.77,2.42,1.89,4.65,5,7.3,5.41,5.83.92,11.36,1.21,11.43,8l9.13-1.47c2,2,3.79,4.21,5.92,6a52.85,52.85,0,0,0,5.7,3.81l10.25,6L553,611.8l6.67,2.8c-1.73,2.44-3.88,4.68-5.12,7.35-2.76,5.93-6.42,9.54-13.45,7.14-12-5.06-22.47-2-31.72,6.33-8.09-8.91-11.28-9.32-20.13-1.9-3.48,2.91-5.7,1.43-8.23-.84a22.34,22.34,0,0,0-3.41-2.1c-10-4-20-3.5-29.94.4L426.57,607.1l-2.44-3.74.11.11q-1.35-2.31-2.69-4.62l4.61-7.21c4,7.87,16.35,4.29,20,15.29l5.9-5.84c5.79-6.74,10.92-14.23,17.55-20,7-6.06,7.91-6.3,4.25-14.08l-2.3-4.91c-.95-2.89-1.89-5.78-2.65-8.07-2.79-2.94-5.31-5.69-7.95-8.32a15.73,15.73,0,0,0-2.83-1.86l-1.23-1.19c-2.26-4.84-4.4-9.74-6.86-14.48-.81-1.55-2.5-2.62-3.69-4C444,521.43,442,518,439.12,516c-3.34-2.37-2-8.81-7.91-8.53l-6-9.85,4-4.81c5.87-5,11.71-10.09,17.65-15,1.94-1.61,4.16-2.91,6.25-4.35,2.34-4.94,1-10.31-3.58-14.77L448.33,455v0c-1.55-4.13-2.87-8.5-8.55-8.5l0,0c-1.66-2.53-3.23-5.12-5-7.54-.65-.87-1.87-1.31-2.83-2l-1.69,3.39-7.45-3.63-.07-.06-2.37-2.42c-3.95-6.4-9.3-10.58-17.12-10.88v0c-2.93-7.06-7.51-9-17.15-7.22-3.68-3.56-8.19-6.59-10.88-10.79C370.17,397.36,372.66,391.87,382.87,385.52ZM520.68,593.74a8.19,8.19,0,0,0-.81,1.58c0,.11.67.62.9.54A4.63,4.63,0,0,0,522,595Z" transform="translate(-182.81 -189.02)"/><path class="cls-16" d="M541.07,629.09c7,2.4,10.69-1.21,13.45-7.14,1.24-2.67,3.39-4.91,5.12-7.35q6-7.86,12-15.71l7.58-7.53,2.75-2.94,0,.19,1.46-1.41-.2,0,4-3.39-.07.06,5.85-5.25v.23l6.29.41Q593.63,540.72,588,502l-2.42-.47-4.23,14.34c-.43.79-.86,1.58-1.28,2.37q-3.07,7.31-6.13,14.61l-2.43,6.1-1.22,3.63c-.81,1.63-1.61,3.27-2.41,4.9s-1.51,3.36-2.26,5c-1.41,1.54-3.24,2.86-4.15,4.66-2.19,4.31-3.89,8.86-5.87,13.27-4.21,9.38-3,13,6.16,18.52.07.4.14.8.22,1.2-.22.48-.43,1-.64,1.43l-7.1,7a1.26,1.26,0,0,0-.66.12q-7.26-9.06-14.51-18.11c-5.18-7.46-6-15.6-4.38-24.38,2.33-12.72,4.25-25.52,6.34-38.29h11c0-.69-.08-1.38-.11-2.07l-10.8,1.38c1.73-14.05,3.22-28.14,5.35-42.13.52-3.39,2.87-6.64,4.86-9.64,2.42-3.65,5.35-7,8.06-10.43.31-.5.5-1.24.95-1.48Q583.13,441.3,606,429.15L618,445l3.47,5-.06-.09c.47.82.93,1.65,1.39,2.48l-.08-.13,2.55,5-.08-.09a5.52,5.52,0,0,0,0,1.82c5.73,15.18,7.8,30.91,7.39,47.08-.06,2,1.36,4.07,2.09,6.11,0,.54.09,1.07.13,1.6l-2.37,71.62.12-.16c-.43,1-.85,1.91-1.27,2.87-6.32,8.63-11.89,18-19.16,25.68-6.77,7.19-15.1,13-23.22,18.79-5.55,3.94-11.93,6.72-17.93,10l-.78,1.24.14-.06c-5.3,1.74-10.66,3.31-15.86,5.3-2.65,1-5,2.75-7.5,4.16L541.1,655h-7.35c-4.12.18-9.59,2.07-12.06.14-3.5-2.74-5.57-1.22-8.37-.48l-7.47-10.59c4.27,1.31,7.71,3.63,11.41,5.38,6.54,3.1,16.55,1,22-4S544.1,634.92,541.07,629.09Zm18.24-115.74,11.87-5-1.43-2.65-10.42,7.66-4,1,.81,1.53Z" transform="translate(-182.81 -189.02)"/><path class="cls-6" d="M540.18,591.12l-9.13,1.47c-.07-6.81-5.6-7.1-11.43-8-2.65-.42-4.88-3.52-7.3-5.41,1.77-4.53,3.14-9.28,5.39-13.56,4.8-9.1,5.84-17.91-.25-26.81a8.93,8.93,0,0,1-.77-2.27c.1-1.29.72-2.87.2-3.82-3.64-6.62-2.55-12.74.08-19.58,2.52-6.53,3.09-13.8,4.51-20.75l4.15-17.86c-.28-4.22-.6-8.45-.83-12.67-.09-1.69-.67-4.27.17-4.91,3.54-2.75,7.65-4.77,11.3-7.4,1.18-.84,1.59-2.74,2.35-4.16,2.52-.46,5.06-.8,7.55-1.39,3.85-.91,8.9-.79,11.25-3.22A101.14,101.14,0,0,0,573.23,420c2-3.66.59-9.25.71-14l24.84-8.29-.56-1.62c-3.22,1.05-6.49,2-9.65,3.18-5,1.91-9.88,4-14.81,6.05l-4-11.3c8.88-1.3,17.75-2.64,26.64-3.88,3.95-.56,7.92-.92,11.88-1.37,4,.36,8.24.05,12,1.21,9.31,2.87,11.47,10,5.87,17.92-1.39,2-3.08,3.73-4.64,5.59-.58-.13-1.36-.58-1.72-.36-13.42,8.36-26.65,16.86-42.22,21.15-9.86,2.72-15.66,11.66-23,18.14-1.67,1.48-1.81,4.69-2.66,7.1l-5.84,6.15c-.94,1.22-2.57,2.36-2.71,3.66-.88,8.26-1.44,16.56-2.11,24.85-.14,1.51-.29,3-.43,4.54-1.09.68-2.81,1.11-3.17,2.06-1.25,3.29-2.55,6.71-2.85,10.16-.42,4.8,0,9.68.14,14.53L535,528l-2.16,2.61c-1.94,12.29-3.74,24.6-5.86,36.86a19.18,19.18,0,0,0,8.73,19.06C537.44,587.61,538.69,589.57,540.18,591.12Z" transform="translate(-182.81 -189.02)"/><path class="cls-6" d="M403.27,750.73c-26.43-.31-53,2.18-79.19-3.43-7.08-1.51-14.21-2.78-19.31-9-6.51-8-6.89-12.26-.63-20.36.86-1.12,1.81-2.17,2.72-3.26l1.54-1.52,7,13.72,0-.17c.92,1.19,1.83,2.39,2.75,3.59l-.05,0,2.29,1.67-.32-.17,1.69,1.76c12.89,10.46,27.5,10.53,42.69,7L412.94,731l9.58.88.22,1.09-15.54,5.44,3.34,5.23c-4.45-1.25-7.69-2.41-11-3-1.39-.23-3,.83-4.51,1.31.89,1.59,1.5,3.47,2.75,4.69.85.85,2.59.79,5.56,1.55l-9.82.63Z" transform="translate(-182.81 -189.02)"/><path class="cls-6" d="M571.05,642.6c6-3.3,12.38-6.08,17.93-10,8.12-5.76,16.45-11.6,23.22-18.79,7.27-7.72,12.84-17,19.16-25.68.42-1,.84-1.91,1.27-2.87l-.12.16c.74-2,1.94-4,2.13-6,.71-7.74,1.09-15.52,1.59-23.28,1.27.67,2.54,1.34,3.82,2,.12,2.65-.08,5.37.48,7.92s2.42,5.11,2.75,7.77c.48,3.74.08,7.58.05,11.38a129.24,129.24,0,0,1-29.05,38.1c-1.24.57-2.79.84-3.68,1.76a140.31,140.31,0,0,1-41,29.29c-9.78,4.64-19,2-28.49.71l5.95-1.76,23.36-9.46-.14.06Z" transform="translate(-182.81 -189.02)"/><path class="cls-6" d="M363.08,604.78,361,601.07c.63-5.17-2.79-13.17-6.26-14.63-.05-.78-.1-1.55-.14-2.33-.21-.82-.43-1.64-.64-2.46-.06-1.25-.13-2.49-.19-3.74.22-1.28.45-2.57.68-3.86.45-.76.9-1.52,1.36-2.28.25,1.38.51,2.77.77,4.15l1.69-.74-2.47-3.42,3.32-4.63q1.17,6.72,2.36,13.43v-.06l1.59,5-.14-.18,1.37,2.61-.13-.19,1.4,2.56-.07-.16c.41.94.83,1.87,1.24,2.81l11.49,16.68,3.18,3.83-.09-.08,7.45,6.59a.63.63,0,0,0,.71.65l1.75,1.33-.11-.07,2.37,1.81c2.25,1.82,4.42,3.77,6.77,5.44,16.59,11.77,34.8,20.18,54.21,26.11-18,2.92-33.82-1.75-47-15.29l-.76,1.58c1,1.11,1.93,2.22,2.9,3.32l-.26.3-2.73-.18-2.78-1.19L397.26,640h.16l-2.11-1.5c-2.13-2.3-4.17-4.69-6.4-6.88-7.39-7.28-14.86-14.48-22.29-21.72-.36-.48-.72-1-1.07-1.46h0Z" transform="translate(-182.81 -189.02)"/><path class="cls-2" d="M708.06,704.64,699.55,702v.24l-1.44-4.43,3.81-13.12h4c.32-.76.6-1.11.59-1.46-.11-6.81,3.74-13,8.86-13.21,6.24-.2,8.33,4.93,10.07,9.66.86,2.36.8,5.14.81,7.74,0,3.37,1.33,5.37,4.81,5.69l.09,4.29h0c-5.32.53-10.14,1.83-12.7,7.33-.34.73-2.06.82-3.14,1.21Z" transform="translate(-182.81 -189.02)"/><path class="cls-3" d="M449.5,458.62c4.59,4.46,5.92,9.83,3.58,14.77-2.09,1.44-4.31,2.74-6.25,4.35-5.94,4.94-11.78,10-17.65,15l6-9.86,1.24-1c1.64-1.48,3.35-2.89,4.9-4.45,10-10.12,9.39-16.15-2.51-24-11.13-7.36-22.18-14.85-33.48-21.93-3.43-2.15-7.56-2.85-10.74,1.17l-11.68,6.67-.08-.08c1.09-4.15,2.3-7.82,7.58-8.75,6.16-1.07,1.88-5.71,2.34-8.74l10.51,1.5v0c4.34,5.78,9.37,10.47,17.12,10.88l2.37,2.42c-.06.16-.13.31-.2.47l.27-.41,7.45,3.63,1.62-.09c-1.52,7.4,4.87,4.66,7.93,6.2l0,0c-.17,1.09-.84,2.92-.45,3.18,2.88,1.95,6,3.59,9,5.32v0Z" transform="translate(-182.81 -189.02)"/><path class="cls-2" d="M280.19,686.35c-.16-5.41.9-10.63,7.12-11.43a8.8,8.8,0,0,1,10.13,7.53c.45,3.94-2,8.21-3.27,12.92l5.67,4.43q-.69,4.85-1.37,9.71l.06-.07c-1.34-.26-2.9-.16-4-.84-4-2.55-5.46-1.18-5.43,3.08-2.81-2-6-3.61-8.28-6.08-1.19-1.29-1.7-5.43-.92-6C286.51,695.11,282.74,690.79,280.19,686.35Z" transform="translate(-182.81 -189.02)"/><path class="cls-5" d="M552,459.58c.85-2.41,1-5.62,2.66-7.1,7.32-6.48,13.12-15.42,23-18.14,15.57-4.29,28.8-12.79,42.22-21.15.36-.22,1.14.23,1.72.36l-11,11.06-4.5,4.54q-22.9,12.18-45.77,24.41c-.45.24-.64,1-.95,1.48Z" transform="translate(-182.81 -189.02)"/><path class="cls-5" d="M280.19,686.35c2.55,4.44,6.32,8.76-.25,13.29-.78.53-.27,4.67.92,6,2.28,2.47,5.47,4.1,8.28,6.08l4.49,4-.15.07c.35,9.18-6.89,6.89-11.94,7.91.14-10.12-1.73-12-12.14-11.95-3.62,0-5.15-1-4.5-5s.44-7.86.62-11.8Z" transform="translate(-182.81 -189.02)"/><path class="cls-3" d="M541.1,655c9.52,1.27,18.71,3.93,28.49-.71a140.31,140.31,0,0,0,41-29.29c.89-.92,2.44-1.19,3.68-1.76l-8.65,13-19.38,16.24-3.57,2.51c-10.43,8.22-22.23,7.9-34.38,5.59a7.65,7.65,0,0,0-2.32.31l-6.16-1.57L537.38,655Z" transform="translate(-182.81 -189.02)"/><path class="cls-17" d="M586.25,652.43l19.38-16.24c11.83,5.12,23.64,10.28,35.48,15.34,15.75,6.74,29.93,15.71,41.32,28.72l-.16.2c-2.51-1.65-5.07-3.22-7.51-5-7.93-5.63-15.28-12.41-23.86-16.73C637.46,652,623.13,647,609.32,641c-3.84-1.69-6-.74-9,1.86-4.25,3.72-9.31,6.51-14,9.7Z" transform="translate(-182.81 -189.02)"/><path class="cls-17" d="M361.43,580.57q-1.19-6.72-2.36-13.44c.64-25.78.84-51.58,2.15-77.32.45-8.87,3.65-17.6,5.6-26.39l.07,0c-.2,2.62-.3,5.25-.61,7.86-1.42,12-2.89,24-4.34,36l-.19,35.24-1,6.18Q361.09,564.63,361.43,580.57Z" transform="translate(-182.81 -189.02)"/><path class="cls-17" d="M315.39,726.83l-7-13.72c-.7-19.1,9.28-32.31,23.74-43l.56.51a58.83,58.83,0,0,0-4.62,4.73c-3.82,4.85-7.48,9.82-11.21,14.74-7,9.34-8.13,19.29-3.39,30A48,48,0,0,1,315.39,726.83Z" transform="translate(-182.81 -189.02)"/><path class="cls-17" d="M636.23,556.07c-.5,7.76-.88,15.54-1.59,23.28-.19,2.06-1.39,4-2.13,6l2.37-71.62q.64,18.13,1.28,36.25C636.22,552,636.21,554.06,636.23,556.07Z" transform="translate(-182.81 -189.02)"/><path class="cls-5" d="M643.33,585.14c0-3.8.43-7.64-.05-11.38-.33-2.66-2.17-5.1-2.75-7.77s-.36-5.27-.48-7.92C651.27,568.19,651.51,575.11,643.33,585.14Z" transform="translate(-182.81 -189.02)"/><path class="cls-17" d="M634.75,512.18c-.73-2-2.15-4.09-2.09-6.11.41-16.17-1.66-31.9-7.39-47.08a5.52,5.52,0,0,1,0-1.82c2.4,6.92,5.89,13.67,7,20.79C633.89,489.24,634,500.76,634.75,512.18Z" transform="translate(-182.81 -189.02)"/><path class="cls-17" d="M692.45,710.73c0,.49-.05,1-.08,1.48l-6,12.17a34.5,34.5,0,0,1,1.32-5.7c3.56-8.67,5-17.32.7-26.21-1.73-3.57-3.25-7.25-4.87-10.88l.06,0q4.34,8.55,8.65,17.1a1.1,1.1,0,0,0,.11,1C692.36,703.38,692.4,707.05,692.45,710.73Z" transform="translate(-182.81 -189.02)"/><path class="cls-17" d="M339.85,665.52l33.86-17.33.48.54c-10.17,5.56-20.32,11.14-30.53,16.61-1,.53-2.35.33-3.55.47Z" transform="translate(-182.81 -189.02)"/><path class="cls-5" d="M403.26,423.27l-10.51-1.5-6.64-5.72C395.75,414.28,400.33,416.21,403.26,423.27Z" transform="translate(-182.81 -189.02)"/><path class="cls-3" d="M373.32,450.36c1.42-5.2,2.89-10.35,9.51-11.1l.08.08-4.77,7.25-3.91,3.76A5.53,5.53,0,0,0,373.32,450.36Z" transform="translate(-182.81 -189.02)"/><path class="cls-5" d="M354.69,586.44c3.47,1.46,6.89,9.46,6.26,14.63Q357.83,593.75,354.69,586.44Z" transform="translate(-182.81 -189.02)"/><path class="cls-4" d="M293.63,715.69l-4.49-4c0-4.26,1.45-5.63,5.43-3.08,1.06.68,2.62.58,4,.84l-6.34,2.33C292.4,712.34,293,714,293.63,715.69Z" transform="translate(-182.81 -189.02)"/><path class="cls-17" d="M395.31,638.48l2.11,1.5-14.75,5-.44-.55Z" transform="translate(-182.81 -189.02)"/><path class="cls-17" d="M373.32,450.36a5.53,5.53,0,0,1,.91,0q-3.68,6.56-7.34,13.11l-.07,0,3.84-9.51c.83-1.27,1.67-2.54,2.5-3.82Z" transform="translate(-182.81 -189.02)"/><path class="cls-4" d="M298.47,709.51q.67-4.86,1.37-9.71C304.84,703.8,301.41,706.62,298.47,709.51Z" transform="translate(-182.81 -189.02)"/><path class="cls-17" d="M332.14,670.07l7.71-4.55.26.29-7.41,4.77Z" transform="translate(-182.81 -189.02)"/><path class="cls-17" d="M373.71,648.19l8.52-3.73.44.55-8.48,3.73Z" transform="translate(-182.81 -189.02)"/><path class="cls-17" d="M621.51,450,618,445Z" transform="translate(-182.81 -189.02)"/><path class="cls-4" d="M698.12,697.77l1.44,4.43C697.11,701.36,696,700.08,698.12,697.77Z" transform="translate(-182.81 -189.02)"/><path class="cls-4" d="M257.05,695l-3.42-.79c.94-.85,1.88-1.69,3.24-2.93Z" transform="translate(-182.81 -189.02)"/><path class="cls-17" d="M625.31,457.26l-2.55-5Z" transform="translate(-182.81 -189.02)"/><path class="cls-5" d="M363.08,604.78l2.46,3.65Z" transform="translate(-182.81 -189.02)"/><path class="cls-3" d="M373.16,450.09c-.83,1.28-1.67,2.55-2.5,3.82C371.49,452.64,372.33,451.37,373.16,450.09Z" transform="translate(-182.81 -189.02)"/><path class="cls-5" d="M354.4,574.05c-.23,1.29-.46,2.58-.68,3.86C354,576.62,354.17,575.34,354.4,574.05Z" transform="translate(-182.81 -189.02)"/><path class="cls-12" d="M270.65,281.92l2.32-1.29Z" transform="translate(-182.81 -189.02)"/><path class="cls-5" d="M353.91,581.65c.21.82.43,1.64.64,2.46C354.33,583.29,354.12,582.47,353.91,581.65Z" transform="translate(-182.81 -189.02)"/><path class="cls-17" d="M622.84,452.42c-.46-.83-.92-1.66-1.39-2.48Z" transform="translate(-182.81 -189.02)"/><path class="cls-4" d="M692.31,699.7a1.1,1.1,0,0,1-.11-1,4.19,4.19,0,0,1,.39.72C692.62,699.44,692.41,699.59,692.31,699.7Z" transform="translate(-182.81 -189.02)"/><path class="cls-11" d="M229.19,664.45,228,662.79Z" transform="translate(-182.81 -189.02)"/><path class="cls-11" d="M226.48,660.75l-1-1.27Z" transform="translate(-182.81 -189.02)"/><path class="cls-11" d="M225.56,659.54a4.81,4.81,0,0,1-.51-.76c0-.06.2-.25.31-.38A6.18,6.18,0,0,1,225.56,659.54Z" transform="translate(-182.81 -189.02)"/><path class="cls-7" d="M306.23,251.52c0-.35.08-.69.13-1A.68.68,0,0,1,306.23,251.52Z" transform="translate(-182.81 -189.02)"/><path class="cls-5" d="M365.55,608.42c.35.49.71,1,1.07,1.46C366.26,609.4,365.9,608.91,365.55,608.42Z" transform="translate(-182.81 -189.02)"/><path class="cls-17" d="M682.43,680.25c.38.43.75.87,1.12,1.31l-.06,0-1.22-1.14Z" transform="translate(-182.81 -189.02)"/><path class="cls-4" d="M648.65,819.1l-1.56.92-3.55-2.31q11-8.72,21.94-17.42c3.45-2.75,3.66-6.25,1.74-9.82-2.23-4.15-5.42-7.17-10.68-6.39-1.73.25-3.41.78-5.41.34l6.35-3.19c.17-11.19,2-12.32,18.15-11.52-1.52-4.45-3.09-9-4.65-13.63l.84,0c2,3.47,4.14,6.86,5.88,10.45.79,1.64.79,3.66,1.15,5.51a40.38,40.38,0,0,1-5,.16c-2.39-.22-4.87-1.32-7.11-.92s-6.22,2-6.37,3.37c-.29,2.57,1.31,5.59,2.78,8,1.22,2,3.69,3.21,5.09,5.14,3.19,4.38,3.83,9.25-.21,13.3C661.79,807.37,655.13,813.14,648.65,819.1Z" transform="translate(-182.81 -189.02)"/><path class="cls-15" d="M721.38,798.49c-1.13,1.37-2,3.45-3.45,4-6.7,2.53-13.55,4.64-20.35,6.91l12.55-18.71h-5.4c.09-4.46,3.06-5,6.1-3.65,4.15,1.81,7.95,4.39,11.9,6.64l-.08,0L716.72,796Z" transform="translate(-182.81 -189.02)"/><path class="cls-4" d="M553.69,816.09c3.87-3,7.38-6.73,11.7-8.8,6.42-3.08,9-5.68,7.15-9.74-2.88-6.3-9-8.32-15-5.27-1.68.86-3.87.74-5.83,1.07q.42-2.62.82-5.26a9.84,9.84,0,0,1,.82.76c1,.46,2,1.41,2.94,1.29,6.2-.76,11.5-3.74,16.63-7.08l-.27,1.94c-.4,2.25-1.87,5-1,6.66,5,10.07,5.21,10-3.27,17.61l-2.21,2.06-1-.81L554.72,817Z" transform="translate(-182.81 -189.02)"/><path class="cls-6" d="M755.26,758l-5.86.1q-1.2-2.36-2.41-4.71c.88-1.35,1.51-3,2.7-4,3.45-2.86,7.12-5.46,10.71-8.16C760.7,747.43,760.91,753.61,755.26,758Z" transform="translate(-182.81 -189.02)"/><path class="cls-5" d="M702.05,797.39,684.56,811.5l2.68-9.34c.83-2.07,1.67-4.13,2.5-6.2-.41,4.87,1.69,5.74,5.56,3.35a40.65,40.65,0,0,0,4.13-3.33Z" transform="translate(-182.81 -189.02)"/><path class="cls-5" d="M747,753.38q1.21,2.36,2.41,4.71l-4.73,2.35c.24,1,.59,2.5,1,4l-4.46-2.53-6.88.38L741,754Z" transform="translate(-182.81 -189.02)"/><path class="cls-4" d="M741,754l-6.71,8.33,6.88-.38a16.58,16.58,0,0,1-3.54,2,22,22,0,0,1-4.54.32c.3-1.62.19-3.47,1-4.8,2.19-3.69,6.53-6.76,1.63-12l2.4-.47Q739.53,750.46,741,754Z" transform="translate(-182.81 -189.02)"/><path class="cls-4" d="M548.59,825.5,545.9,824l7.79-7.92,1,.91c-.22.6-.43,1.2-.65,1.79l-3.28,2.85-.19.78.16-.8L555.1,820l3.77-2.36,1.38,1.07Z" transform="translate(-182.81 -189.02)"/><path class="cls-1" d="M572.65,785l.27-1.93,7.13-.43,7.59,4.32c-.54-2.51-.89-4.16-1.25-5.82l1.34-1.28c3,4.46,3,4.46-.11,8.6Z" transform="translate(-182.81 -189.02)"/><path class="cls-6" d="M689.74,796c-.83,2.07-1.67,4.13-2.5,6.2-1.2-.57-3.33-1-3.42-1.74a10.16,10.16,0,0,1,1-5.19c.65-1.42,2-2.51,3.05-3.75C688.48,793,689.11,794.47,689.74,796Z" transform="translate(-182.81 -189.02)"/><path class="cls-1" d="M644.91,766.46c8.76,4.2,10.59,10.22,4.69,15.61-.47.43-1.36.41-2.47.72,5.12-8.26,4.8-9.67-3.11-15.29C644.31,767.15,644.61,766.81,644.91,766.46Z" transform="translate(-182.81 -189.02)"/><path class="cls-1" d="M587.08,766.76l3.09.37c-4.58,3.52-5.32,7.78-2.44,12.73l-1.33,1.28C582.32,775.52,582.48,772.23,587.08,766.76Z" transform="translate(-182.81 -189.02)"/><path class="cls-6" d="M670.14,818.11l-.41,0-.4,0-6.75-1.54C664,819.2,671.2,809.38,670.14,818.11Z" transform="translate(-182.81 -189.02)"/><path class="cls-15" d="M702.05,797.39,699.43,796l5-3.55C703.64,794.09,702.85,795.74,702.05,797.39Z" transform="translate(-182.81 -189.02)"/><path class="cls-1" d="M637.56,767.1c.28-1.3.56-2.6.85-3.89l6.5,3.25c-.3.35-.6.69-.89,1Z" transform="translate(-182.81 -189.02)"/><path class="cls-4" d="M563.13,814.47l-2.89,4.2-1.37-1.07,3.3-4Z" transform="translate(-182.81 -189.02)"/><path class="cls-4" d="M566.12,811.33q-1.49,1.57-3,3.14l-1-.91,3-3Z" transform="translate(-182.81 -189.02)"/><path class="cls-6" d="M674.45,813.45l-1,.13a6.13,6.13,0,0,1,.1-1c0-.07.47-.14.5-.08A5.63,5.63,0,0,1,674.45,813.45Z" transform="translate(-182.81 -189.02)"/><polygon class="cls-1" points="427.64 633.86 427.96 634.1 427.69 633.8 427.64 633.86"/><path class="cls-5" d="M511,833.61c-3.59-1.59-7.75-2.51-10.62-5-2.66-2.26-3.95-6.14-5.85-9.3l-1.73.51c-.15,1.86-.36,3.72-.44,5.59-.35,8.8-2.72,11.16-11.66,10.66-2.66-.15-5.26-1.5-7.89-2.3,5.49-.4,10.44-1,9.15-8.87-.34-2.09,2-4.62,3.14-7l4.75-6.11c1-5.4,5.15-5.18,10.67-4.35-1.65-4.38-2.92-7.72-4.63-12.23,1.64.84,3.3,1.13,3.78,2.05,1.39,2.68,2,5.79,3.52,8.38,1.28,2.18,3.41,3.87,5.17,5.77l1.76-.77c-.41,2.41-.83,4.83-1.24,7.24l-5.64-1.2c1.53,2.82,2.05,5.38,3.56,6.26,3.5,2.05,7.46,3.29,11.24,4.86C518.94,833.81,513.4,831.77,511,833.61Z" transform="translate(-182.81 -189.02)"/><path class="cls-1" d="M444.85,774.27l1.31,1.15c-5.3,6.35-5.3,7.49-.25,14.06,1.66,2.15,3.19,4.4,4.79,6.61l-1,1.54c-2.72-.84-5.41-1.79-8.16-2.51-4.56-1.18-9.16-2.51-12.18,3-3.54,6.47-.93,11.58,6.44,12.6,2.55.35,5,1.14,7.55,1.74l.18,3.1h0l-7.27-1.22a22.44,22.44,0,0,1-2.13-.76c-14.57-6.75-10.58-14.23-1.94-21.81-3.65-3.87-7.7-4.78-12.9-3-5.57,1.84-6.37.67-4.74-5.13.54-1.91.72-3.92,1.07-5.89l1.52-.1-.3.1,1.05,3.69-1.79,5.38c7.22-5.06,12.46-1.44,17.67,1.64,3.39,2,5.07,1.38,4.74-2.63C438.05,780.45,440.7,777,444.85,774.27Z" transform="translate(-182.81 -189.02)"/><path class="cls-15" d="M469.08,779.14c-5.18-4.77-6.11-8.71-3.06-12.95s9.41-5.52,13.59-1.62c2.77,2.58,3.76,7.08,5.54,10.72a14.76,14.76,0,0,1-3.52-1.64c-3-2.47-5.77-5.14-8.64-7.73l-2.78,1.15Q469.64,773.1,469.08,779.14Z" transform="translate(-182.81 -189.02)"/><path class="cls-5" d="M509.25,819.43c7.73.32,15.42.35,23.55-2.25.23.42,1.46,2.51,1.39,2.56-3.73,2.37-7.57,4.57-11.41,6.79-1.69-.41-3.76-.35-5-1.33C515.05,823.06,509.51,825.06,509.25,819.43Z" transform="translate(-182.81 -189.02)"/><path class="cls-15" d="M489.85,811.89,485.1,818l-12.88-5.67c1.95-1.61,3-2.58,4.19-3.43s2.62-1.74,5-3.31v8.86l1.46.56,3.21-6.2Z" transform="translate(-182.81 -189.02)"/><path class="cls-3" d="M509.25,819.43c.26,5.63,5.8,3.63,8.52,5.77,1.25,1,3.32.92,5,1.33L518,827.9c-3.78-1.57-7.74-2.81-11.24-4.86-1.51-.88-2-3.44-3.56-6.26l5.64,1.2Z" transform="translate(-182.81 -189.02)"/><path class="cls-2" d="M591.31,827.23h-1.83v-.5h1.83Z" transform="translate(-182.81 -189.02)"/><ellipse class="cls-2" cx="402.61" cy="639.25" rx="1.34" ry="0.36"/><path class="cls-1" d="M443.55,815.56l3.71,2.39-.82.8-2.91-3.18Z" transform="translate(-182.81 -189.02)"/><path class="cls-1" d="M447.26,818l2.54,3.55-.56.48-2.8-3.23Z" transform="translate(-182.81 -189.02)"/><path class="cls-6" d="M715.29,705.89c1.08-.39,2.8-.48,3.14-1.21,2.56-5.5,7.38-6.8,12.7-7.33l.29,2.31.76-.25c-.35-.69-.7-1.37-1.06-2l-.09-4.29,7.12,2.75c-.37,3.13-.73,6.26-1.11,9.44-16.88-.29-18.51.84-18.29,12.8-.72-1.38-1.42-2.78-2.17-4.15s-1.71-3-2.56-4.45l0-1.12c0-.4,0-.81,0-1.21l1.23-1.25Z" transform="translate(-182.81 -189.02)"/><path class="cls-15" d="M714.06,707.13c0,.4,0,.81,0,1.21-.13.11-.39.24-.37.31a4.36,4.36,0,0,0,.34.81c.85,1.48,1.73,2.95,2.56,4.45s1.45,2.77,2.17,4.15l0,1.24-4.72.9-1.18.87-13.47-7.45,8.65-9,7.23,1.25h0Z" transform="translate(-182.81 -189.02)"/><path class="cls-6" d="M714.06,720.2l4.72-.9,1.23,1.14a6.78,6.78,0,0,0-1,.17Z" transform="translate(-182.81 -189.02)"/><path class="cls-2" d="M446.44,818.75l2.8,3.23.66,3-.27.35-9.7-6.09-.06-.06L438.7,818l0,0c-.81-1.22-1.62-2.45-2.44-3.67l0,.05,7.27,1.22Z" transform="translate(-182.81 -189.02)"/><path class="cls-2" d="M449.9,825l1.12.92-1.39-.57Z" transform="translate(-182.81 -189.02)"/><path class="cls-2" d="M721.38,798.49,716.72,796l5.93-2.37Q722,796.08,721.38,798.49Z" transform="translate(-182.81 -189.02)"/><path class="cls-15" d="M374.56,774.18c-.52-3.54-2-7.32-1.21-10.54.54-2.18,4.29-5,6.63-5,3.73,0,7.47,2,11.21,3.21,4.1,3.3,2.69,6.56-.09,9.8Z" transform="translate(-182.81 -189.02)"/><path class="cls-4" d="M337.94,788l2.79-6,15.27,5.9L339,789Z" transform="translate(-182.81 -189.02)"/><path class="cls-4" d="M303.17,798.71l1.31,3.66-1.11.76-12.18-15.48Z" transform="translate(-182.81 -189.02)"/><path class="cls-18" d="M391.1,771.68c2.78-3.24,4.19-6.5.09-9.8,2.35-2.87,3.27-1.17,3.46,1.26.23,2.91.05,5.85.05,9.64l6.08-1.06C397,776.67,395.11,776.66,391.1,771.68Z" transform="translate(-182.81 -189.02)"/><path class="cls-1" d="M436.27,821.59l-6.28-2,1.22-2.17,5,4.21Z" transform="translate(-182.81 -189.02)"/><path class="cls-1" d="M436.23,814.3c.82,1.22,1.63,2.45,2.44,3.67C437.86,816.75,437.05,815.52,436.23,814.3Z" transform="translate(-182.81 -189.02)"/><path class="cls-4" d="M339,789l-1.91.77.88-1.75Z" transform="translate(-182.81 -189.02)"/><path class="cls-1" d="M437.51,822.84l-1.24-1.25-.06.06c.41.42.83.83,1.25,1.25Z" transform="translate(-182.81 -189.02)"/><path class="cls-15" d="M372.94,775.83l1.17-.46Z" transform="translate(-182.81 -189.02)"/><path class="cls-1" d="M438.7,818l1.17,1.18Z" transform="translate(-182.81 -189.02)"/><path class="cls-15" d="M403.27,750.73l-9.77-1.86,9.82-.63c-3-.76-4.71-.7-5.56-1.55-1.25-1.22-1.86-3.1-2.75-4.69,1.51-.48,3.12-1.54,4.51-1.31,3.33.56,6.57,1.72,11,3l-3.34-5.23L422.74,733l-.22-1.09-9.58-.88L432,726.7a8.27,8.27,0,0,0-.32,3,9.62,9.62,0,0,1-.77-1.37,48,48,0,0,0-4.11,3,13.14,13.14,0,0,0,1.33,2.16,13.89,13.89,0,0,0,3.55-3.84,8.87,8.87,0,0,1,2.09-3.35c8.07-2.37,16.17-4.63,24.18-7.17,2.3-.73,4.35-2.28,6.51-3.46a1.82,1.82,0,0,0,1-.31,84.24,84.24,0,0,0,8.41-2c3.06-1,6-2.51,8.93-3.79l6.95-2.56,13.66-1.17,7.45,1.13,55.75,13.72-.31,0,1.52,1.19-4.87,1-2.08-1.09-.27.79L563,723c4.76,1.65,9.06,8.14,14.64,1.41l1.21,0c.87,1.12,1.52,2.86,2.64,3.25,5.09,1.79,10.28,3.34,15.5,4.72,4.93,1.3,8.8,6.57,14.76,4,.37.26.74.53,0,0h0c5.57.36,11.16.5,16.68,1.23a6.21,6.21,0,0,1,4,3.39,8.77,8.77,0,0,1-.17,5.58c-.28.85-2.08,1.48-3.29,1.71a43.26,43.26,0,0,1-8.52,1.06,125.38,125.38,0,0,1-19.56-1.6c0-.34,0,.15-.11.64h4.65c0-.31,0-.63.05-.94a8.74,8.74,0,0,0-4.59.3,68.49,68.49,0,0,1-12.24,3.06l-8.66-.15-1.11.11c-14.56-.2-29.12-.7-43.68-.54-18,.19-36,.94-54,1.44l-2.19.19-7.49.09-9.52-.13-10.05,0-7,.12-2.53,0-1.93-4.05c-.19.6-.39,1.19-.59,1.79-2.49,0-5,0-7.49,0-8.58-.08-17.16-.2-25.73-.22-.28,0-.55,1-.83,1.54Zm212-2.76,0-1.07h-6.28c0,.36,0,.71,0,1.07ZM606.45,743l.13,1.53,3.12-.54-.3-1.28Z" transform="translate(-182.81 -189.02)"/><path class="cls-6" d="M588.62,750.77l12.13-2.24c6.56.28,13.11.7,19.67.78a43.26,43.26,0,0,0,8.52-1.06c1.21-.23,3-.86,3.29-1.71a8.77,8.77,0,0,0,.17-5.58,6.21,6.21,0,0,0-4-3.39c-5.52-.73-11.11-.87-16.68-1.23h0c-6,2.6-9.83-2.67-14.76-4-5.22-1.38-10.41-2.93-15.5-4.72-1.12-.39-1.77-2.13-2.64-3.25,1.91.31,3.82.57,5.72.92,4.25.79,8.48,1.61,12.72,2.42,18.34,2.91,36.62,6.22,55,8.51,7.23.9,15,1.21,21.66-3.51l-.08.09,8.9-4.47.15-.08q1.68-2,3.37-4l.05.07,6-12.17C702.68,727,696,736.85,682.9,741.1A182.35,182.35,0,0,1,643.3,749C625.16,750.65,606.85,750.29,588.62,750.77Zm47.15-2.89.44.28.06-.46Z" transform="translate(-182.81 -189.02)"/><path class="cls-2" d="M444.85,774.27c-4.15,2.72-6.8,6.18-6.34,11.52.33,4-1.35,4.63-4.74,2.63-5.21-3.08-10.45-6.7-17.67-1.64l1.79-5.38-1.05-3.69.3-.1a11.16,11.16,0,0,0-.07-1.74c-.53-2.68-2.36-7-1.44-7.71,2.67-2,6.58-3.64,9.74-3.25,1.95.24,3.41,4.43,5.1,6.85.33.47.68.94,1,1.43,11.25-10.79,14.34-11.14,19.14-2Z" transform="translate(-182.81 -189.02)"/><path class="cls-2" d="M587.08,766.76c-4.6,5.47-4.76,8.76-.68,14.38.35,1.66.7,3.31,1.24,5.82l-7.59-4.32c-3.84-5-7.06-5.48-11.87-2.22-2.32,1.57-4.58,5.56-7.77,1,.43-6.19-2.64-9.92-8.36-11.5,1.46-9.09,5.81-9.57,16.35-2.1C576.15,760.36,583.1,760,587.08,766.76Z" transform="translate(-182.81 -189.02)"/><path class="cls-2" d="M719,721.39l9.19,4.17c-6.8,4.53-10.15,9.56-8.36,17.33.44,1.92-1.72,4.45-2.69,6.69l-1.63-.56c.23-1.38,1-2.9.59-4.11-1-3.23-1.49-7.34-3.76-9.27-6.55-5.6-6.78-8.38.43-12.86Z" transform="translate(-182.81 -189.02)"/><path class="cls-5" d="M247.63,766.7l-1.5-1.09-2.52-10.89,8.59,2.18-1.81-6.26c2.59-1,7.31,3.59,7.56-4.14l5.49,6.39-.84,9.62-.94,1L256,767.37,253.68,761Z" transform="translate(-182.81 -189.02)"/><path class="cls-5" d="M560.41,781.41c3.19,4.57,5.45.58,7.77-1,4.81-3.26,8-2.75,11.87,2.22l-7.13.43c-5.13,3.33-10.43,6.31-16.63,7.07-.91.12-2-.83-2.94-1.29Z" transform="translate(-182.81 -189.02)"/><path class="cls-6" d="M405.78,750.89c.28-.54.55-1.54.83-1.54,8.57,0,17.15.14,25.73.22,2.5,0,5,0,7.49,0,.2-.6.4-1.19.59-1.79l1.93,4.05Z" transform="translate(-182.81 -189.02)"/><path class="cls-5" d="M282.74,730.28l-5-1.34c2.82-1.27,6.51-4.3,8.28-3.43,3.46,1.7,5.85,5.57,8.68,8.55-.8.47-2.25,1.4-2.3,1.34-2.42-3.39-6.73-2.08-9.71-3.95l0,0c0-.42,0-.84,0-1.25.07-.12.15-.24.23-.36Z" transform="translate(-182.81 -189.02)"/><path class="cls-6" d="M462,751.78l9.52.13Z" transform="translate(-182.81 -189.02)"/><path class="cls-1" d="M719,721.39l-6.23,1.39c0-.56.05-1.13.08-1.7l1.18-.88,4.93.41A2.05,2.05,0,0,1,719,721.39Z" transform="translate(-182.81 -189.02)"/><path class="cls-6" d="M444.88,751.86l7-.12Z" transform="translate(-182.81 -189.02)"/><path class="cls-6" d="M479,751.82l2.19-.19Z" transform="translate(-182.81 -189.02)"/><path class="cls-5" d="M262.6,762.51l1.06,1.57-2-.53Z" transform="translate(-182.81 -189.02)"/><path class="cls-6" d="M578.85,750.73l1.11-.11-.55.14Z" transform="translate(-182.81 -189.02)"/><path class="cls-5" d="M282.7,731.45l-.21.41.25-.37Z" transform="translate(-182.81 -189.02)"/><path class="cls-2" d="M386.15,830.06,385,828.94Z" transform="translate(-182.81 -189.02)"/><path class="cls-13" d="M203.52,381.77c-.14.43-.28.87,0,0-.56.77-.29.4,0,0Z" transform="translate(-182.81 -189.02)"/><path class="cls-17" d="M516.69,536.52a8.93,8.93,0,0,0,.77,2.27c6.09,8.9,5,17.71.25,26.81-2.25,4.28-3.62,9-5.39,13.56-.74,2.86-1.49,5.71-2.29,8.77l-3-4.36v9.65l-2.05.09c0-6.6-.14-13.21.08-19.8.08-2.16,1.13-4.28,1.68-6.43,2.92-11.26,1-21.27-7.88-29.31-9.52-8.6-13-20-13.62-32.09-.28-5.31,2-11,4.2-16.13,2.06-4.92,1.56-8.79-1.38-13-2.39-3.42-4.24-7.22-6.32-10.85-4.12-10.65.1-19.87,5-29l12.94-6.26c5,.63,10,1.72,15,1.71,2.73,0,5.45-1.88,8.18-2.91l0,0,1-1.6c-.95-4.87,1.16-8.07,5.51-8.16,4.15-.09,8.29,0,12.44,0l-.73-1.32,13.36-9.56c.84-2.21,1.24-5.78,3.22-7.85,3.12-3.27,2.25-6.09.67-9.2-1.14-2.23-2.64-4.28-4-6.41,7.65-1.36,11.74,3.49,15.52,8.89l4,11.3-.1.39.28.29c-.12,4.72,1.33,10.31-.71,14a101.14,101.14,0,0,1-15.81,20.73c-2.35,2.43-7.4,2.31-11.25,3.22-2.49.59-5,.93-7.55,1.39-4.53.79-9,1.94-13.59,2.29-6.49.51-8.36,2.58-6.28,8.83,2,6.1,4.57,12,6.88,18q-2.07,8.92-4.15,17.86c-3.37,4.74-6.82,9.43-10.1,14.24-4.65,6.8-3.59,13.76-.11,20.6C512.9,530.41,514.88,533.43,516.69,536.52Z" transform="translate(-182.81 -189.02)"/><path class="cls-6" d="M554.28,385.19c1.34,2.13,2.84,4.18,4,6.41,1.58,3.11,2.45,5.93-.67,9.2-2,2.07-2.38,5.64-3.22,7.85L541,418.21l.73,1.32c-4.15,0-8.29-.07-12.44,0-4.35.09-6.46,3.29-5.51,8.16l-1,1.6,0,0c-8.12,3.39-15.95.54-23.42-2-3.28-1.1-5.58-5.1-8.33-7.78l6.88-4.28-7-4.17c-7.6-2.29-12.41-7.17-13.34-15.18-.6-5.14-.63-10.34-.91-15.52,2.31-5.21,5.76-7.54,11.52-4.91,1.15.52,2.72.12,4.09.15L497,377l-.6-1.36,4.2-2.48c1.31-.07,3.66.14,3.78-.26,1.22-4.41,4.54-4.39,7.73-3.52,5.24,1.43,10.33,3.4,15.49,5.14l.06.06,2.27,2.41,18.5,6,2.53,1.14c.1-1.32.17-2.42.25-3.52Zm-27.4-6.45c-10.18,5-1.85,12.09-3.45,17.73l2.12.31C526,391,526.4,385.16,526.88,378.74Z" transform="translate(-182.81 -189.02)"/><path class="cls-17" d="M499.82,234.09l2.17,6.54c9.64,3.18,16.87,9.66,17,21,.1,8.22,6.9,9.34,11.41,11.7,18.5,9.68,26.88,24.3,25.37,45.07-.67,9.21,0,18.52-.8,27.7-.41,4.73-2.68,9.3-4.12,13.93-2.76-5-5.52.73-8.4-.68,0,7.15,0,13.62,0,20.1l-2.55-15.14L535,374.61c1-8.8,2.42-17.58,2.76-26.41.43-11.49.25-23-.25-34.52-.19-4.26-2-8.46-3.11-12.68l2.16-.5c1.82,8.58,3.65,17.15,5.83,27.4,3.56-2.33,8.75-3.89,9.28-6.41,2.6-12.52.9-24.7-8.82-34-8.15-7.82-17.65-13.78-29-16.07a3.61,3.61,0,0,1-.15-1.21,33.46,33.46,0,0,1,1-3.51,16.7,16.7,0,0,0-7.12-19.72c-14.42-9-24-2-32.13,8.5-2.34,3-2.36,9-1.42,13.12,1.17,5.19,6.58,3.57,10.42,3.43,8.13-.28,16.25-.92,24.37-1.42l.13,1.51c-3.14.39-6.27,1-9.42,1.15-8.88.53-17.84.38-26.64,1.49-11.22,1.41-20.37,6.91-27.65,15.84-8.13,10-9.28,21-6.35,33.23l10.51,2.74c.25-3.27.25-6.11.72-8.86,1.38-8.13,2.95-16.74,12.21-19.33,10.12-2.82,20.52-3.62,30.83.38a9.24,9.24,0,0,0,7.38-.66c9.63-6.44,19.08-4,28.66-.24a3.17,3.17,0,0,1-2.51.55c-10.38-3.69-19.87-1.6-29,4-1,.61-3,.25-4.25-.33a40.06,40.06,0,0,0-27.09-2.77c-6.21,1.43-10.85,5-12,11.44-1.19,6.93-1.61,14-2.36,21-2.25-1.17-4.6-2.19-6.72-3.56-3.45-2.23-8.6-1.77-9.05,1.45-.68,4.84-.18,9.85-.18,14.78l2.12-.1.48-4.61c.6-5.82,3.26-7.82,9.16-6.93,1.38.2,2.79.28,4.18.41q1.92,18.78,3.83,37.57l-.27.23-4.11-10.72h-1.05c.19,2.75.78,5.54.49,8.24-.55,5.33-1.59,10.6-2.43,15.89a43.17,43.17,0,0,0-.89-25.34l-5.37-.33v6.14c-2.25-8-5.66-16-6.47-24.16a238.41,238.41,0,0,1-.38-35.56c.46-8.94,5.57-16.09,12.64-21.38s14.8-10.22,22.48-15.47c-2.16-7,3.05-20.36,13.39-25,1.86-.84,3.28-2.67,4.9-4C496.17,243.27,498.68,242.1,499.82,234.09ZM449.64,354.94l3.32-4.65-7,1.14-4.51-12.72c-.35,1.5-1.59,3.74-1.16,5.62.72,3.24-1.09,8.89,5.69,7.95l3.68,2.69-4.14.63.55,1.59Zm102.85-12.6,1.93-.44c-.78-4.46-.9-9.23-2.73-13.21-.56-1.21-5.94-.75-8.87-.05-1.09.26-1.49,3.41-2.43,5.8C550.42,332.6,551.12,333.12,552.49,342.34Zm-11.57.76,1.85.17,5.06-6.82-.78-1.3c-2,.91-4.37,1.41-5.73,2.88C540.41,339,541,341.36,540.92,343.1Zm-93-2-1.67.13c.11,1.51.21,3,.32,4.51l1.63-.14C448.1,344.12,448,342.62,447.92,341.12Z" transform="translate(-182.81 -189.02)"/><path class="cls-19" d="M442.24,364.83v-6.14l5.37.33a43.17,43.17,0,0,1,.89,25.34l-7.24.65c-.05-2.05-.23-4.09-.11-6.12C441.44,374.2,441.87,369.51,442.24,364.83Z" transform="translate(-182.81 -189.02)"/><path class="cls-16" d="M542.46,379.45v-20.1c2.88,1.41,5.64-4.32,8.4.68a2.28,2.28,0,0,1-.23,1.06q-.52,2.54-1,5.07a1.68,1.68,0,0,1-.17.93c-.94,3.69-2.4,7.35-2.56,11.07-.06,1.32,2.18,2.54-1,2.52Z" transform="translate(-182.81 -189.02)"/><path class="cls-16" d="M499.82,234.09c-1.14,8-3.65,9.18-11,5.12.28-4.3.67-8.52,6-9.64l5,4.63Z" transform="translate(-182.81 -189.02)"/><path class="cls-17" d="M545.85,380.68c3.2,0,1-1.2,1-2.52.16-3.72,1.62-7.38,2.56-11.07q.87,6.74,1.73,13.47c-.08,1.1-.15,2.2-.25,3.52l-2.53-1.14Z" transform="translate(-182.81 -189.02)"/><path class="cls-17" d="M464,393.61q.11-5.89.23-11.8l.12-.12,7.27,5h-3.79l-3.55,7.29Z" transform="translate(-182.81 -189.02)"/><path class="cls-17" d="M499.83,234.2l-5-4.63Z" transform="translate(-182.81 -189.02)"/><path class="cls-17" d="M460.29,378.43l-2.38-3.72.35-.33,2.46,3.65Z" transform="translate(-182.81 -189.02)"/><path class="cls-17" d="M549.6,366.16q.51-2.54,1-5.07Q550.11,363.63,549.6,366.16Z" transform="translate(-182.81 -189.02)"/><path class="cls-17" d="M464.22,381.81l-2.7-2.17.38-.39,2.44,2.44Z" transform="translate(-182.81 -189.02)"/><path class="cls-17" d="M457.91,374.71l-1.33-2.31L457,372l1.26,2.4Z" transform="translate(-182.81 -189.02)"/><path class="cls-17" d="M461.52,379.64l-1.23-1.21.43-.4,1.18,1.22Z" transform="translate(-182.81 -189.02)"/><path class="cls-17" d="M456.58,372.4c-.32-.49-.65-1-1-1.46l.26-.23L457,372Z" transform="translate(-182.81 -189.02)"/><path class="cls-17" d="M463.22,395a1.59,1.59,0,0,1-.19-1.09l1-.33.28.33Z" transform="translate(-182.81 -189.02)"/><path class="cls-16" d="M361.75,542.52q.11-17.62.19-35.24c.71,2.52,1.75,5,2,7.57.22,2.13-.75,4.36-.74,6.55,0,4.66,5.43,9.22.21,14-.19.17.66,1.34.89,2.08.86,2.74,1.61,5.52,2.51,8.25.65,2,1.48,3.88,2.2,5.83,1.69,4.54,3.63,9,4.87,13.67.3,1.11-1.73,2.83-2.68,4.27-1.48-13.85-1.48-13.85-7.1-13.67l3.42,6.22c-5,4.1-5,4.1-1.48,14.36,4.91-2,8.83-7.12,15.14-5,.55.19,1.67-2.08,2.81-2.67a13.15,13.15,0,0,1,5.67-1.89c2.92,0,5.83.81,8.75,1.28-.21,2.16-1,4.45-.47,6.43s2.23,3.56,3.43,5.31l-.08-.1,1.71,1.76,10.29,9.88,5,4.56L418,596l1.38,1.43-.2-.18,1.32,1.44-.08-.14,3.78,5-.11-.11,2.44,3.74L447.63,631c1.66,1.47,6-2,5.71,3.08l0-.07-.13,2.62.65,4.59-.62.72,1.32.57,0,0L457,645l0-.05c1.62,1.54,3,3.42,4.9,4.55,7.79,4.71,16.17,2.24,24.38,1.64.64,1.34,1.29,2.68,1.92,4-.49.3-.8.65-1.13.67q-15.17,1-30.34,1.87l-2.29-2.43c-19.41-5.93-37.62-14.34-54.21-26.11-2.35-1.67-4.52-3.62-6.77-5.44l-2.37-1.81.11.07-1.75-1.33a.63.63,0,0,1-.71-.65q-3.72-3.3-7.45-6.59l.09.08-3.18-3.83-11.49-16.68c-.41-.94-.83-1.87-1.24-2.81l.07.16-1.4-2.56.13.19c-.46-.87-.92-1.74-1.37-2.61l.14.18-1.59-5v.06q-.33-15.93-.67-31.86C364,547.11,365.82,545.29,361.75,542.52Zm32.31,32.78c-5.07,4.09-5,4.45,1.53,8Z" transform="translate(-182.81 -189.02)"/><path class="cls-18" d="M453.9,641.2c-.22-1.53-.43-3.06-.65-4.59.05-.88.09-1.75.13-2.62l0,.07c2.84-5.48,7.82-6,13-5.06,4.95.86,9.79,2.43,14.68,3.68,2.53,2.27,4.75,3.75,8.23.84,8.85-7.42,12-7,20.13,1.9,9.25-8.34,19.73-11.39,31.72-6.33,3,5.83,3.71,11.32-1.76,16.33s-15.51,7.13-22,4c-3.7-1.75-7.14-4.07-11.41-5.38l7.47,10.59c-2.08.83-4.11,2.11-6.26,2.4-5.48.74-11,1-17.6,1.59l3.11,4.05-5.32-.65c-1.69.21-3.53.06-5,.71-2.17,1-3.93,3.15-6.14,3.68-13.28,3.18-26.63,6.13-40,9-4.9,1-9.92,1.54-14.88,2.29l-2,.23-5.15,1L410.45,680l-2.05.13-3.92.33-13.28-1.18c.52-1.5.91-2.61,1.3-3.71l-.06,0,1.67-1.09,5.18-.59-3.31-5c1.49-.82,3-1.65,4.46-2.44.54-.27,1.27-.28,1.68-.66,5.89-5.48,12.88-2.14,18.45-.66s9.81-1.29,14.66-1.42l-.68-2.23c8.14,3.08,14.89-1.87,22.15-3.84q15.18-.92,30.34-1.87c.33,0,.64-.37,1.13-.67-.63-1.33-1.28-2.67-1.92-4h0l2.33-1.23c6-7.13,6-7.13,3.91-11.12-8.06,10.6-11.17,12.46-22,10.84-4.64-.69-9-3.06-13.55-4.67l0,.05-2.46-2.5,0,0Z" transform="translate(-182.81 -189.02)"/><path class="cls-16" d="M435.18,482.91l-6,9.86-4,4.81-2.43,6-9.07-1.3V494l1.32-1,4.73,5.18,4.36-8,.21-.39-.22.39c0-1.83-.86-4.43,0-5.37,4.14-4.32,8.77-8.19,13.78-12.73-4.78-4.34-3.68-11.77-9.82-15.78-3.38-2.2-5.36-6.53-8-9.87-.76,1.19-2.29,3.62-3.83,6.05l-1.5-1c.49-1.39,1-2.78,1.56-4.39-2.74-.8-5.34-1.22-7.6-2.33-1.83-.9-4.64-2.68-4.6-4,.19-6.87-4.51-7.17-9.22-7.77l-.32-.37c3.18-4,7.31-3.32,10.74-1.17,11.3,7.08,22.35,14.57,33.48,21.93,11.9,7.86,12.54,13.89,2.51,24-1.55,1.56-3.26,3-4.9,4.45Zm.44-28.11a5.81,5.81,0,0,0-.78-.55c-.07,0-.42.25-.4.31a6.61,6.61,0,0,0,.46.87Z" transform="translate(-182.81 -189.02)"/><path class="cls-5" d="M445,412.47c-4.48-1.56-10.66,1-13.14-5.44-3.52,3.65-19.37-1.7-21.83-7.13h-8.28l-.21-2.19c4.93-.5,9.85-1.26,14.79-1.4,3.12-.08,6.28.68,9.4,1.23,3.94.7,7.86,1.56,11.77,2.41.77.17,1.81,1.14,2.15.9,6.25-4.35,10.68,1.17,15.83,2.76a9.17,9.17,0,0,0,2.41.08Z" transform="translate(-182.81 -189.02)"/><path class="cls-16" d="M445,412.47l12.89-8.78q2.67-4.33,5.33-8.66l1-1.09,3.55-7.29h3.79l-.05,0,2.34,1.09,1.39,1.39c-.45,2.62-.89,5.24-1.34,7.87q-3.69,11.15-7.39,22.3Z" transform="translate(-182.81 -189.02)"/><path class="cls-6" d="M413.29,591.47,403,581.59l-1.71-1.76.08.1-1.35-8,6.64,4,20.5,11.47,9.95,5.58,8.8,5.11,6.17,3-5.9,5.84c-3.67-11-16-7.42-20-15.29l-4.61,7.22c-.36-.13-.72-.24-1.09-.34l.08.14-1.32-1.44.2.18L418,596l.24.06Z" transform="translate(-182.81 -189.02)"/><path class="cls-3" d="M535,528l.06-2.47,2.39,3.65c-.32,2.38-.58,4.77-1,7.13-1.37,8.53-3.4,17-4,25.58-.49,6.82-.72,14.3,6.59,18.71q7.26,9,14.5,18.11L551.8,601a52.85,52.85,0,0,1-5.7-3.81c-2.13-1.84-4-4-5.92-6-1.49-1.55-2.74-3.51-4.52-4.59a19.18,19.18,0,0,1-8.73-19.06c2.12-12.26,3.92-24.57,5.86-36.86Z" transform="translate(-182.81 -189.02)"/><path class="cls-6" d="M486.7,436.74c-4.88,9.1-9.1,18.32-5,29-1.35-1.7-3.49-3.23-3.89-5.12-1.49-7-2.63-13.94,1.91-20.76,1.63-2.45.77-6.55,1.05-9.82l-7.36-.89c1.63-6.46,2.94-11.68,4.25-16.89h0l3.76-3.87,9.52,4.78-1.08,4-2.45,2.31c-1.05-1.34-1.9-3.48-3.19-3.79-1.1-.26-3.81,1.55-3.84,2.51,0,1.75.87,4.47,2.22,5.16,4.28,2.17,5.8,4.48,2.94,8.94C485,433.16,486.27,435.22,486.7,436.74Z" transform="translate(-182.81 -189.02)"/><path class="cls-1" d="M422.73,503.54l2.43-6,6,9.85c.07,8,5.36,14.26,10.24,18.42,4.26,3.63,7,6.37,7.12,11.69C439,529.48,429.11,521.64,427,508c-.23-1.45-2.64-2.56-4-3.82l.08-.39Z" transform="translate(-182.81 -189.02)"/><path class="cls-3" d="M452.08,601.09l-6.17-3,3-3.13c5.05-4.32,9.82-9,15.22-12.85s8.79-8.27,8-15.16l1.75.09c3.66,7.78,2.73,8-4.25,14.08C463,586.86,457.87,594.35,452.08,601.09Z" transform="translate(-182.81 -189.02)"/><path class="cls-6" d="M551.8,601l1.72-2.27a1.31,1.31,0,0,1,.67-.12c3.86,1.44,7.29,1.8,10.72-1.57,2.52-2.46,5.44-2.16,6.75,1.87q-6,7.85-12,15.71L553,611.8l9.08-4.83Z" transform="translate(-182.81 -189.02)"/><path class="cls-5" d="M448.57,537.54c-.16-5.32-2.86-8.06-7.12-11.69-4.88-4.16-10.17-10.46-10.24-18.42,5.87-.28,4.57,6.16,7.91,8.53,2.9,2.06,4.83,5.47,7.25,8.23,1.19,1.37,2.88,2.44,3.69,4,2.46,4.74,4.6,9.64,6.86,14.48l-.13.19-3.47,1L449.65,539v0l-1-1.25Z" transform="translate(-182.81 -189.02)"/><path class="cls-6" d="M466.56,419.26Q470.25,408.1,474,397c.76.08,2.07-.07,2.21.26,1.19,2.91,2.16,5.9,3.21,8.86h-6.29c.33,5.34.7,11.42,1.08,17.5l-1.8.92Z" transform="translate(-182.81 -189.02)"/><path class="cls-5" d="M458.15,543.85a15.73,15.73,0,0,1,2.83,1.86c2.64,2.63,5.16,5.38,7.95,8.32.76,2.29,1.7,5.18,2.65,8.07l-.18.19c-1.25-.85-2.53-1.65-3.73-2.56-2-1.53-4-3.14-6-4.71l.06-.13-1.21-1.25h0L456.91,550h0l1.3-2.49.4.22-.4-.22c-.07-1.17-.14-2.34-.2-3.51Z" transform="translate(-182.81 -189.02)"/><path class="cls-5" d="M420.39,434.19c-7.75-.41-12.78-5.1-17.12-10.88C411.09,423.61,416.44,427.79,420.39,434.19Z" transform="translate(-182.81 -189.02)"/><path class="cls-4" d="M479.37,406.07c-1.05-3-2-5.95-3.21-8.86-.14-.33-1.45-.18-2.21-.26.45-2.62.89-5.24,1.34-7.86.47-2.9.95-5.8,1.42-8.71.28,5.18.31,10.38.91,15.52.93,8,5.74,12.89,13.34,15.18v2.06l-9.52-4.79Z" transform="translate(-182.81 -189.02)"/><path class="cls-17" d="M481,632.68c-4.89-1.25-9.73-2.82-14.68-3.68-5.15-.9-10.13-.42-13,5.06.28-5.08-4-1.61-5.71-3.08,9.94-3.9,19.93-4.38,29.95-.4A22.34,22.34,0,0,1,481,632.68Z" transform="translate(-182.81 -189.02)"/><path class="cls-5" d="M439.83,446.41c-3.06-1.54-9.45,1.2-7.93-6.2l-1.62.09,1.69-3.39c1,.65,2.18,1.09,2.83,2C436.6,441.29,438.17,443.88,439.83,446.41Z" transform="translate(-182.81 -189.02)"/><path class="cls-5" d="M448.34,454.93c-3-1.73-6.12-3.37-9-5.32-.39-.26.28-2.09.45-3.18C445.47,446.43,446.79,450.8,448.34,454.93Z" transform="translate(-182.81 -189.02)"/><path class="cls-5" d="M473.88,567l-1.75-.09a.91.91,0,0,1-.48-.75l-.26-3.88.19-.19Z" transform="translate(-182.81 -189.02)"/><path class="cls-17" d="M420.46,598.52c.37.1.73.21,1.09.34l2.69,4.61Z" transform="translate(-182.81 -189.02)"/><path class="cls-5" d="M449.5,458.62,448.33,455Z" transform="translate(-182.81 -189.02)"/><path class="cls-6" d="M520.68,593.74,522,595a4.63,4.63,0,0,1-1.24.88c-.23.08-.93-.43-.9-.54A8.19,8.19,0,0,1,520.68,593.74Z" transform="translate(-182.81 -189.02)"/><path class="cls-6" d="M477.68,412.23l-1.91-1.63,1.2-1,.71,2.58Z" transform="translate(-182.81 -189.02)"/><path class="cls-17" d="M426.57,607.1l-2.44-3.74Z" transform="translate(-182.81 -189.02)"/><path class="cls-5" d="M456.92,542.66l1.23,1.19L458,544l-1.19-1.12Z" transform="translate(-182.81 -189.02)"/><path class="cls-17" d="M492.57,662.7l-3.11-4.05c6.58-.56,12.12-.85,17.6-1.59,2.15-.29,4.18-1.57,6.26-2.4,2.8-.74,4.87-2.26,8.37.48,2.47,1.93,7.94,0,12.06-.14l-1.06,2.11a79.3,79.3,0,0,0-9.52,1.52c-1.9.52-3.53,2-5.28,3.13,1.33,1.91,2.26,4.72,4.08,5.55A51.2,51.2,0,0,0,534.62,671c15.28,2.52,30.59,4.83,45.92,7,5.91.85,11.9,1.19,17.86,1.76-2.62,1.33-5.11,3.2-7.88,3.88-12.63,3.09-25.33,5.86-38,8.71-14.57,3.26-29.16,6.39-43.69,9.83-2,.47-3.59,2.44-5.37,3.71l-13.66,1.17,13.6-5.92-.07-.08,2.75-1.16c23.69-4.35,47.32-8.95,69.83-18.14-4.86-1.41-9.67-1.4-14.27-2.37-15.63-3.29-31.19-6.89-46.74-10.52-.72-.17-1.09-1.83-1.62-2.8l5,.85c-2-2.43-3.1-3.8-4.22-5.18a13.76,13.76,0,0,0-3.69-.58c-5.17.58-10.32,1.34-15.47,2Zm86.93,18c0,.63.11,1.25.17,1.88l4.3-.85-.23-1.36Z" transform="translate(-182.81 -189.02)"/><path class="cls-5" d="M571.66,598.89c-1.31-4-4.23-4.33-6.75-1.87-3.43,3.37-6.86,3-10.72,1.57l7.1-7q6.53-3.52,13-7.06l4.78-2.59L590,575.8l3.57-2.52,3.18-.57L593,578.9v-.23l-5.85,5.25.07-.06-4,3.39.2,0L582,588.61l0-.19-2.76,2.94Z" transform="translate(-182.81 -189.02)"/><path class="cls-18" d="M539,580.6c-7.31-4.41-7.08-11.89-6.59-18.71.6-8.57,2.63-17,4-25.58.39-2.36.65-4.75,1-7.13q1.74-15.2,3.49-30.4c.14-1.51.29-3,.43-4.54q2.65-14.08,5.29-28.17c0-.08-.31-.22-.47-.34l5.84-6.15,7.34-4.54c-2.71,3.46-5.64,6.78-8.06,10.43-2,3-4.34,6.25-4.86,9.64-2.13,14-3.62,28.08-5.35,42.12a1.13,1.13,0,0,0-.07.7c-2.09,12.77-4,25.57-6.34,38.29C533,565,533.84,573.14,539,580.6Z" transform="translate(-182.81 -189.02)"/><path class="cls-17" d="M593,578.9c1.26-2.06,2.51-4.13,3.77-6.18-.08-.71-.15-1.41-.23-2.12-.29-1.21-.58-2.41-.88-3.62q-4.23-30.22-8.48-60.44l-1.47.22q-2,4.68-4.07,9.34l-.35-.26,4.23-14.34L588,502q5.68,38.7,11.35,77.34Z" transform="translate(-182.81 -189.02)"/><path class="cls-17" d="M561.71,589c-9.19-5.52-10.37-9.14-6.16-18.52,2-4.41,3.68-9,5.87-13.27.91-1.8,2.74-3.12,4.15-4.66l.49.43c-3.15,6.49-6.45,12.91-9.42,19.48-2.45,5.44-1.6,10.17,4,13.31l1.86,2.41Z" transform="translate(-182.81 -189.02)"/><path class="cls-17" d="M570.41,643.78l-23.36,9.46c2.49-1.41,4.85-3.16,7.5-4.16C559.75,647.09,565.11,645.52,570.41,643.78Z" transform="translate(-182.81 -189.02)"/><path class="cls-17" d="M559.33,513.37l10.42-7.66,1.43,2.65-11.87,5Z" transform="translate(-182.81 -189.02)"/><path class="cls-17" d="M573.89,532.82q3.06-7.3,6.13-14.61l.54.45q-3.07,7.29-6.13,14.59Z" transform="translate(-182.81 -189.02)"/><path class="cls-18" d="M574.33,584.53l-13,7.05.63-1.43,1.35-1.24,10.38-5.23C573.88,584,574.11,584.24,574.33,584.53Z" transform="translate(-182.81 -189.02)"/><path class="cls-17" d="M541,517.93a1.13,1.13,0,0,1,.07-.7l10.8-1.37c0,.69.07,1.38.11,2.07Z" transform="translate(-182.81 -189.02)"/><path class="cls-6" d="M532.69,657.11l1.06-2.11h3.63l2.44,4.28Z" transform="translate(-182.81 -189.02)"/><path class="cls-17" d="M587.17,583.92l5.85-5.25Z" transform="translate(-182.81 -189.02)"/><path class="cls-17" d="M571.46,538.92l2.43-6.1.54.43c-.81,2-1.61,4.07-2.41,6.1Z" transform="translate(-182.81 -189.02)"/><path class="cls-17" d="M565.57,552.5q1.13-2.54,2.26-5l.65.54-2.42,4.94Z" transform="translate(-182.81 -189.02)"/><path class="cls-17" d="M583.23,587.25l4-3.39Z" transform="translate(-182.81 -189.02)"/><path class="cls-17" d="M559.31,513.35l-3.17,2.58-.81-1.53,4-1Z" transform="translate(-182.81 -189.02)"/><path class="cls-17" d="M567.83,547.45c.8-1.63,1.6-3.27,2.41-4.9l.3.25L568.48,548Z" transform="translate(-182.81 -189.02)"/><path class="cls-17" d="M579.24,591.36l2.76-2.94Z" transform="translate(-182.81 -189.02)"/><path class="cls-17" d="M570.24,542.55l1.22-3.63.56.43c-.5,1.15-1,2.3-1.48,3.45Z" transform="translate(-182.81 -189.02)"/><path class="cls-17" d="M580,518.21c.42-.79.85-1.58,1.28-2.37l.35.26c-.37.85-.73,1.71-1.09,2.56Z" transform="translate(-182.81 -189.02)"/><path class="cls-17" d="M632.63,585.24c-.43,1-.85,1.92-1.27,2.87C631.78,587.15,632.2,586.2,632.63,585.24Z" transform="translate(-182.81 -189.02)"/><path class="cls-17" d="M571.05,642.6l-.78,1.24Z" transform="translate(-182.81 -189.02)"/><path class="cls-17" d="M582,588.61l1.46-1.41Z" transform="translate(-182.81 -189.02)"/><path class="cls-17" d="M563.27,588.91l-1.35,1.24-.21-1.2.81-.82A1.26,1.26,0,0,1,563.27,588.91Z" transform="translate(-182.81 -189.02)"/><path class="cls-3" d="M516.69,536.52c-1.81-3.09-3.79-6.11-5.42-9.31-3.48-6.84-4.54-13.8.11-20.6,3.28-4.81,6.73-9.5,10.1-14.24-1.42,6.95-2,14.22-4.51,20.75-2.63,6.84-3.72,13-.08,19.58C517.41,533.65,516.79,535.23,516.69,536.52Z" transform="translate(-182.81 -189.02)"/><path class="cls-3" d="M525.63,474.51c-2.31-6-4.86-11.92-6.88-18-2.08-6.25-.21-8.32,6.28-8.83,4.56-.35,9.06-1.5,13.59-2.29-.76,1.42-1.17,3.32-2.35,4.16-3.65,2.63-7.76,4.65-11.3,7.4-.84.64-.26,3.22-.17,4.91C525,466.06,525.35,470.29,525.63,474.51Z" transform="translate(-182.81 -189.02)"/><path class="cls-5" d="M540.89,498.78q-1.74,15.21-3.49,30.4L535,525.53c-.09-4.85-.56-9.73-.14-14.53.3-3.45,1.6-6.87,2.85-10.16C538.08,499.89,539.8,499.46,540.89,498.78Z" transform="translate(-182.81 -189.02)"/><path class="cls-3" d="M546.14,465.73c.16.12.48.26.47.34q-2.62,14.08-5.29,28.17c.67-8.29,1.23-16.59,2.11-24.85C543.57,468.09,545.2,467,546.14,465.73Z" transform="translate(-182.81 -189.02)"/><path class="cls-4" d="M573.94,406.06l-.28-.29.1-.39c4.93-2,9.83-4.14,14.81-6.05,3.16-1.21,6.43-2.13,9.65-3.18l.56,1.62Z" transform="translate(-182.81 -189.02)"/><path class="cls-5" d="M535,528l-2.16,2.61Z" transform="translate(-182.81 -189.02)"/><path class="cls-20" d="M503.39,701.16l-13.61,5.92-6.95,2.56c-4,.07-8.08-.48-11.82.45-2.15.53-3.7,3.46-5.52,5.31a1.82,1.82,0,0,1-1,.31c-1.61,0-3.31-.27-4.83.14-12.13,3.25-24.16,6.87-36.34,9.9S398.81,731,386.65,734c-7.5,1.82-14.83,4.31-22.24,6.51-15.19,3.48-29.8,3.41-42.69-7L320,731.7l.32.17-2.29-1.67.05,0c-.92-1.2-1.83-2.4-2.75-3.59l0,.17a48,48,0,0,0-1.91-6.79c-4.74-10.7-3.58-20.65,3.39-30,4.27-2.47,8.45-5.12,12.85-7.35a98.21,98.21,0,0,1,11.12-4.61,9.51,9.51,0,0,1,4-.21c6.76.63,14-1.91,19.95,3.86,3.79,3.69,8.22,2.85,12.1-.17,2.89-2.25,5.47-4.9,8.19-7.37h0c2.71,4.44-2.68,7.09-2.44,11l-12.08,5.08-12.06,3.25c1.8,5.69,1,11.39,7.32,13a15.89,15.89,0,0,1-.65,4.14c-1,3.35-2.24,6.63-3.9,11.44,7-1,12.64-1.45,18-2.78,3.39-.84,6.3-3.82,9.68-4.46,4.15-.78,7.58-1.41,10.12-5.43,1.14-1.79,5-3.57,6.76-2.94,8.74,3.15,10.82-5.54,16.41-7.58-8.36-.34-16.43-.51-24.5-.28-6.09.18-13.19-4.63-14-10l11.21-3.66L392,688.22l.77,1.61,8.9-2.72c.19,2.24-.23,5.81.67,6.17,2.5,1,5.55.86,8.38.92s5.84-.64,8.61-.15c3.74.66,7.27,2.43,11,3.2,4.37.91,3.77,3,1.87,6.87-6.3-6.48-9.17-1.35-13.73,4.09H444c1.87-5.08,7-5,11.69-4.67,10.24.71,18.87-3.58,28.08-7.95.19,1.32.39,2.66.59,4l7,.77c.2-1.9.36-3.51.57-5.55a17.85,17.85,0,0,1,3.46,1.11C498.11,697.6,500.73,699.41,503.39,701.16Zm-51.3,8.38-6.77,3.66,1.78,2.09q2.5-2.87,5-5.75c.44-.14.88-.28,0,0C452.83,709,452.46,709.27,452.09,709.54Zm-29.4,4.82c6.76,4.29,9.65,3.21,10.94-3.27Zm40.83-5.84-.46.3a4.12,4.12,0,0,0,.78.5c.1,0,.3-.18.46-.28Z" transform="translate(-182.81 -189.02)"/><path class="cls-17" d="M364.41,740.51c7.41-2.2,14.74-4.69,22.24-6.51,12.16-3,24.49-5.23,36.63-8.25s24.21-6.65,36.34-9.9c1.52-.41,3.22-.11,4.83-.14-2.16,1.18-4.21,2.73-6.51,3.46-8,2.54-16.11,4.8-24.18,7.17l-1.77.36L412.94,731Z" transform="translate(-182.81 -189.02)"/><path class="cls-17" d="M315.36,726.66c.92,1.19,1.83,2.39,2.75,3.59C317.19,729.05,316.28,727.85,315.36,726.66Z" transform="translate(-182.81 -189.02)"/><path class="cls-17" d="M318.06,730.2l2.29,1.67Z" transform="translate(-182.81 -189.02)"/><path class="cls-17" d="M320,731.7l1.69,1.76Z" transform="translate(-182.81 -189.02)"/><path class="cls-16" d="M382.64,685.2c-.24-3.9,5.15-6.55,2.44-11l9.32-5.53c-6.33-2.13-8.54-.5-9.33,5.52-2.72,2.47-5.3,5.12-8.19,7.37-3.88,3-8.31,3.86-12.1.17-5.93-5.77-13.19-3.23-19.95-3.86a9.51,9.51,0,0,0-4,.21,98.21,98.21,0,0,0-11.12,4.61c-4.4,2.23-8.58,4.88-12.85,7.35,3.73-4.92,7.39-9.89,11.21-14.74a58.83,58.83,0,0,1,4.62-4.73l7.41-4.77c1.2-.14,2.57.06,3.55-.47,10.21-5.47,20.36-11.05,30.53-16.61l8.48-3.72,14.75-5h-.16l6.54,3.77,2.78,1.19,28,16.54.68,2.23c-4.85.13-9,2.93-14.66,1.42s-12.56-4.82-18.45.66c-.41.38-1.14.39-1.68.66-1.5.79-3,1.62-4.46,2.44l3.31,5-5.18.59c-.56.36-1.12.72-1.67,1.09l.06,0-2.76,7.06,1.7,1Z" transform="translate(-182.81 -189.02)"/><path class="cls-3" d="M434.55,661.48l-28-16.54,2.73.18,2.5,2,.51-.78-2.75-1.5c-1-1.1-1.93-2.21-2.9-3.32l.76-1.58c13.16,13.54,28.95,18.21,47,15.29l2.29,2.43C449.44,659.61,442.69,664.56,434.55,661.48Z" transform="translate(-182.81 -189.02)"/><path class="cls-17" d="M381.26,613.35q3.74,3.28,7.45,6.59Q385,616.64,381.26,613.35Z" transform="translate(-182.81 -189.02)"/><path class="cls-5" d="M355.75,571.76l2.47,3.42-1.69.74c-.26-1.38-.52-2.77-.77-4.15Z" transform="translate(-182.81 -189.02)"/><path class="cls-17" d="M403.8,643.75,397.26,640Z" transform="translate(-182.81 -189.02)"/><path class="cls-17" d="M378.17,609.6l3.18,3.83Z" transform="translate(-182.81 -189.02)"/><path class="cls-17" d="M361.42,580.5l1.59,5Z" transform="translate(-182.81 -189.02)"/><path class="cls-17" d="M391.06,621.85l2.37,1.81Z" transform="translate(-182.81 -189.02)"/><path class="cls-17" d="M362.87,585.29c.45.87.91,1.74,1.37,2.61C363.78,587,363.32,586.16,362.87,585.29Z" transform="translate(-182.81 -189.02)"/><path class="cls-17" d="M365.44,590.11c.41.94.83,1.87,1.24,2.81C366.27,592,365.85,591.05,365.44,590.11Z" transform="translate(-182.81 -189.02)"/><path class="cls-17" d="M364.11,587.71l1.4,2.56Z" transform="translate(-182.81 -189.02)"/><path class="cls-17" d="M389.42,620.59l1.75,1.33Z" transform="translate(-182.81 -189.02)"/><path class="cls-16" d="M378.14,446.59l4.77-7.25,11.68-6.67.32.37-6.71,10c-2.76,1.43-5.37,2.87-8.07,4.12C379.65,447.39,378.81,446.8,378.14,446.59Z" transform="translate(-182.81 -189.02)"/><path class="cls-19" d="M435.18,482.91l1.24-1Z" transform="translate(-182.81 -189.02)"/><path class="cls-5" d="M422.83,436.67l-.27.41c.07-.16.14-.31.2-.47Z" transform="translate(-182.81 -189.02)"/><path class="cls-18" d="M532.69,657.11l7.13,2.16,6.16,1.57,27.76,3.86c2.49,2.8,4.37,2.7,5.47-1.14L589.69,662c1.82.74,3.59,1.95,5.47,2.15,5.23.56,6.88,2.79,3.92,7.33l7.43,5.24-8.11,3.11c-6-.57-11.95-.91-17.86-1.76-15.33-2.2-30.64-4.51-45.92-7A51.2,51.2,0,0,1,522,667.31c-1.82-.83-2.75-3.64-4.08-5.55,1.75-1.08,3.38-2.61,5.28-3.13A79.3,79.3,0,0,1,532.69,657.11Zm65.84,14.06-.61-.92c-.26.24-.76.55-.72.71a3.83,3.83,0,0,0,.73,1.1Z" transform="translate(-182.81 -189.02)"/><path class="cls-17" d="M589.68,661.94l-10.47,1.62-.39-.32c.07-.76.13-1.53.19-2.29l.73-1.4-.4-.22c-.24.43-.48.86-.73,1.28-2.13.59-5.55-.39-4.67,3.85l-.2.24L546,660.84a7.65,7.65,0,0,1,2.32-.31c12.15,2.31,24,2.63,34.38-5.59l0,0C579.4,663,586.38,660.6,589.68,661.94Z" transform="translate(-182.81 -189.02)"/><path class="cls-17" d="M582.68,654.94l3.57-2.51.08.08L582.72,655Z" transform="translate(-182.81 -189.02)"/><path class="cls-19" d="M582.72,655l3.61-2.47c4.72-3.19,9.78-6,14-9.7,3-2.6,5.12-3.55,9-1.86,13.81,6.07,28.14,11,41.58,17.82,8.58,4.32,15.93,11.1,23.86,16.73,2.44,1.73,5,3.3,7.51,5l1.22,1.14c1.62,3.63,3.14,7.31,4.87,10.88,4.3,8.89,2.86,17.54-.7,26.21a34.5,34.5,0,0,0-1.32,5.7l-.05-.07-3.37,4-.15.07-8.9,4.48.08-.09c-10.57.41-21.2,1.58-31.72,1-11.37-.61-22.64-2.83-34-4.38-3.68-.5-7.35-1.08-11-1.63-4.24-.81-8.47-1.63-12.72-2.42-1.9-.35-3.81-.61-5.72-.92l-1.21,0q-.57-.23-1.14-.39l-1.38-.62-3.6-.58-5.15-2,.31,0a43,43,0,0,0-6-2.56c-9.35-2.49-18.7-5-28.13-7.13-7.14-1.62-14.41-2.71-21.63-4l-7.45-1.13c1.78-1.27,3.4-3.24,5.37-3.71,14.53-3.44,29.12-6.57,43.69-9.83,12.69-2.85,25.39-5.62,38-8.71,2.77-.68,5.26-2.55,7.88-3.88l8.11-3.11-7.43-5.24c3-4.54,1.31-6.77-3.92-7.33-1.88-.2-3.65-1.41-5.47-2.15C586.38,660.6,579.4,663,582.72,655Z" transform="translate(-182.81 -189.02)"/><path class="cls-19" d="M378.14,446.59c.67.21,1.51.8,2,.59,2.7-1.25,5.31-2.69,8.07-4.12l6.71-10c4.71.6,9.41.9,9.22,7.77,0,1.32,2.77,3.1,4.6,4,2.26,1.11,4.86,1.53,7.6,2.33-.57,1.61-1.07,3-1.56,4.39l1.5,1c1.54-2.43,3.07-4.86,3.83-6.05,2.6,3.34,4.58,7.67,8,9.87,6.14,4,5,11.44,9.82,15.78-5,4.54-9.64,8.41-13.78,12.73-.9.94-.07,3.54,0,5.37h0l-4.36,8L415,493l-1.32,1v8.22l9.07,1.3.31.25-.07.39v8.42l-1.67.42c-2.69-4.1-4-10.24-10.91-8.11l-3.23-3.43-1.4.81c.44,2,.89,4.06,1.33,6.08q-2.59,19.54-5.18,39.08l-3.5,20.74c-2.92-.47-5.83-1.28-8.75-1.28A13.15,13.15,0,0,0,384,568.8c-1.14.59-2.26,2.86-2.81,2.67-6.31-2.14-10.23,3-15.14,5-3.52-10.26-3.52-10.26,1.48-14.36l-3.42-6.22c5.62-.18,5.62-.18,7.1,13.67.95-1.44,3-3.16,2.68-4.27-1.24-4.66-3.18-9.13-4.87-13.67-.72-2-1.55-3.86-2.2-5.83-.9-2.73-1.65-5.51-2.51-8.25-.23-.74-1.08-1.91-.89-2.08,5.22-4.82-.2-9.38-.21-14,0-2.19,1-4.42.74-6.55-.25-2.57-1.29-5.05-2-7.57,1.45-12,2.92-24,4.34-36,.31-2.61.41-5.24.61-7.86q3.66-6.56,7.34-13.11Z" transform="translate(-182.81 -189.02)"/><path class="cls-19" d="M361.75,542.52c4.07,2.77,2.29,4.59-1,6.18Z" transform="translate(-182.81 -189.02)"/><path class="cls-6" d="M565.14,810.52l-3,3-3.3,4L555.1,820l-1-1.17c.22-.59.43-1.19.65-1.79Z" transform="translate(-182.81 -189.02)"/><path class="cls-6" d="M550.79,821.64l3.28-2.85,1,1.17-4.34,1.66Z" transform="translate(-182.81 -189.02)"/><path class="cls-6" d="M550.76,821.62l-.16.8.19-.78Z" transform="translate(-182.81 -189.02)"/><path class="cls-4" d="M416.84,777.71l1.05,3.69Z" transform="translate(-182.81 -189.02)"/><path class="cls-2" d="M731.12,697.36c.36.68.71,1.36,1.06,2l-.76.25-.29-2.31Z" transform="translate(-182.81 -189.02)"/><path class="cls-2" d="M714,709.46a4.36,4.36,0,0,1-.34-.81c0-.07.24-.2.37-.31Z" transform="translate(-182.81 -189.02)"/><path class="cls-2" d="M714.06,707.13l1.23-1.25Z" transform="translate(-182.81 -189.02)"/><path class="cls-17" d="M510.89,707c7.22,1.32,14.49,2.41,21.63,4,9.43,2.14,18.78,4.64,28.13,7.13a43,43,0,0,1,6,2.56Z" transform="translate(-182.81 -189.02)"/><path class="cls-16" d="M465.49,715.4c1.82-1.85,3.37-4.78,5.52-5.31,3.74-.93,7.86-.38,11.82-.45-3,1.28-5.87,2.76-8.93,3.79A84.24,84.24,0,0,1,465.49,715.4Z" transform="translate(-182.81 -189.02)"/><path class="cls-6" d="M571.48,722.78l3.6.58c-.08.49-.16,1-.23,1.49l1.61-.87q.57.16,1.14.39c-5.58,6.73-9.88.24-14.64-1.41l0,0,4.87-1Z" transform="translate(-182.81 -189.02)"/><path class="cls-6" d="M432,730.36q-1.94,1.57-3.85,3.17a13.14,13.14,0,0,1-1.33-2.16,48,48,0,0,1,4.11-3Z" transform="translate(-182.81 -189.02)"/><path class="cls-6" d="M615.3,748H609c0-.36,0-.71,0-1.07h6.28Z" transform="translate(-182.81 -189.02)"/><path class="cls-6" d="M606.45,743l2.95-.29.3,1.28-3.12.54Z" transform="translate(-182.81 -189.02)"/><path class="cls-6" d="M601,746.89l4.48.52c0,.31,0,.63-.05.94h-4.65C600.82,747.86,600.9,747.37,601,746.89Z" transform="translate(-182.81 -189.02)"/><path class="cls-17" d="M571.48,722.78l-3.63-.86-1.52-1.19Z" transform="translate(-182.81 -189.02)"/><path class="cls-6" d="M432,726.7l1.77-.36L431.37,729C431.58,728.25,431.79,727.48,432,726.7Z" transform="translate(-182.81 -189.02)"/><path class="cls-6" d="M563,723l-2.33-.33.27-.79,2.08,1.09Z" transform="translate(-182.81 -189.02)"/><path class="cls-6" d="M611.71,736.34h0c.74.54.37.27,0,0Z" transform="translate(-182.81 -189.02)"/><path class="cls-17" d="M597.25,727.75c3.67.55,7.34,1.13,11,1.63,11.32,1.55,22.59,3.77,34,4.38,10.52.57,21.15-.6,31.72-1-6.63,4.72-14.43,4.41-21.66,3.51C633.87,734,615.59,730.66,597.25,727.75Z" transform="translate(-182.81 -189.02)"/><path class="cls-17" d="M673.87,732.84l8.9-4.48Z" transform="translate(-182.81 -189.02)"/><path class="cls-17" d="M682.92,728.29l3.37-4Q684.6,726.29,682.92,728.29Z" transform="translate(-182.81 -189.02)"/><polygon class="cls-15" points="452.97 558.86 453.46 558.69 453.4 559.14 452.97 558.86"/><path class="cls-2" d="M282.74,730.28l.19-.4c-.08.12-.16.24-.23.36Z" transform="translate(-182.81 -189.02)"/><path class="cls-3" d="M486.7,436.74c-.43-1.52-1.71-3.58-1.14-4.46,2.86-4.46,1.34-6.77-2.94-8.94-1.35-.69-2.27-3.41-2.22-5.16,0-1,2.74-2.77,3.84-2.51,1.29.31,2.14,2.45,3.19,3.79l12.21,11Z" transform="translate(-182.81 -189.02)"/><path class="cls-4" d="M499.64,430.48l-12.21-11,2.45-2.31c.38.79.77,1.59,1.16,2.38,2.75,2.68,5,6.68,8.33,7.78,7.47,2.51,15.3,5.36,23.42,2-2.73,1-5.45,2.9-8.18,2.91C509.62,432.2,504.63,431.11,499.64,430.48Z" transform="translate(-182.81 -189.02)"/><path class="cls-4" d="M522.76,429.31l1-1.6Z" transform="translate(-182.81 -189.02)"/><path class="cls-19" d="M476.71,380.38c-.47,2.91-.95,5.81-1.42,8.71l-1.39-1.39-2.34-1.09.05,0-7.27-5-2.44-2.44L460.72,378l-2.46-3.65L457,372l-1.14-1.27Q454,351.93,452,333.14c0-.48,0-1,0-1.44.75-7,1.17-14.09,2.36-21,1.11-6.48,5.75-10,12-11.44A40.06,40.06,0,0,1,493.46,302c1.23.58,3.25.94,4.25.33,9.13-5.57,18.62-7.66,29-4a3.17,3.17,0,0,0,2.51-.55c-9.58-3.72-19-6.2-28.66.24a9.24,9.24,0,0,1-7.38.66c-10.31-4-20.71-3.2-30.83-.38-9.26,2.59-10.83,11.2-12.21,19.33-.47,2.75-.47,5.59-.72,8.86l-10.51-2.74c-2.93-12.2-1.78-23.25,6.35-33.23,7.28-8.93,16.43-14.43,27.65-15.84,8.8-1.11,17.76-1,26.64-1.49,3.15-.19,6.28-.76,9.42-1.15l-.13-1.51c-8.12.5-16.24,1.14-24.37,1.42-3.84.14-9.25,1.76-10.42-3.43-.94-4.15-.92-10.1,1.42-13.12,8.17-10.53,17.71-17.49,32.13-8.5a16.7,16.7,0,0,1,7.12,19.72,33.46,33.46,0,0,0-1,3.51,3.61,3.61,0,0,0,.15,1.21c11.36,2.29,20.86,8.25,29,16.07,9.72,9.34,11.42,21.52,8.82,34-.53,2.52-5.72,4.08-9.28,6.41-2.18-10.25-4-18.82-5.83-27.4l-2.16.5c1.08,4.22,2.92,8.42,3.11,12.68.5,11.49.68,23,.25,34.52-.34,8.83-1.8,17.61-2.76,26.41l0-.1-3.71,0-3.72.1-.07-.06c-3.19-4.55-6.38-8.22-13.17-6.51-3.77.95-8.13-.45-12.23-.8l-.19-.11-2.25.11-.1,0L496,368.3l-1.22.12c-4.86,1.1-5,1.36-3.45,4.83.34.79.68,1.58,1,2.37-1.37,0-2.94.37-4.09-.15C482.47,372.84,479,375.17,476.71,380.38Zm9.76-23.85-1.34.63c1,1.55,1.64,4.1,2.93,4.45,3.44.95,7.34,1.82,10.68,1.06,3.1-.7,7.34-1.42,6.1-7.52s-.27-12.54-.27-18.84c-3.66.12-4.09.79-3.67,5.34.45,4.81,1.15,9.66.9,14.44-.08,1.52-3.07,4.26-4.37,4.07C493.68,359.6,490.11,357.83,486.47,356.53ZM505.91,340c.12.79.25,1.58.37,2.38,4.84,3.59,9.62,2.42,14.23-.68a3.83,3.83,0,0,0,1.32-3c-.05-.72-1.47-2-2.05-1.91C515.13,337.69,510.52,338.87,505.91,340Zm-13.22,24.92c0,.31,0,.63,0,.94l2.86-.36-.07-.58Z" transform="translate(-182.81 -189.02)"/><path class="cls-3" d="M545.85,380.68l2.53,2.26-18.5-6a.46.46,0,0,1,.2-.59l5-1.88,0,.1,4.89-10.3,2.55,15.14Z" transform="translate(-182.81 -189.02)"/><path class="cls-16" d="M502.14,367.2c4.1.35,8.46,1.75,12.23.8,6.79-1.71,10,2,13.17,6.51-5.15-1.74-10.24-3.71-15.48-5.14-3.19-.87-6.51-.89-7.73,3.52-.12.4-2.47.19-3.78.27a3.49,3.49,0,0,0,.29-1c.07-.71.13-1.43.2-2.15C501.41,369.11,501.77,368.16,502.14,367.2Z" transform="translate(-182.81 -189.02)"/><path class="cls-4" d="M526.88,378.74c-.48,6.42-.9,12.23-1.33,18l-2.12-.31C525,390.83,516.7,383.73,526.88,378.74Z" transform="translate(-182.81 -189.02)"/><path class="cls-3" d="M491,419.53c-.39-.79-.78-1.59-1.16-2.38l1.08-4v-2.05l7,4.17Z" transform="translate(-182.81 -189.02)"/><path class="cls-18" d="M500.84,372.21a3.49,3.49,0,0,1-.29,1l-4.2,2.47L497,377l-4.63-1.37c-.33-.79-.67-1.58-1-2.37Z" transform="translate(-182.81 -189.02)"/><path class="cls-16" d="M527.61,374.57l3.72-.1c-.41.64-.83,1.28-1.25,1.92a.46.46,0,0,0-.2.59Z" transform="translate(-182.81 -189.02)"/><path class="cls-16" d="M452.05,331.7c0,.48,0,1,0,1.44-1.39-.13-2.8-.21-4.18-.41-5.9-.89-8.56,1.11-9.16,6.93l-.48,4.61-2.12.1c0-4.93-.5-9.94.18-14.78.45-3.22,5.6-3.68,9.05-1.45C447.45,329.51,449.8,330.53,452.05,331.7Z" transform="translate(-182.81 -189.02)"/><path class="cls-19" d="M552.49,342.34c-1.37-9.22-2.07-9.74-12.1-7.9.94-2.39,1.34-5.54,2.43-5.8,2.93-.7,8.31-1.16,8.87.05,1.83,4,1.95,8.75,2.73,13.21Z" transform="translate(-182.81 -189.02)"/><path class="cls-16" d="M446,352.28c-6.78.94-5-4.71-5.69-7.95-.43-1.88.81-4.12,1.16-5.62,1.43,4.05,3,8.38,4.51,12.72C446,351.71,446,352,446,352.28Z" transform="translate(-182.81 -189.02)"/><path class="cls-19" d="M540.92,343.1c.08-1.74-.51-4.1.4-5.07,1.36-1.47,3.76-2,5.73-2.88l.78,1.3-5.06,6.82Z" transform="translate(-182.81 -189.02)"/><path class="cls-19" d="M446,352.28c0-.29,0-.57,0-.85l7-1.14-3.32,4.65,0,0Z" transform="translate(-182.81 -189.02)"/><path class="cls-19" d="M447.92,341.12c.09,1.5.18,3,.28,4.5l-1.63.14c-.11-1.5-.21-3-.32-4.51Z" transform="translate(-182.81 -189.02)"/><path class="cls-19" d="M449.64,354.94l-3.56,2.25-.55-1.59,4.14-.63Z" transform="translate(-182.81 -189.02)"/><path class="cls-17" d="M457,644.9c4.51,1.61,8.91,4,13.55,4.67,10.79,1.62,13.9-.24,22-10.84,2.13,4,2.13,4-3.91,11.12l-1-1.6-1.29,2.83h0c-8.21.6-16.59,3.07-24.38-1.64C460,648.32,458.59,646.44,457,644.9Z" transform="translate(-182.81 -189.02)"/><path class="cls-17" d="M398.41,568.19q1.75-10.37,3.5-20.74L401.07,566c-.22,1.1-.43,2.2-.65,3.3l-.4,2.64,1.35,8c-1.2-1.75-2.95-3.37-3.43-5.31S398.2,570.35,398.41,568.19Z" transform="translate(-182.81 -189.02)"/><path class="cls-19" d="M394.06,575.3l1.53,8C389.09,579.75,389,579.39,394.06,575.3Z" transform="translate(-182.81 -189.02)"/><path class="cls-17" d="M413.29,591.47l5,4.56Z" transform="translate(-182.81 -189.02)"/><path class="cls-17" d="M454.56,642.45,457,645Z" transform="translate(-182.81 -189.02)"/><path class="cls-17" d="M401.29,579.83l1.71,1.76Z" transform="translate(-182.81 -189.02)"/><path class="cls-17" d="M453.9,641.2l.7,1.29-1.32-.57Z" transform="translate(-182.81 -189.02)"/><path class="cls-17" d="M453.38,634c0,.87-.08,1.74-.13,2.62C453.3,635.73,453.34,634.86,453.38,634Z" transform="translate(-182.81 -189.02)"/><path class="cls-17" d="M419.22,597.22l1.32,1.44Z" transform="translate(-182.81 -189.02)"/><path class="cls-17" d="M418,596l1.38,1.43Z" transform="translate(-182.81 -189.02)"/><path class="cls-17" d="M421.22,677.7c5-.75,10-1.25,14.88-2.29,13.36-2.84,26.71-5.79,40-9,2.21-.53,4-2.72,6.14-3.68,1.49-.65,3.33-.5,5-.71l-1,1.15-26.72,12.28c3,0,7-.15,11,0,4.21.2,8.41,1.09,12.6,1,3.64-.07,8,.29,9.17-4.84,2.44,2.14,4.8,4.55,8.46,2.43-2.45,1.07-4.87,3-7.36,3.08-11.29.47-22.61.45-33.91.6l-14.71-1-2.52,0-3.71.89-15.84.33Z" transform="translate(-182.81 -189.02)"/><path class="cls-17" d="M382.64,685.2l8.8-1.62-1.7-1,2.76-7.06c-.39,1.1-.78,2.21-1.3,3.71l13.28,1.18c0,.36,0,.72,0,1.08l-9.53,3.42-11.2,3.66L365.39,696l-.82-1.47,6-4.21Z" transform="translate(-182.81 -189.02)"/><path class="cls-3" d="M486.29,663.2l1-1.15,5.32.65,2.33.52,9.52,6.32-1.11,2.28-1.6,1.16a4.79,4.79,0,0,0-.49,1l-.4.11c-3.66,2.12-6-.29-8.46-2.43Z" transform="translate(-182.81 -189.02)"/><path class="cls-16" d="M421.22,677.7l1.56.35-9.67,3.46L410.45,680l3.62-1.06,5.15-1Z" transform="translate(-182.81 -189.02)"/><path class="cls-20" d="M410.45,680l2.66,1.54-5.65,5.83c-.81-2.85-1.24-4.33-1.66-5.82l2.6-1.42Z" transform="translate(-182.81 -189.02)"/><path class="cls-16" d="M408.4,680.1l-2.6,1.42h-1.33c0-.36,0-.72,0-1.08Z" transform="translate(-182.81 -189.02)"/><path class="cls-16" d="M486.24,651.08l1.29-2.83,1,1.6Z" transform="translate(-182.81 -189.02)"/><path class="cls-17" d="M419.22,677.93l-5.15,1Z" transform="translate(-182.81 -189.02)"/><path class="cls-17" d="M392.44,675.52c.55-.37,1.11-.73,1.67-1.09Z" transform="translate(-182.81 -189.02)"/><path class="cls-19" d="M435.62,454.8l-.72.63a6.61,6.61,0,0,1-.46-.87c0-.06.33-.35.4-.31A5.81,5.81,0,0,1,435.62,454.8Z" transform="translate(-182.81 -189.02)"/><path class="cls-19" d="M424.06,490.21l.22-.39-.21.39Z" transform="translate(-182.81 -189.02)"/><path class="cls-17" d="M471.56,386.61l2.34,1.09Z" transform="translate(-182.81 -189.02)"/><path class="cls-4" d="M427.16,587.38l-20.5-11.48,1.28-1.38,20,11.69C427.67,586.6,427.41,587,427.16,587.38Z" transform="translate(-182.81 -189.02)"/><path class="cls-4" d="M437.11,593l-9.95-5.58.77-1.16,8.18,2.52c.58,1.14,1.16,2.27,1.75,3.4Z" transform="translate(-182.81 -189.02)"/><path class="cls-4" d="M448.93,594.93l-3,3.13-8.8-5.11.75-.81Z" transform="translate(-182.81 -189.02)"/><path class="cls-4" d="M400,571.94c.13-.88.27-1.76.41-2.64l7.51,5.22-1.28,1.38Z" transform="translate(-182.81 -189.02)"/><path class="cls-16" d="M448.93,594.93l-11.07-2.79-1.75-3.41,3.48-5.74c.24-7.28-.6-14.13-5.08-20.4-3.64-5.12-6.38-10.88-9.52-16.36l-1.48-1.74-.27-.33-2.92-6.44.06.1-1.32-3.72,0,.08c-.4-.85-.81-1.7-1.21-2.56l.06.11L416.5,528l.09.1-3.6-8.66.05.06q-1.34-7.31-2.65-14.62c6.91-2.13,8.22,4,10.91,8.11l1.67-.42v-8.42c1.39,1.26,3.8,2.37,4,3.82,2.11,13.64,12,21.48,21.57,29.54l.05.15,1,1.25v0l6.08,10.27,1.15.73h0l3.64,3.66h0l1.21,1.25-.06.13q5,5.57,9.95,11.15a.91.91,0,0,0,.48.75c.81,6.89-2.55,11.31-8,15.16S454,590.61,448.93,594.93Z" transform="translate(-182.81 -189.02)"/><path class="cls-1" d="M455.73,549.24,449.65,539l3.67,4.84Z" transform="translate(-182.81 -189.02)"/><path class="cls-3" d="M455.73,549.24l-2.41-5.43,3.47-1L458,544c.06,1.17.13,2.34.2,3.51h0l-1.3,2.49Z" transform="translate(-182.81 -189.02)"/><path class="cls-1" d="M449.64,538.94l-1-1.25Z" transform="translate(-182.81 -189.02)"/><path class="cls-3" d="M471.65,566.17q-5-5.58-9.95-11.15c2,1.57,3.95,3.18,6,4.71,1.2.91,2.48,1.71,3.73,2.56C471.48,563.58,471.57,564.87,471.65,566.17Z" transform="translate(-182.81 -189.02)"/><path class="cls-3" d="M460.55,553.64,456.91,550Z" transform="translate(-182.81 -189.02)"/><path class="cls-3" d="M458.18,547.48l.4.22-.4-.22Z" transform="translate(-182.81 -189.02)"/><path class="cls-3" d="M461.76,554.89l-1.21-1.25Z" transform="translate(-182.81 -189.02)"/><path class="cls-19" d="M404.47,681.51h1.33c.42,1.49.85,3,1.66,5.82l5.65-5.83,9.67-3.46,15.83-.32,3.71-.9,2.52,0c1.93.76,3.85,2.09,5.8,2.14,3,.09,5.94-.71,8.91-1.14,11.3-.15,22.62-.13,33.91-.6,2.49-.11,4.91-2,7.36-3.08l.4-.11,2-1.22-.23.09,2.53-1.16,6.51-6.33.6,0a5.1,5.1,0,0,1,.58.74c.53,1,.9,2.63,1.62,2.8,15.55,3.63,31.11,7.23,46.74,10.52,4.6,1,9.41,1,14.27,2.37-22.51,9.19-46.14,13.79-69.84,18.14l-2.74,1.16.07.08c-2.65-1.75-5.27-3.56-8-5.23a17.85,17.85,0,0,0-3.46-1.11c-.21,2-.37,3.65-.57,5.55l-7-.77c-.2-1.35-.4-2.69-.59-4-9.21,4.37-17.84,8.66-28.08,7.95-4.69-.32-9.82-.41-11.69,4.67H418.5c4.56-5.44,7.43-10.57,13.73-4.09,1.9-3.86,2.5-6-1.87-6.87-3.74-.77-7.27-2.54-11-3.2-2.77-.49-5.73.21-8.61.15s-5.88.11-8.38-.92c-.9-.36-.48-3.93-.67-6.17l-8.9,2.72-.77-1.61,2.92-3.29Z" transform="translate(-182.81 -189.02)"/><path class="cls-21" d="M512.09,665.38l-6.52,6.33-2.19.18-.07-.07,1.11-2.28-9.52-6.32c5.15-.7,10.3-1.46,15.47-2a13.39,13.39,0,0,1,3.69.59c-.44,1-.88,1.91-1.31,2.87C512.27,664.64,512.05,664.89,512.09,665.38Z" transform="translate(-182.81 -189.02)"/><path class="cls-19" d="M512.75,664.64c.43-1,.87-1.92,1.31-2.87l4.22,5.17-5-.85a5.83,5.83,0,0,0-.57-.74A2.12,2.12,0,0,0,512.75,664.64Z" transform="translate(-182.81 -189.02)"/><path class="cls-19" d="M579.5,680.75l4.24-.33.23,1.36-4.3.85C579.61,682,579.55,681.38,579.5,680.75Z" transform="translate(-182.81 -189.02)"/><path class="cls-20" d="M503.31,701.08l2.74-1.16Z" transform="translate(-182.81 -189.02)"/><path class="cls-18" d="M590,575.8l-10.92,6.13c-.32-.37-.64-.75-1-1.13l11.09-5.92Z" transform="translate(-182.81 -189.02)"/><path class="cls-18" d="M579.11,581.93l-4.78,2.59-.68-.84,4.51-2.88Z" transform="translate(-182.81 -189.02)"/><path class="cls-18" d="M593.61,573.28,590,575.8l-.78-.92,4-2.06Z" transform="translate(-182.81 -189.02)"/><path class="cls-18" d="M596.55,570.6c.08.71.15,1.41.23,2.12l-3.18.56-.35-.46Z" transform="translate(-182.81 -189.02)"/><path class="cls-1" d="M580.56,518.66c.36-.85.72-1.71,1.09-2.56q2-4.67,4.07-9.34l1.47-.22L595.68,567c-2.51,1.22-5.07,2.35-7.52,3.68-9.18,5-18.34,10-27.5,15.06-5.62-3.14-6.47-7.87-4-13.31,3-6.57,6.27-13,9.42-19.48l2.42-4.94,2.06-5.19c.49-1.15,1-2.3,1.48-3.45.8-2,1.6-4.07,2.41-6.1Q577.49,526,580.56,518.66Z" transform="translate(-182.81 -189.02)"/><path class="cls-6" d="M560.66,585.72c9.16-5,18.32-10.07,27.5-15.06,2.45-1.33,5-2.46,7.52-3.68l.87,3.62-3.3,2.22-4,2.06-11.09,5.92-4.51,2.88-10.38,5.23a1.26,1.26,0,0,0-.75-.78Z" transform="translate(-182.81 -189.02)"/><path class="cls-19" d="M370.56,690.28l-6,4.21.82,1.47,18.35-7.37c.84,5.38,7.94,10.19,14,10,8.07-.23,16.14-.06,24.5.28-5.59,2-7.67,10.73-16.41,7.58-1.76-.63-5.62,1.15-6.76,2.94-2.54,4-6,4.65-10.12,5.43-3.38.64-6.29,3.62-9.68,4.46-5.39,1.33-11,1.75-18,2.78,1.66-4.81,2.87-8.09,3.9-11.44a15.89,15.89,0,0,0,.65-4.14c-6.33-1.57-5.52-7.27-7.32-13Zm1.48,27.9c5.21-2.64,9.42-5.73,14.12-6.92,7.06-1.78,9.87-2.86,11.41-7.66l-5.86,3c-2.62-4.66-11.32-2.91-10.77-10.8-.92,4.11-1.84,8.22-2.82,12.62L372,706.76Z" transform="translate(-182.81 -189.02)"/><path class="cls-19" d="M422.69,714.36l10.94-3.27C432.34,717.57,429.45,718.65,422.69,714.36Z" transform="translate(-182.81 -189.02)"/><path class="cls-19" d="M452.09,709.54q-2.49,2.88-5,5.75l-1.78-2.09,6.77-3.66Z" transform="translate(-182.81 -189.02)"/><path class="cls-16" d="M463.52,708.52l.78.52c-.16.1-.36.32-.46.28a4.12,4.12,0,0,1-.78-.5Z" transform="translate(-182.81 -189.02)"/><path class="cls-19" d="M452.09,709.54c.37-.27.74-.54,0,0,.89-.28.45-.14,0,0Z" transform="translate(-182.81 -189.02)"/><path class="cls-20" d="M385.07,674.2c.79-6,3-7.65,9.33-5.52l-9.32,5.53Z" transform="translate(-182.81 -189.02)"/><path class="cls-6" d="M409.57,644.82l2.75,1.5-.51.78-2.5-2Z" transform="translate(-182.81 -189.02)"/><path class="cls-17" d="M579.21,663.56c-1.1,3.84-3,3.94-5.47,1.14l.2-.24,4.88-1.22Z" transform="translate(-182.81 -189.02)"/><path class="cls-19" d="M598.53,671.17l-.6.89a3.83,3.83,0,0,1-.73-1.1c0-.16.46-.47.72-.71Z" transform="translate(-182.81 -189.02)"/><path class="cls-19" d="M578.82,663.24l-4.88,1.22c-.88-4.24,2.54-3.26,4.67-3.85l.4.34C579,661.71,578.89,662.48,578.82,663.24Z" transform="translate(-182.81 -189.02)"/><path class="cls-19" d="M578.61,660.61c.25-.42.49-.85.73-1.28l.4.22L579,661Z" transform="translate(-182.81 -189.02)"/><path class="cls-15" d="M576.46,724l-1.61.87c.07-.5.15-1,.23-1.49Z" transform="translate(-182.81 -189.02)"/><path class="cls-1" d="M425,546.23c3.14,5.48,5.88,11.24,9.52,16.36,4.48,6.27,5.32,13.12,5.08,20.4a42.47,42.47,0,0,1-6.28-1.85c-10.78-5-21.5-10.08-32.24-15.14l.84-18.55q2.58-19.55,5.18-39.08,3,5.58,6,11.16l-.05-.06,3.6,8.66-.09-.1c.47,1.24.95,2.47,1.43,3.7l-.06-.11c.4.86.81,1.71,1.21,2.56l0-.08,1.32,3.72-.06-.1c1,2.15,1.95,4.29,2.92,6.44,0,0,.27.33.28.33C424,545.06,424.5,545.65,425,546.23Z" transform="translate(-182.81 -189.02)"/><path class="cls-17" d="M413,519.53q-3-5.58-6-11.16c-.44-2-.89-4.05-1.33-6.08l1.4-.81,3.23,3.43Q411.71,512.23,413,519.53Z" transform="translate(-182.81 -189.02)"/><path class="cls-16" d="M486.47,356.53c3.64,1.3,7.21,3.07,11,3.63,1.3.19,4.29-2.55,4.37-4.07.25-4.78-.45-9.63-.9-14.44-.42-4.55,0-5.22,3.67-5.34,0,6.3-1,12.79.27,18.84s-3,6.82-6.1,7.52c-3.34.76-7.24-.11-10.68-1.06-1.29-.35-2-2.9-2.93-4.45Z" transform="translate(-182.81 -189.02)"/><path class="cls-17" d="M505.91,340c4.61-1.1,9.22-2.28,13.87-3.18.58-.11,2,1.19,2.05,1.91a3.83,3.83,0,0,1-1.32,3c-4.61,3.1-9.39,4.27-14.23.68C506.16,341.55,506,340.76,505.91,340Z" transform="translate(-182.81 -189.02)"/><path class="cls-17" d="M500.84,372.21l-9.53,1c-1.59-3.47-1.41-3.73,3.45-4.83.55.81,1.06,2.26,1.67,2.31a19,19,0,0,0,4.61-.67C501,370.78,500.91,371.5,500.84,372.21Z" transform="translate(-182.81 -189.02)"/><path class="cls-18" d="M501,370.06a19,19,0,0,1-4.61.67c-.61-.05-1.12-1.5-1.67-2.31l1.22-.12,3.62-1.07.1,0,2.25-.11.19.11C501.77,368.16,501.41,369.11,501,370.06Z" transform="translate(-182.81 -189.02)"/><path class="cls-16" d="M492.69,364.89h2.75l.07.58-2.86.36C492.66,365.52,492.67,365.2,492.69,364.89Z" transform="translate(-182.81 -189.02)"/><path class="cls-17" d="M530.08,376.39c.42-.64.84-1.28,1.25-1.92l3.71,0Z" transform="translate(-182.81 -189.02)"/><path class="cls-16" d="M499.6,367.23,496,368.3Z" transform="translate(-182.81 -189.02)"/><path class="cls-16" d="M502,367.09l-2.25.11Z" transform="translate(-182.81 -189.02)"/><path class="cls-6" d="M401.07,566c10.74,5.06,21.46,10.17,32.24,15.14a42.47,42.47,0,0,0,6.28,1.85l-3.48,5.74-8.18-2.52-20-11.69-7.51-5.22C400.64,568.2,400.85,567.1,401.07,566Z" transform="translate(-182.81 -189.02)"/><path class="cls-16" d="M486.29,663.2l6.07,8.48c-1.18,5.13-5.53,4.77-9.17,4.84-4.19.09-8.39-.8-12.6-1-4-.19-8,0-11,0Z" transform="translate(-182.81 -189.02)"/><path class="cls-16" d="M459.55,677.79c-3,.43-5.95,1.23-8.91,1.14-1.95,0-3.87-1.38-5.8-2.14Z" transform="translate(-182.81 -189.02)"/><path class="cls-16" d="M442.32,676.83l-3.71.9Z" transform="translate(-182.81 -189.02)"/><path class="cls-21" d="M501.71,673l1.6-1.16.07.07a7.11,7.11,0,0,0-.34,1l.23-.09Z" transform="translate(-182.81 -189.02)"/><path class="cls-17" d="M501.71,673l1.56-.2-2,1.22A4.79,4.79,0,0,1,501.71,673Z" transform="translate(-182.81 -189.02)"/><path class="cls-17" d="M416.59,528.13l-3.6-8.66Z" transform="translate(-182.81 -189.02)"/><path class="cls-17" d="M423.24,544.16c-1-2.15-1.94-4.29-2.92-6.44Q421.79,540.93,423.24,544.16Z" transform="translate(-182.81 -189.02)"/><path class="cls-17" d="M420.38,537.82l-1.32-3.72Z" transform="translate(-182.81 -189.02)"/><path class="cls-17" d="M417.93,531.73c-.48-1.23-1-2.46-1.43-3.7C417,529.26,417.45,530.5,417.93,531.73Z" transform="translate(-182.81 -189.02)"/><path class="cls-17" d="M425,546.23c-.49-.58-1-1.17-1.47-1.74Z" transform="translate(-182.81 -189.02)"/><path class="cls-17" d="M419.08,534.18c-.4-.85-.81-1.7-1.21-2.56C418.27,532.48,418.68,533.33,419.08,534.18Z" transform="translate(-182.81 -189.02)"/><path class="cls-17" d="M503,672.87a7.11,7.11,0,0,1,.34-1l2.19-.18Z" transform="translate(-182.81 -189.02)"/><path class="cls-17" d="M512.75,664.64a2.12,2.12,0,0,1-.06.71l-.61,0C512.05,664.89,512.27,664.64,512.75,664.64Z" transform="translate(-182.81 -189.02)"/><path class="cls-20" d="M372,718.18V706.76l6.08,1.67c1-4.4,1.9-8.51,2.82-12.62-.55,7.89,8.15,6.14,10.77,10.8l5.86-3c-1.54,4.8-4.35,5.88-11.41,7.66C381.46,712.45,377.25,715.54,372,718.18Z" transform="translate(-182.81 -189.02)"/></svg>