<?xml version="1.0" encoding="utf-8"?>
<!-- Generator: Adobe Illustrator 22.1.0, SVG Export Plug-In . SVG Version: 6.00 Build 0)  -->
<svg version="1.1" xmlns="http://www.w3.org/2000/svg" xmlns:xlink="http://www.w3.org/1999/xlink" x="0px" y="0px"
	 viewBox="0 0 270.1 485.8" style="enable-background:new 0 0 270.1 485.8;" xml:space="preserve">
<style type="text/css">
	.st0{fill:none;stroke:#D4CD00;stroke-miterlimit:10;}
	.st1{fill:none;stroke:#D4CD00;stroke-miterlimit:10;stroke-dasharray:12;}
	.st2{fill:#D4CD00;stroke:#D4CD00;stroke-miterlimit:10;}
	.st3{fill:#D4CD00;stroke:#D4CD00;stroke-width:0.75;stroke-miterlimit:10;}
	.st4{fill:#D4CD00;}
</style>
<g id="Main">
	<circle class="st0" cx="27" cy="80.8" r="26.5"/>
	<circle class="st0" cx="243.1" cy="80.8" r="26.5"/>
	<circle class="st0" cx="27" cy="188.8" r="26.5"/>
	<circle class="st0" cx="243" cy="188.8" r="26.5"/>
	<circle class="st0" cx="135" cy="243.1" r="26.5"/>
	<circle class="st0" cx="27" cy="296.8" r="26.5"/>
	<circle class="st0" cx="135" cy="350.8" r="26.5"/>
	<circle class="st0" cx="135" cy="458.8" r="26.5"/>
	<line class="st0" x1="135" y1="26.9" x2="27" y2="80.8"/>
	<line class="st0" x1="27.3" y1="188.8" x2="27" y2="80.8"/>
	<line class="st0" x1="243" y1="188.8" x2="27" y2="188.8"/>
	<line class="st0" x1="243" y1="80.8" x2="243" y2="188.8"/>
	<line class="st0" x1="27.3" y1="188.8" x2="27" y2="297.3"/>
	<line class="st0" x1="26.8" y1="297" x2="135" y2="458.8"/>
	<line class="st1" x1="135" y1="458.8" x2="135" y2="350.8"/>
	<circle class="st2" cx="242.8" cy="296.9" r="1.6"/>
	<circle class="st2" cx="135" cy="350.8" r="1.6"/>
	<circle class="st2" cx="135" cy="458.8" r="1.6"/>
	<circle class="st2" cx="27.2" cy="296.8" r="1.6"/>
	<circle class="st2" cx="27.3" cy="188.8" r="1.6"/>
	<circle class="st2" cx="243.1" cy="188.8" r="1.6"/>
	<circle class="st2" cx="243.1" cy="80.8" r="1.6"/>
	<circle class="st2" cx="135" cy="26.9" r="1.6"/>
	<circle class="st2" cx="27" cy="80.8" r="1.6"/>
	<line class="st0" x1="243" y1="297" x2="135" y2="458.8"/>
	<line class="st0" x1="135" y1="26.9" x2="243" y2="80.8"/>
	<circle class="st3" cx="135.4" cy="243" r="7"/>
	<line class="st0" x1="27" y1="80.8" x2="243" y2="80.8"/>
</g>
<g id="Dash">
	<line class="st1" x1="135" y1="350.8" x2="243" y2="297"/>
	<line class="st1" x1="135" y1="350.8" x2="27" y2="297.3"/>
	<line class="st1" x1="135.4" y1="243.1" x2="27.3" y2="188.8"/>
	<line class="st1" x1="135.4" y1="243.1" x2="27" y2="297.3"/>
	<line class="st1" x1="135.4" y1="243.1" x2="243" y2="297"/>
	<line class="st1" x1="135.4" y1="243.1" x2="243" y2="80.8"/>
	<line class="st1" x1="135.4" y1="243.1" x2="27" y2="80.8"/>
	<line class="st1" x1="135.4" y1="243.1" x2="243" y2="188.8"/>
	<line class="st1" x1="135.4" y1="243.1" x2="135" y2="26.9"/>
	<line class="st1" x1="135.4" y1="243.1" x2="135" y2="350.8"/>
</g>
<g id="Tapered_-_circle">
	<line class="st0" x1="27" y1="297" x2="243" y2="297"/>
	<line class="st0" x1="243" y1="188.8" x2="243" y2="296.9"/>
	<circle class="st0" cx="243" cy="297" r="26.5"/>
	<circle class="st0" cx="135.2" cy="27" r="26.5"/>
	<g>
		<polygon class="st4" points="134.4,26.8 134.9,0.4 135.4,26.8 		"/>
	</g>
	<g>
		<polygon class="st4" points="134.6,27.1 125,2.5 135.6,26.7 		"/>
	</g>
	<g>
		<polygon class="st4" points="134.7,27.2 116.3,8.2 135.4,26.5 		"/>
	</g>
	<g>
		<polygon class="st4" points="134.6,27.5 110.4,16.9 135,26.5 		"/>
	</g>
	<g>
		<polygon class="st4" points="134.8,26.6 153.8,8.3 135.5,27.3 		"/>
	</g>
	<g>
		<polygon class="st4" points="134.7,26.7 145.3,2.5 135.6,27.1 		"/>
	</g>
	<g>
		<polygon class="st4" points="135.1,27.4 108.6,26.9 135.1,26.4 		"/>
	</g>
	<g>
		<polygon class="st4" points="134.9,26.4 161.4,26.9 134.9,27.4 		"/>
	</g>
	<g>
		<polygon class="st4" points="135,26.5 159.5,16.9 135.3,27.5 		"/>
	</g>
	<g>
		<polygon class="st4" points="242.5,80.8 243,54.4 243.5,80.8 		"/>
	</g>
	<g>
		<polygon class="st4" points="242.7,81 233.1,56.4 243.7,80.6 		"/>
	</g>
	<g>
		<polygon class="st4" points="242.8,81.2 224.4,62.2 243.5,80.5 		"/>
	</g>
	<g>
		<polygon class="st4" points="243.7,81 243.2,107.4 242.7,81 		"/>
	</g>
	<g>
		<polygon class="st4" points="243.7,80.8 253.4,105.4 242.8,81.2 		"/>
	</g>
	<g>
		<polygon class="st4" points="243.6,80.6 261.9,99.7 242.9,81.3 		"/>
	</g>
	<g>
		<polygon class="st4" points="243.4,80.6 267.6,91.1 243.1,81.5 		"/>
	</g>
	<g>
		<polygon class="st4" points="242.9,80.6 261.9,62.3 243.6,81.3 		"/>
	</g>
	<g>
		<polygon class="st4" points="242.8,80.7 253.4,56.5 243.7,81.1 		"/>
	</g>
	<g>
		<polygon class="st4" points="243,80.4 269.5,80.9 243,81.4 		"/>
	</g>
	<g>
		<polygon class="st4" points="243.1,80.5 267.6,70.9 243.4,81.4 		"/>
	</g>
	<g>
		<polygon class="st4" points="242.4,188.7 242.9,162.3 243.4,188.7 		"/>
	</g>
	<g>
		<polygon class="st4" points="243.6,188.9 243.1,215.3 242.6,188.9 		"/>
	</g>
	<g>
		<polygon class="st4" points="243.1,189.3 216.6,188.8 243.1,188.3 		"/>
	</g>
	<g>
		<polygon class="st4" points="242.3,188.8 242.8,162.4 243.3,188.8 		"/>
	</g>
	<g>
		<polygon class="st4" points="243.5,189 243,215.4 242.5,189 		"/>
	</g>
	<g>
		<polygon class="st4" points="243.5,188.8 253.2,213.4 242.6,189.2 		"/>
	</g>
	<g>
		<polygon class="st4" points="243.4,188.6 261.7,207.7 242.7,189.3 		"/>
	</g>
	<g>
		<polygon class="st4" points="243.2,188.6 267.4,199.1 242.9,189.5 		"/>
	</g>
	<g>
		<polygon class="st4" points="242.7,188.6 261.7,170.3 243.4,189.3 		"/>
	</g>
	<g>
		<polygon class="st4" points="242.6,188.7 253.2,164.5 243.5,189.1 		"/>
	</g>
	<g>
		<polygon class="st4" points="243,189.4 216.5,188.9 243,188.4 		"/>
	</g>
	<g>
		<polygon class="st4" points="242.8,188.4 269.3,188.9 242.8,189.4 		"/>
	</g>
	<g>
		<polygon class="st4" points="242.9,188.5 267.4,178.9 243.2,189.4 		"/>
	</g>
	<g>
		<polygon class="st4" points="242.2,296.8 242.7,270.4 243.2,296.8 		"/>
	</g>
	<g>
		<polygon class="st4" points="243.4,297 242.9,323.4 242.4,297 		"/>
	</g>
	<g>
		<polygon class="st4" points="243.3,296.8 253,321.4 242.4,297.2 		"/>
	</g>
	<g>
		<polygon class="st4" points="243.2,296.7 261.5,315.7 242.5,297.4 		"/>
	</g>
	<g>
		<polygon class="st4" points="243,296.6 267.2,307.2 242.7,297.5 		"/>
	</g>
	<g>
		<polygon class="st4" points="242.5,296.6 261.5,278.3 243.2,297.3 		"/>
	</g>
	<g>
		<polygon class="st4" points="242.4,296.7 253,272.5 243.3,297.1 		"/>
	</g>
	<g>
		<polygon class="st4" points="242.8,297.4 216.3,296.9 242.8,296.4 		"/>
	</g>
	<g>
		<polygon class="st4" points="242.7,296.4 269.1,296.9 242.7,297.4 		"/>
	</g>
	<g>
		<polygon class="st4" points="242.7,296.6 267.2,286.9 243,297.5 		"/>
	</g>
	<g>
		<polygon class="st4" points="134.4,458.7 134.9,432.3 135.4,458.7 		"/>
	</g>
	<g>
		<polygon class="st4" points="134.7,459.1 116.3,440.1 135.4,458.4 		"/>
	</g>
	<g>
		<polygon class="st4" points="134.6,459.4 110.4,448.8 135,458.5 		"/>
	</g>
	<g>
		<polygon class="st4" points="135,459.3 110.4,469 134.6,458.4 		"/>
	</g>
	<g>
		<polygon class="st4" points="135.4,459.3 116.3,477.6 134.7,458.6 		"/>
	</g>
	<g>
		<polygon class="st4" points="135.4,459.1 124.8,483.3 134.5,458.7 		"/>
	</g>
	<g>
		<polygon class="st4" points="135.6,458.9 135.1,485.3 134.6,458.9 		"/>
	</g>
	<g>
		<polygon class="st4" points="135.6,458.7 145.3,483.3 134.7,459.1 		"/>
	</g>
	<g>
		<polygon class="st4" points="135.5,458.6 153.8,477.6 134.8,459.3 		"/>
	</g>
	<g>
		<polygon class="st4" points="135.3,458.5 159.5,469.1 135,459.4 		"/>
	</g>
	<g>
		<polygon class="st4" points="134.8,458.5 153.8,440.2 135.5,459.2 		"/>
	</g>
	<g>
		<polygon class="st4" points="135.1,459.3 108.6,458.8 135.1,458.3 		"/>
	</g>
	<g>
		<polygon class="st4" points="134.9,458.3 161.4,458.8 134.9,459.3 		"/>
	</g>
	<g>
		<polygon class="st4" points="135,458.5 159.5,448.8 135.3,459.4 		"/>
	</g>
	<g>
		<polygon class="st4" points="26.5,297 16.8,272.4 27.4,296.6 		"/>
	</g>
	<g>
		<polygon class="st4" points="26.5,297.1 8.2,278.1 27.2,296.4 		"/>
	</g>
	<g>
		<polygon class="st4" points="26.5,297.4 2.3,286.8 26.9,296.5 		"/>
	</g>
	<g>
		<polygon class="st4" points="26.9,297.3 2.3,307 26.5,296.4 		"/>
	</g>
	<g>
		<polygon class="st4" points="27.2,297.3 8.2,315.6 26.5,296.6 		"/>
	</g>
	<g>
		<polygon class="st4" points="27.2,297.1 16.7,321.3 26.3,296.7 		"/>
	</g>
	<g>
		<polygon class="st4" points="27.5,296.9 27,323.3 26.5,296.9 		"/>
	</g>
	<g>
		<polygon class="st4" points="26.9,297.3 0.5,296.8 26.9,296.3 		"/>
	</g>
	<g>
		<polygon class="st4" points="26.8,296.3 53.2,296.8 26.8,297.3 		"/>
	</g>
	<g>
		<polygon class="st4" points="134.6,350.9 135.1,324.4 135.6,350.9 		"/>
	</g>
	<g>
		<polygon class="st4" points="134.8,351.1 125.1,326.5 135.7,350.7 		"/>
	</g>
	<g>
		<polygon class="st4" points="134.8,351.3 116.5,332.2 135.5,350.6 		"/>
	</g>
	<g>
		<polygon class="st4" points="134.8,351.5 110.6,340.9 135.2,350.6 		"/>
	</g>
	<g>
		<polygon class="st4" points="135.2,351.5 110.6,361.1 134.8,350.5 		"/>
	</g>
	<g>
		<polygon class="st4" points="135.5,351.4 116.5,369.7 134.8,350.7 		"/>
	</g>
	<g>
		<polygon class="st4" points="135.6,351.2 125,375.4 134.6,350.9 		"/>
	</g>
	<g>
		<polygon class="st4" points="135.8,350.9 145.4,375.4 134.8,351.2 		"/>
	</g>
	<g>
		<polygon class="st4" points="135.7,350.7 154,369.7 134.9,351.4 		"/>
	</g>
	<g>
		<polygon class="st4" points="135.5,350.6 159.7,361.2 135.1,351.5 		"/>
	</g>
	<g>
		<polygon class="st4" points="134.9,350.7 154,332.3 135.7,351.4 		"/>
	</g>
	<g>
		<polygon class="st4" points="134.8,350.8 145.4,326.6 135.8,351.1 		"/>
	</g>
	<g>
		<polygon class="st4" points="135.2,351.4 108.8,350.9 135.2,350.4 		"/>
	</g>
	<g>
		<polygon class="st4" points="135.1,350.4 161.5,350.9 135.1,351.4 		"/>
	</g>
	<g>
		<polygon class="st4" points="135.1,350.6 159.7,340.9 135.5,351.5 		"/>
	</g>
	<g>
		<polygon class="st4" points="26.7,188.8 27.2,162.4 27.7,188.8 		"/>
	</g>
	<g>
		<polygon class="st4" points="26.9,189 17.3,164.4 27.9,188.6 		"/>
	</g>
	<g>
		<polygon class="st4" points="27,189.2 8.6,170.2 27.7,188.5 		"/>
	</g>
	<g>
		<polygon class="st4" points="26.9,189.4 2.7,178.9 27.3,188.5 		"/>
	</g>
	<g>
		<polygon class="st4" points="27.3,189.4 2.7,199 26.9,188.5 		"/>
	</g>
	<g>
		<polygon class="st4" points="27.7,189.3 8.6,207.7 27,188.6 		"/>
	</g>
	<g>
		<polygon class="st4" points="27.7,189.2 17.1,213.4 26.8,188.8 		"/>
	</g>
	<g>
		<polygon class="st4" points="27.9,189 27.4,215.4 26.9,189 		"/>
	</g>
	<g>
		<polygon class="st4" points="27.4,189.4 0.9,188.9 27.4,188.4 		"/>
	</g>
	<g>
		<polygon class="st4" points="26.4,80.7 26.9,54.3 27.4,80.7 		"/>
	</g>
	<g>
		<polygon class="st4" points="26.6,81 17,56.4 27.6,80.6 		"/>
	</g>
	<g>
		<polygon class="st4" points="26.7,81.1 8.3,62.1 27.4,80.4 		"/>
	</g>
	<g>
		<polygon class="st4" points="26.6,81.4 2.4,70.8 27,80.5 		"/>
	</g>
	<g>
		<polygon class="st4" points="27,81.3 2.4,91 26.6,80.4 		"/>
	</g>
	<g>
		<polygon class="st4" points="27.4,81.3 8.3,99.6 26.7,80.6 		"/>
	</g>
	<g>
		<polygon class="st4" points="27.4,81.1 16.8,105.3 26.5,80.7 		"/>
	</g>
	<g>
		<polygon class="st4" points="27.6,80.9 27.1,107.3 26.6,80.9 		"/>
	</g>
	<g>
		<polygon class="st4" points="26.8,80.5 45.8,62.2 27.5,81.2 		"/>
	</g>
	<g>
		<polygon class="st4" points="26.7,80.6 37.3,56.4 27.6,81 		"/>
	</g>
	<g>
		<polygon class="st4" points="27.1,81.3 0.6,80.8 27.1,80.3 		"/>
	</g>
</g>
<g id="Tapered_-_lines">
	<g>
		<polygon class="st4" points="134.9,243.2 80.1,54.3 135.9,242.9 		"/>
	</g>
	<g>
		<polygon class="st4" points="134.9,242.9 189.2,53.5 135.9,243.2 		"/>
	</g>
	<g>
		<polygon class="st4" points="135.4,243.6 26.8,242.8 135.4,242.6 		"/>
	</g>
	<g>
		<polygon class="st4" points="135.4,242.6 243.1,243.1 135.4,243.6 		"/>
	</g>
	<g>
		<polygon class="st4" points="135,243.4 27.1,134.8 135.8,242.7 		"/>
	</g>
	<g>
		<polygon class="st4" points="135,242.7 242.9,134.8 135.8,243.4 		"/>
	</g>
	<g>
		<polygon class="st4" points="135.9,243.3 81.3,378.6 134.9,242.9 		"/>
	</g>
	<g>
		<polygon class="st4" points="135.9,242.9 189.3,377.9 134.9,243.3 		"/>
	</g>
</g>
</svg>
