<?xml version="1.0" encoding="utf-8"?>
<!-- Generator: Adobe Illustrator 22.1.0, SVG Export Plug-In . SVG Version: 6.00 Build 0)  -->
<svg version="1.1" id="Layer_1" xmlns="http://www.w3.org/2000/svg" xmlns:xlink="http://www.w3.org/1999/xlink" x="0px" y="0px"
	 viewBox="0 0 434 434" style="enable-background:new 0 0 434 434;" xml:space="preserve">
<style type="text/css">
	.st0{fill-rule:evenodd;clip-rule:evenodd;stroke:#000000;stroke-miterlimit:10;}
</style>
<g>
	<g>
		<polygon points="217,2.5 217.5,56.1 217.8,109.8 218,217 217.8,324.2 217.5,377.9 217,431.5 216.5,377.9 216.2,324.2 216,217 
			216.2,109.8 216.5,56.1 		"/>
	</g>
	<circle class="st0" cx="217" cy="431.5" r="2"/>
	<circle class="st0" cx="217" cy="2.5" r="2"/>
</g>
<g>
	<g>
		<polygon points="196,3.5 201.7,56.9 207.2,110.2 218,216.9 228.3,323.7 233.3,377.1 238,430.5 232.3,377.1 226.7,323.8 216,217.1 
			205.7,110.3 200.7,56.9 		"/>
	</g>
	<circle class="st0" cx="238" cy="430.5" r="2"/>
	<circle class="st0" cx="196" cy="3.5" r="2"/>
</g>
<g>
	<g>
		<polygon points="175.2,6.6 186.1,59.1 196.8,111.7 218,216.8 238.7,322 248.9,374.7 258.8,427.4 247.9,374.9 237.2,322.3 
			216,217.2 195.3,112 185.1,59.3 		"/>
	</g>
	<circle class="st0" cx="258.8" cy="427.4" r="2"/>
	<circle class="st0" cx="175.2" cy="6.6" r="2"/>
</g>
<g>
	<g>
		<polygon points="154.7,11.7 170.8,62.9 186.6,114.1 218,216.7 248.9,319.4 264.2,370.8 279.3,422.3 263.2,371.1 247.4,319.9 
			216,217.3 185.1,114.6 169.8,63.2 		"/>
	</g>
	<circle class="st0" cx="279.3" cy="422.3" r="2"/>
	<circle class="st0" cx="154.7" cy="11.7" r="2"/>
</g>
<g>
	<g>
		<polygon points="134.9,18.8 155.9,68.2 176.7,117.6 217.9,216.6 258.8,315.8 279,365.4 299.1,415.2 278.1,365.8 257.3,316.4 
			216.1,217.4 175.2,118.2 155,68.6 		"/>
	</g>
	<circle class="st0" cx="299.1" cy="415.2" r="2"/>
	<circle class="st0" cx="134.9" cy="18.8" r="2"/>
</g>
<g>
	<g>
		<polygon points="115.9,27.8 141.6,74.9 167.1,122.1 217.9,216.5 268.2,311.2 293.3,358.6 318.1,406.2 292.4,359.1 266.9,311.9 
			216.1,217.5 165.8,122.8 140.7,75.4 		"/>
	</g>
	<circle class="st0" cx="318.1" cy="406.2" r="2"/>
	<circle class="st0" cx="115.9" cy="27.8" r="2"/>
</g>
<g>
	<g>
		<polygon points="97.8,38.6 128,83 158.1,127.4 217.8,216.4 277.2,305.7 306.8,350.5 336.2,395.4 306,351 275.9,306.6 216.2,217.6 
			156.8,128.3 127.2,83.5 		"/>
	</g>
	<circle class="st0" cx="336.2" cy="395.4" r="2"/>
	<circle class="st0" cx="97.8" cy="38.6" r="2"/>
</g>
<g>
	<g>
		<polygon points="80.9,51.2 115.3,92.3 149.6,133.6 217.8,216.4 285.6,299.4 319.4,341 353.1,382.8 318.7,341.7 284.4,300.4 
			216.2,217.6 148.4,134.6 114.6,93 		"/>
	</g>
	<circle class="st0" cx="353.1" cy="382.8" r="2"/>
	<circle class="st0" cx="80.9" cy="51.2" r="2"/>
</g>
<g>
	<g>
		<polygon points="65.3,65.3 103.6,102.9 141.7,140.6 217.7,216.3 293.4,292.3 331.1,330.4 368.7,368.7 330.4,331.1 292.3,293.4 
			216.3,217.7 140.6,141.7 102.9,103.6 		"/>
	</g>
	<circle class="st0" cx="368.7" cy="368.7" r="2"/>
	<circle class="st0" cx="65.3" cy="65.3" r="2"/>
</g>
<g>
	<g>
		<polygon points="51.2,80.9 93,114.6 134.6,148.4 217.6,216.2 300.4,284.4 341.7,318.7 382.8,353.1 341,319.4 299.4,285.6 
			216.4,217.8 133.6,149.6 92.3,115.3 		"/>
	</g>
	<circle class="st0" cx="382.8" cy="353.1" r="2"/>
	<circle class="st0" cx="51.2" cy="80.9" r="2"/>
</g>
<g>
	<g>
		<polygon points="38.6,97.8 83.5,127.2 128.3,156.8 217.6,216.2 306.6,275.9 351,306 395.4,336.2 350.5,306.8 305.7,277.2 
			216.4,217.8 127.4,158.1 83,128 		"/>
	</g>
	<circle class="st0" cx="395.4" cy="336.2" r="2"/>
	<circle class="st0" cx="38.6" cy="97.8" r="2"/>
</g>
<g>
	<g>
		<polygon points="27.8,115.9 75.4,140.7 122.8,165.8 217.5,216.1 311.9,266.9 359.1,292.4 406.2,318.1 358.6,293.3 311.2,268.2 
			216.5,217.9 122.1,167.1 74.9,141.6 		"/>
	</g>
	<circle class="st0" cx="406.2" cy="318.1" r="2"/>
	<circle class="st0" cx="27.8" cy="115.9" r="2"/>
</g>
<g>
	<g>
		<polygon points="18.8,134.9 68.6,155 118.2,175.2 217.4,216.1 316.4,257.3 365.8,278.1 415.2,299.1 365.4,279 315.8,258.8 
			216.6,217.9 117.6,176.7 68.2,155.9 		"/>
	</g>
	<circle class="st0" cx="415.2" cy="299.1" r="2"/>
	<circle class="st0" cx="18.8" cy="134.9" r="2"/>
</g>
<g>
	<g>
		<polygon points="11.7,154.7 63.2,169.8 114.6,185.1 217.3,216 319.9,247.4 371.1,263.2 422.3,279.3 370.8,264.2 319.4,248.9 
			216.7,218 114.1,186.6 62.9,170.8 		"/>
	</g>
	<circle class="st0" cx="422.3" cy="279.3" r="2"/>
	<circle class="st0" cx="11.7" cy="154.7" r="2"/>
</g>
<g>
	<g>
		<polygon points="6.6,175.2 59.3,185.1 112,195.3 217.2,216 322.3,237.2 374.9,247.9 427.4,258.8 374.7,248.9 322,238.7 216.8,218 
			111.7,196.8 59.1,186.1 		"/>
	</g>
	<circle class="st0" cx="427.4" cy="258.8" r="2"/>
	<circle class="st0" cx="6.6" cy="175.2" r="2"/>
</g>
<g>
	<g>
		<polygon points="3.5,196 56.9,200.7 110.3,205.7 217.1,216 323.8,226.7 377.1,232.3 430.5,238 377.1,233.3 323.7,228.3 216.9,218 
			110.2,207.2 56.9,201.7 		"/>
	</g>
	<circle class="st0" cx="430.5" cy="238" r="2"/>
	<circle class="st0" cx="3.5" cy="196" r="2"/>
</g>
<g>
	<g>
		<polygon points="2.5,217 56.1,216.5 109.8,216.2 217,216 324.2,216.2 377.9,216.5 431.5,217 377.9,217.5 324.2,217.8 217,218 
			109.8,217.8 56.1,217.5 		"/>
	</g>
	<circle class="st0" cx="431.5" cy="217" r="2"/>
	<circle class="st0" cx="2.5" cy="217" r="2"/>
</g>
<g>
	<g>
		<polygon points="3.5,238 56.9,232.3 110.2,226.8 216.9,216 323.7,205.7 377.1,200.7 430.5,196 377.1,201.7 323.8,207.3 217.1,218 
			110.3,228.3 56.9,233.3 		"/>
	</g>
	<circle class="st0" cx="430.5" cy="196" r="2"/>
	<circle class="st0" cx="3.5" cy="238" r="2"/>
</g>
<g>
	<g>
		<polygon points="6.6,258.8 59.1,247.9 111.7,237.2 216.8,216 322,195.3 374.7,185.1 427.4,175.2 374.9,186.1 322.3,196.8 
			217.2,218 112,238.7 59.3,248.9 		"/>
	</g>
	<circle class="st0" cx="427.4" cy="175.2" r="2"/>
	<circle class="st0" cx="6.6" cy="258.8" r="2"/>
</g>
<g>
	<g>
		<polygon points="11.7,279.3 62.9,263.2 114.1,247.4 216.7,216 319.4,185.1 370.8,169.8 422.3,154.7 371.1,170.8 319.9,186.6 
			217.3,218 114.6,248.9 63.2,264.2 		"/>
	</g>
	<circle class="st0" cx="422.3" cy="154.7" r="2"/>
	<circle class="st0" cx="11.7" cy="279.3" r="2"/>
</g>
<g>
	<g>
		<polygon points="18.8,299.1 68.2,278.1 117.6,257.3 216.6,216.1 315.8,175.2 365.4,155 415.2,134.9 365.8,155.9 316.4,176.7 
			217.4,217.9 118.2,258.8 68.6,279 		"/>
	</g>
	<circle class="st0" cx="415.2" cy="134.9" r="2"/>
	<circle class="st0" cx="18.8" cy="299.1" r="2"/>
</g>
<g>
	<g>
		<polygon points="27.8,318.1 74.9,292.4 122.1,266.9 216.5,216.1 311.2,165.8 358.6,140.7 406.2,115.9 359.1,141.6 311.9,167.1 
			217.5,217.9 122.8,268.2 75.4,293.3 		"/>
	</g>
	<circle class="st0" cx="406.2" cy="115.9" r="2"/>
	<circle class="st0" cx="27.8" cy="318.1" r="2"/>
</g>
<g>
	<g>
		<polygon points="38.6,336.2 83,306 127.4,275.9 216.4,216.2 305.7,156.8 350.5,127.2 395.4,97.8 351,128 306.6,158.1 217.6,217.8 
			128.3,277.2 83.5,306.8 		"/>
	</g>
	<circle class="st0" cx="395.4" cy="97.8" r="2"/>
	<circle class="st0" cx="38.6" cy="336.2" r="2"/>
</g>
<g>
	<g>
		<polygon points="51.2,353.1 92.3,318.7 133.6,284.4 216.4,216.2 299.4,148.4 341,114.6 382.8,80.9 341.7,115.3 300.4,149.6 
			217.6,217.8 134.6,285.6 93,319.4 		"/>
	</g>
	<circle class="st0" cx="382.8" cy="80.9" r="2"/>
	<circle class="st0" cx="51.2" cy="353.1" r="2"/>
</g>
<g>
	<g>
		<polygon points="65.3,368.7 102.9,330.4 140.6,292.3 216.3,216.3 292.3,140.6 330.4,102.9 368.7,65.3 331.1,103.6 293.4,141.7 
			217.7,217.7 141.7,293.4 103.6,331.1 		"/>
	</g>
	<circle class="st0" cx="368.7" cy="65.3" r="2"/>
	<circle class="st0" cx="65.3" cy="368.7" r="2"/>
</g>
<g>
	<g>
		<polygon points="80.9,382.8 114.6,341 148.4,299.4 216.2,216.4 284.4,133.6 318.7,92.3 353.1,51.2 319.4,93 285.6,134.6 
			217.8,217.6 149.6,300.4 115.3,341.7 		"/>
	</g>
	<circle class="st0" cx="353.1" cy="51.2" r="2"/>
	<circle class="st0" cx="80.9" cy="382.8" r="2"/>
</g>
<g>
	<g>
		<polygon points="97.8,395.4 127.2,350.5 156.8,305.7 216.2,216.4 275.9,127.4 306,83 336.2,38.6 306.8,83.5 277.2,128.3 
			217.8,217.6 158.1,306.6 128,351 		"/>
	</g>
	<circle class="st0" cx="336.2" cy="38.6" r="2"/>
	<circle class="st0" cx="97.8" cy="395.4" r="2"/>
</g>
<g>
	<g>
		<polygon points="115.9,406.2 140.7,358.6 165.8,311.2 216.1,216.5 266.9,122.1 292.4,74.9 318.1,27.8 293.3,75.4 268.2,122.8 
			217.9,217.5 167.1,311.9 141.6,359.1 		"/>
	</g>
	<circle class="st0" cx="318.1" cy="27.8" r="2"/>
	<circle class="st0" cx="115.9" cy="406.2" r="2"/>
</g>
<g>
	<g>
		<polygon points="134.9,415.2 155,365.4 175.2,315.8 216.1,216.6 257.3,117.6 278.1,68.2 299.1,18.8 279,68.6 258.8,118.2 
			217.9,217.4 176.7,316.4 155.9,365.8 		"/>
	</g>
	<circle class="st0" cx="299.1" cy="18.8" r="2"/>
	<circle class="st0" cx="134.9" cy="415.2" r="2"/>
</g>
<g>
	<g>
		<polygon points="154.7,422.3 169.8,370.8 185.1,319.4 216,216.7 247.4,114.1 263.2,62.9 279.3,11.7 264.2,63.2 248.9,114.6 
			218,217.3 186.6,319.9 170.8,371.1 		"/>
	</g>
	<circle class="st0" cx="279.3" cy="11.7" r="2"/>
	<circle class="st0" cx="154.7" cy="422.3" r="2"/>
</g>
<g>
	<g>
		<polygon points="175.2,427.4 185.1,374.7 195.3,322 216,216.8 237.2,111.7 247.9,59.1 258.8,6.6 248.9,59.3 238.7,112 218,217.2 
			196.8,322.3 186.1,374.9 		"/>
	</g>
	<circle class="st0" cx="258.8" cy="6.6" r="2"/>
	<circle class="st0" cx="175.2" cy="427.4" r="2"/>
</g>
<g>
	<g>
		<polygon points="196,430.5 200.7,377.1 205.7,323.7 216,216.9 226.7,110.2 232.3,56.9 238,3.5 233.3,56.9 228.3,110.3 218,217.1 
			207.2,323.8 201.7,377.1 		"/>
	</g>
	<circle class="st0" cx="238" cy="3.5" r="2"/>
	<circle class="st0" cx="196" cy="430.5" r="2"/>
</g>
</svg>
