<?xml version="1.0" encoding="utf-8"?>
<!-- Generator: Adobe Illustrator 22.1.0, SVG Export Plug-In . SVG Version: 6.00 Build 0)  -->
<svg version="1.1" id="Layer_1" xmlns="http://www.w3.org/2000/svg" xmlns:xlink="http://www.w3.org/1999/xlink" x="0px" y="0px"
	 viewBox="0 0 169.7 387.2" style="enable-background:new 0 0 169.7 387.2;" xml:space="preserve">
<style type="text/css">
	.st0{fill:#A28906;}
	.st1{fill:#BFA207;}
	.st2{fill:#B19605;}
	.st3{fill:#D0B215;}
	.st4{fill:#DDB91F;}
	.st5{fill:#FDFDFD;}
</style>
<g>
	<g>
		<path class="st0" d="M151.6,386.3c0.9-0.6,1.7-1.1,2.7-1.6c0.2-0.3,0.4-0.6,0.6-0.8c0,0,0,0,0-0.1c-0.8,0-1.6-0.1-2.3-0.1
			c-1.4,1.1-2.8,2.1-4.2,3.2c0.5-0.1,1-0.1,1.6-0.1C150.4,386.6,151,386.5,151.6,386.3z"/>
		<path class="st0" d="M147.4,387.1c-1.2-4-0.3-6.2,4.1-11.2c0-1,0-2,0-3c-2.9-2.9-4.9-3.3-7.8,0.7c-2.5,3.5-7.8,3.2-11.5,5.3
			c-3.8,2-7.5,0.8-11.2,0.7c-0.3,0-0.7,0-0.9-0.2c-1-1.1-3.5-2.4-1.6-3.9c3.1-2.5-2.7-9.4,4.8-9.1c3,0.1,4.7-0.9,6.5-3.3
			c1.8-2.3,2.6-6.4,7.1-5.6c1.2,0.2,2-1.6,1.4-2.6c-2.8-4.7,1.3-8.1,3.4-10.2c2.1-2.1,3.4-4.5,5-6.8c0-0.6,0-1.3,0-1.9
			c-0.5-0.5-1.4-1-1.4-1.3c0.8-7.9-5.1-1.7-7.2-3.4c-0.1-0.1-1.7,0.9-1.8,1.5c-1,6.4-6.9,8.3-10.7,12.1c-0.8,0.8-1.1,1.6-1.2,2.6
			c-0.3,6.1-4.4,9.8-8.3,13.8c-1.6,1.6-2.7,1.8-3.7-0.4c-0.3,0-0.7,0-1,0c-2.9-0.7-3.1-2.8-2.7-5.2c-0.1-0.9-0.1-1.9-0.2-2.8
			c-2.3-0.4-4,1.1-5.3,1.8c-4.2-8.2-6.2-16.9-6.4-26.3c2.2,0.4,2.7,2.7,4.3,3.7c1.2,0.7,2.5,1.3,3.6,0.3c1-0.9,0.7-2.1,0.1-3.2
			c-3.7-7.8-3.7-7.8,2.4-13.3c1.7-4,4.3-6.6,9.2-6.1c2.3,0.2,3.5-2,2.2-3.6c-2.7-3.2-1.8-6.6-1.2-9.9c0.5-2.3,0.4-4.5-0.1-6.8
			c-0.7-3-0.9-6.2-5.1-6.5c-4,9.8-8.1,19.5-12.9,28.9c-1.2,2.3-2.7,4.1-4.8,5.6c-3.8,2.6-6.3,2.1-8.9-1.8c-0.5-0.8-1.4-1.4-2.1-2
			c-1.1,3-1.4,4.2-5.7,2.1c-7.5-3.6-9.4-9.8-11.6-16.4c-1-2.9-2.1-5.9-4-8.3c-3-3.9-1.4-9.2-4.7-12.9c-0.5-0.6,0.1-2.2,0.2-3.4
			c-4.5-8-3.7-16.7-3.3-25.4c0.1-1.7,0.6-3.2,1.6-4.6c1.7-2.4,2.3-4.9,1.3-7.7c-0.2-3.5-0.3-6.9,1.8-10c0.3-2.5,1.4-4.7,3-6.6
			c1.8,0.8,1.1,2.3,1.3,3.5c0.7,0,1.6,0,1.6-0.7c-0.2-4.1,2.3-7,4.4-10c-0.2-3.7,4-5.3,4.2-9.2c0.1-2.3,0.8-4.3-0.9-6.4
			c-1.3-1.6-1.3-3.3,0.8-4.5c0.4-2.3-1.5-3.9-2-5.9c-0.2-2.5-0.4-4.8,1.2-7.2c1.9-2.8-2.5-4.9-1.4-7.8l-0.1-0.1
			c-1.2-0.1-1.8-0.8-2-1.9c-2.1-2-3-5-5.7-6.4c-0.2,0.2-0.3,0.3-0.5,0.5c0.7,9.4-0.6,18.7,1,28.2c-2.2-0.4-1.6-1.8-1.6-2.8
			c-0.4-8.8,0.4-17.5-0.9-26.3c-0.4-2.4-1-4.4-2.1-6.4c-0.8-2.7-2.1-5.3-0.1-8c0-0.7,0-1.4,0-2.1c-0.6-0.1-1.4,0.2-1.6-0.7
			c-1.7-7.4-4.3-14.6-7.8-21.4c-0.7-1.4-0.6-3.2-0.9-4.8c-0.5-1.5-3.5-3.6,0.9-4.1c0-0.9,0.1-1.9,0.1-2.8c-2.4,0.4-3-1.5-3.8-3.1
			c-1.6-4.1,2-2.6,3.6-3.2c-0.2-3.9-0.5-7.9-0.7-11.8c-2.9-0.5-2.2-3.6-3.7-5.1c-1.7,1.2-1.1,3-1.2,4.6c0,1.6,0,3.2-1.6,3.9
			c-5.3,2.4-3.8,6.8-3.1,10.8c0.3,1.7,0.7,3.2-0.2,4.8c-1.7,3-2.2,5.5,0.4,8.8c2.4,3.1-0.6,6-6.8,6.5c1.3,2.8,2.9,5.5,2.3,8.7
			c1.4,1.1,1.1,2.7,0.7,4c-1.2,4-0.8,8,0.2,11.9c0.8,0.8,2.3,1.7,2.3,2.5c-0.1,10.5,9,18.1,9.1,28.6c0,3.2,3,2.9,4.8,1.7
			c4.9-3.4,5.1-0.5,4.9,3.3c-0.1,1.7,0,3.3-0.1,5c0.3,6.9,0.6,13.8,1,20.7c0.3,5-1.3,9.7-2.9,14.3c-0.3,2.1-0.9,3.9-2.9,5.1
			c0,0.3,0,0.6,0,1c0.9,0.1,2.8,0,2.5,0.9c-1.2,3.7,0.3,8.9-5.3,10.2c-0.7,1.2-2.2,2.1-2,3.8c0.7-0.1,1.7-0.4,1.9-0.2
			c2.3,3,0.5,6-0.3,8.8c-0.6,2.1-2.8,4-4.9,3.2c-5.4-2.1-8.9,2.3-14.7,2.7c3.1,2.4,6.4,3.7,6.8,5.6c0.6,3.1,3.9,5.2,2.9,8.7
			c-1.5,4.9-0.6,9.7,0.2,14.5c0.2,1,0.2,2.1,0.7,2.8c6.7,9.7,12.8,19.7,15.5,31.4c1.4,6.3,5.7,10.9,10.3,14.8
			c2.5,2.1,3.4,4.3,3.4,7.1c-0.1,2.5,1.2,5,3,5.1c4.4,0.3,3.2,2.9,3.1,5.3c1,0.9,1,2.2,1.1,3.4v0.3c0.4,0.5,0.9,0.9,1.3,1.4
			c4.1,1.2,2.5,4.6,2.3,7.1c-0.2,1.8-0.5,3.3,1.2,4.3c2.3,1.3,2.2-1.3,3-2.2c1.2-1.3,2.9-1.7,4.4-1.9c1.2-0.1,3.1,0.4,2.8,1.9
			c-0.2,0.8-0.5,3.4-3.3,2.6c-1.3-0.3-3.8,1.3-4.6,3.1c-0.9,1.7,0.2,3.2,1.2,4.5c3.2,0.1,6.4,0.2,9.5,0.2c1.3-1.1,1.4-2.7,1.7-6.8
			c1.9,2.9,2.6,5.1,2.1,6.9c3.1,0.1,6.2,0.1,9.2,0.1c13.2,0,26.3,0.9,39.5,1.6C147,387.1,147.2,387.1,147.4,387.1z M63.8,197.9
			c2.2,5.7,1.5,11.6,1.5,17.5c-0.5,0-1,0-1.5,0.1C63.8,215.5,63.8,197.9,63.8,197.9z M46.7,100.2c1.2-0.1,0.5,1,0.6,1.5
			c0.1,0.4-0.2,0.9-0.3,1.3c-0.2-0.1-0.4-0.2-0.6-0.2C46.5,101.8,46.5,100.2,46.7,100.2z"/>
		<path class="st1" d="M52.5,234.9c0,0.3,0,0.6,0,1c-3.5,3.1-4.8,6.6-2.8,11.1c-0.7,1.2-2.2,2.1-2,3.8c-0.6,1.6,0.5,5-1.4,4.7
			c-5.4-0.9-8.6,5.2-14,3.7c-1.2-0.3-2.1,0.6-1.7,1.7c1.4,3.7-1.8,3.2-3.5,3.8c-2.5,1-5-0.8-8.2-1.2c2.3,5.2,2.2,11,9.1,12.1
			c2.1,0.3,3.8,2.9,3.9,5.4c0.2,3.5,0.2,7,0.8,10.6c0.4,2.2-1.7,4.9-2.7,7.4c-3.6-4.6-4.6-11.4-11.6-14.2c0.6,5.1,5.7,7.8,4.3,13
			c-2.5-1.2-2.5-3.3-3.5-4.8c-2.5-3.6-9.2-5.7-4.6-12.1c0.3-0.4,0.2-1.3,0-1.9c-2.6-5.7-7-10.3-8.4-16.6c-1.6,6.7-1.6,6.7-4.8,7.5
			c-0.1-0.6-0.2-1.3-0.2-1.9c1.3-0.9,0.9-1.6-0.3-2.1C-1.2,255,0,244.2,2.7,233.6c1-3.8,1.2-7.7,2-11.5c1.3,0.1,2.3-0.3,2.8-1.6
			c3.2-9.6,4.2-19.5,4.2-29.5c0-0.3-0.3-0.6-0.4-0.9c0-3-0.3-6,0.9-8.9c2.6-4.1,2.1-8.7,2.1-13.3c0-1.3,0-2.6,0-3.8
			c2.3-5.6,0.3-11.5,1.3-17.2c2.2-0.5,2.3-0.5,2.8,1.5c0.3,1.2,0.9,0.2,1.3,0.3c1.8,0.3,4.5,5.3,3.5,5.7c-2.8,1.1-1.7,3.4-1.8,5.1
			c-0.2,3.8-0.3,7.4-1.5,11.2c-1.3,4-0.8,8.5,0.4,12.7c2-4.9,0.5-10,2.6-15c2.7-6.6,2.5-14,2.6-21c0.1-3.8-1.9-8.2-2-12.4
			c-0.1-3.1-1.9-2.7-4.1-2.6c-3.6,0.3-2.3,3.6-1.8,4.3c2.3,2.9,0.5,4.1-1.6,5.4c-0.4-0.8-0.4-1.8-1.5-2c0.5-4.2,0.8-8.4-5.1-9
			c-0.6-0.7-0.4-1.4,0.1-2c1-0.1,1.9-0.4,1.8-1.7c-0.1-1-0.9-1.2-1.7-1.3c1.5-4.8,3-9.6,4.5-14.4c0.1,0.1,0.2,0.3,0.3,0.4
			s0.3,0.1,0.4,0.2c1.5-3.6,4.1-7,1.5-11.2c0.6-3.3-0.1-7,2.8-9.6c0.4,0.8,0.9,1.6,1.3,2.4c-0.7,3.9,0.1,7.7,0.7,11.5
			c-0.5,1.9-1.1,3.7-1.6,5.6c-2.2,0.2-3.3,1.5-3.2,3.7c0.2,4-0.2,7.8-2.1,12.2c1.7-0.6,2.5-1.2,3.4-1.3c4.2-0.5,4.8-2.4,2.6-5.8
			c-1.1-1.7-2.5-3.5-0.6-5.6c0.8,0.3,1.4,2.2,2.2,1.3c1.1-1.4,2-3.4,0.6-5.3c0.8-1.2,1.1-2.6,1.1-4c1.5,3.1,6.2,5.7,1.5,9.9
			c-0.8,0.7,1.2,1.2,1.4,2.2c-4,1.3-4.2,5.2-0.5,9.3c1.5-2.7-2.2-5.7,0.5-8.3c4,5.7,5.7,11.9,5.5,19c-0.1,3.4,2.3,1.1,3.5,0
			c1.4,1.1,1.1,2.7,0.7,4c-1.2,4-0.8,8,0.2,11.9c-3.2,1.2-4.4,4.2-3.6,6.8c1.4,4.6,1.7,9.2,2.1,13.9c0.5,5.5-0.1,10.8-0.7,16.1
			c-0.5,5.3,3.8,10.4,0.4,15.7c-0.8,1.3,1.2,2.1,1.7,3.1c2.3,4.5,10.1,2.1,10.5,8.9c0.6-3.3,3.2-6.2,0.3-9.4
			c-3.1-3.4-1.2-10.6,3.2-10.8c3.2-0.1,4.9-1.9,7.1-3.2c0.3,6.9,0.6,13.8,1,20.7c0.3,5-1.3,9.7-2.9,14.3
			C52.1,230.2,52.4,232.6,52.5,234.9z"/>
		<path class="st1" d="M59,384.8c1.4,0,2.8,0,4.3,0c0-0.6-0.1-1.2-0.1-1.8C61.4,382.8,60.2,383.9,59,384.8z"/>
		<path class="st1" d="M65.2,346.9c-1.7-1.3-3.6-1.2-5.7,0.6c-2.3,2.1-4.2,1.7-5.3-2c-0.9-3.3-3.5-6.1-3.8-9.7
			c-2.8-0.8-3.4-3.2-4.3-5.5c-2.4-6.1-5.1-12-7.4-18.2c-1-2.7-2.9-3.3-5.4-3.3c0,7.5,1.7,14.9,1.1,22.4c-0.2,2.8-0.5,4.9-3.1,7.1
			c-3.2,2.7-2.8,7.4-2.8,11.5c2.6-0.1,5.3,0.3,7.8-0.7c1,1.2-1,3.3,1,3.9c1.3,0.4,2.6-0.8,3.4-1.8c1.9-2.4,3.9-1.4,5.9-0.4
			c4.7-0.3,5,4.5,7.5,6.7c0.9,0.8-1.1,3.4-3.6,3.2c0.1-1.9-0.9-1.6-2-1c-1.5,0.5-3,1.7-4.5,0.3c-0.6-0.6-0.4-1.5,0-2.3
			c1.5-2.9,2.9,1.2,4.3,0c0.4-2.3,0-4.5-1.8-6.2c-5,2.2-3.8,8.1-7.2,12.3c-0.4-3.6-3.9-4.4-4.2-7.6c-0.1-1-1.4-1.8-2.2-0.8
			c-0.9,1-2.6,2-1.8,3.7c0.5,1,1,1.9,1.4,3c1.4,3.7-0.7,7.2-0.3,10.9c0,0.3,0,0.7,0,1s0.1,0.7,0.1,1c0,2.8,1,5.6,2.1,8.4
			c0.4,0.3,0.8,0.6,1.1,1c0.3,0.2,0.7,0.3,1,0.5c0.7,0.1,1.3,0.3,1.9,0.5c5.9-0.5,11.8-0.8,17.6-0.9c-1.3-1.4,1.6-1.6,2.5-2.4
			c-6.6-2.7-6.5-9.3-8.6-14.5c-0.6-1.4,1.5-2.2,2.8-3c5-3.3,9.6-7,12.2-12.5C65.8,350.8,67.2,348.5,65.2,346.9z M48.9,347.2
			c-0.1,0.5-2.1,1.2-2.5,0.9c-2.1-1.7-0.3-4.1-0.7-6.2C46.6,343.8,49.6,344.5,48.9,347.2z M50.2,362.8c-0.2-0.1-0.5-0.2-0.6-0.3
			c-0.1-0.7,0.2-1.2,0.8-1.6C50.3,361.5,50.3,362.2,50.2,362.8z"/>
		<path class="st0" d="M95.4,9.9c6.6-4.3,8.4-4,11.8,2.7c4.1,8.2,8.2,16.4,14.4,23.2c5.4,5.9,6.2,13.8,9.4,20.7
			c2.3,5.1,6.4,8.7,9.1,13.3c2.5,4.1,4.4,8.2,4.3,12.9c-0.3,8.8,1.2,17.6,1.3,26.4c0,3.8,2.6,7,1.9,11c-0.2,1.5,2.2,0.4,3.2,1.4
			c5.9,5.9,9.9,18.4,6.4,26.1c-0.9,1.8-0.6,3.5-0.6,5.3c-2.1,0-2.2,1.5-2.4,3c-1.3-0.1-1.8,0.8-1.9,1.9c-0.7,0.7-1.3,1.4-2,2
			c-2,0-3.8-0.5-5.6-1.8c1.1-2.1,3.9-3.1,4.1-5.9c-2.5-0.3-3.6,1.2-4.4,2.8c-1.2,2.5-2.9,1.3-4.7,1c-1.6-0.2-2.5-0.9-2.9-2.3
			c-0.7-2.6,3-0.9,3-3c-4.3-4-4.6-5.6-2.2-12.1c0.4-1.1-0.2-1.5-0.8-2c-1.2-0.9-1.5-2-1-3.5c2-6.9-0.9-13.6-1.6-20.2
			c-0.5-4.8,0.9-10.6-2.7-15c-0.2-0.3,0-1-0.1-1.5c-0.6-4.4-1.2-8.8-1.7-13.2c-0.4-3-0.9-5.7,3.2-7c2-0.6,4-2.5,3.4-5.8
			c-0.6-3.4-3-1.7-4.5-2.2c-3-0.9-4.7,0.8-5.3,3.6c-0.2,1.1-0.6,1.9-1.8,2c-1.4-2.7-2.7-5.4-4.1-8c-3.6-7.3-3-15.6-6-23.1
			c-0.4-1-1.5-2.5-0.4-3.2c2.4-1.4,2.9-3.2,1.7-5.3c-1-1.8-2.7-4.4-4.2-4.5c-5.2-0.3-3.2-2.5-2.1-5.1c1.3-3-4.3-10.4-7.9-10.8
			C102.2,8.4,98.5,9.7,95.4,9.9z M144.2,96.5c-1.1-1.2-2.5-2.3-2.3-2.8c1.4-3.9-1.7-7.8-0.1-11.6c0.3-0.8,0.5-1.7-0.6-1.9
			c-0.4-0.1-1.3,0.3-1.3,0.4c0.1,2.4-4.5,3.8-1.1,6.9c1.4,1.2,1,3.6,0.5,5.2C138,97.2,140.3,97.3,144.2,96.5z"/>
		<path class="st1" d="M155,383.5c0.1-0.6,0.2-1.1,0.4-1.7c0-2.1-0.1-4.3-0.1-6.4c0.3-17.6,3.6-35,5.6-52.4c1-9.2,1.5-18.6,3.1-27.6
			c3.1-17.1,5.9-34.1,5.4-51.6c-2.3,0.3-1.5-3.3-3.8-3.1c0.1,2.3-1.3,4.1-2.1,6.2c1.7,3.1,0.6,6.5-1.3,8.2c-2.6,2.3-3,5.9-5.8,7.9
			c-2.7,2,0.8,3.6,0.9,5.6c0.2,5.1-2.3,9.4-3,14.1c-1.5,9.6-3.8,19.2-3.7,28.7c0,4.2-1.3,9.6,2.3,13.7c0.6,0.6,0.7,2.1,0.1,2.3
			c-4.3,1.3-2.7,6.9-6.4,8.6c0,0.6,0,1.3,0,1.9c5.3-1.1,5.7-0.7,5,4.5c-0.6,4.6-1.1,9.1-1.7,13.7c-0.3,2.7,0.5,4.6,3.4,5.3
			c1.2,0.3,0.6,1.2,0.5,2c-0.8,3.2-1.5,6.4-2.3,9.6c0,1,0,2,0,3c2,2.4,0.6,5.2,1,7.8c0.8,0,1.6,0.1,2.3,0.1
			C154.9,383.7,154.9,383.6,155,383.5z M167.3,254.8c0.2-0.7,0.4-1.4,0.6-2.1c0.1,0.1,0.3,0.2,0.4,0.3c0.3,0.8,0,1.5-0.7,2
			c0.3,7.7-0.8,15.2-4,22.3C164.9,269.8,160.6,261.4,167.3,254.8z"/>
		<path class="st2" d="M101.7,13.8c3.6,0.4,9.2,7.8,7.9,10.8c-1.1,2.6-3.1,4.8,2.1,5.1c1.5,0.1,3.2,2.7,4.2,4.5
			c1.2,2.1,0.7,3.9-1.7,5.3c-1.1,0.6,0,2.2,0.4,3.2c2.9,7.5,2.4,15.8,6,23.1c-1.5-0.3-3.2-1.7-4.5-0.1c-0.7,0.9-1,3.4-0.8,3.5
			c3.3,1.4,0.2,3.1,0.3,4.5c-1.3,1-2.2,0.6-3.7-0.3c-2.4-1.5-0.9-4.2-2.7-5.6c-0.1-0.7-0.2-1.3-0.2-2c0.3-1.1,1.1-2.5,0.7-3.3
			c-2.1-5.1-4.7-10-5.7-15.6c-0.3-1.5-2.6-3.4-5.2-1.4c-1.8,1.4-3.2,2.8-4.1,4.8c-0.5,1.2-1.1,2.6-2.9,2.1
			c-5.1-1.6-9.5,0.9-14.2,2.3c0.9-4.7,3.2-8.4,7.4-11.1c1.2-0.8,4.1-1.1,2.8-3.1c-1.2-1.9-2.3,0.8-3.5,1.4c-1.2,0.6-2.4,1.1-3.8,0.9
			l0,0c-0.1-0.3-0.1-0.6-0.2-1c-2.9,2.9-7.3,2.5-10.5,4.9c-4.3,3.2-7.5,7.4-11.4,11c-0.7-3,1.2-5.3,1.9-7.8c3.9-1.4,6.6-3.8,6.1-8.4
			c6.1-3.5,13.3-4.3,19.4-8c1.1-0.7,2.4-1.3,3.7-0.4c3.7,3.1-1.9,6.6,0.5,9.8c6.5-1.7,2.9-6.5,3.1-10.1C90,27.3,89.3,21.2,91.6,15
			c1.6,4.6,3.2,9.3,4.8,13.9c0.6,1.4,1,3,2.9,3.1c0.4,0.7,0.7,1.3,1.1,2c0.5,6.1,6.6,4.6,9.6,7.7c0.8-3.1,0.7-5.5-0.5-7.8
			c0.4-0.4,1.2-0.6,0.3-1.3c-0.1,0.4-0.2,0.8-0.4,1.3c-1.6-0.4-1.7-2.1-2.8-2.9C105.1,25.2,102,19.9,101.7,13.8z"/>
		<path class="st3" d="M33.3,308.9c-1-3.3-2.1-6.6-3.1-10c-3.6-4.6-4.6-11.4-11.6-14.2c0.6,5.1,5.7,7.8,4.3,13
			c-2.5-1.2-2.5-3.3-3.5-4.8c-2.5-3.6-9.2-5.7-4.6-12.1c0.3-0.4,0.2-1.3,0-1.9c-2.6-5.7-7-10.3-8.4-16.6c-1.6,6.7-1.6,6.7-4.8,7.5
			c-0.3,1.2,0.2,2.2,0.8,3.1C5.2,274.8,8,282,7.2,285c0.5,1,0.9,1.9,1.4,2.9c2,0.7,3.5,1.6,1.8,4c0.7,2.4,1.4,4.8,2.1,7.1
			c4.6,15,10.9,29.5,13.3,45.1c0.4,1,0.7,2.1,1,3.2c0.7,1.7,1.3,3.5,1.6,5.4c0.2-0.8-0.1-1.9,0.1-2.7c0-4.1-0.4-8.8,2.8-11.5
			c2.6-2.2,2.9-4.3,3.1-7.1C35,323.8,33.3,316.4,33.3,308.9z M31.3,319.8c-2.5-3.8-4.6-6.9-3.2-10.9
			C28.9,312.3,31.7,315.1,31.3,319.8z"/>
		<path class="st2" d="M26.4,117.9c-0.2-1-2.2-1.4-1.4-2.2c4.7-4.2,0-6.8-1.5-9.9c-0.1-0.7-0.1-1.3-0.2-2c7.3-1.8,1.9-5.9,2-10
			c-1.5,1.8-2.2,3.2-3.7,3.7c-0.2-1.4,0.3-3-1.1-4c-0.4-0.8-0.9-1.6-1.3-2.4c-1.8-2.5-0.2-5.1,0.1-7.6c0.6-5.3,1.2-10.5,1.9-15.8
			c0.2-2,0.4-4.1,3.2-4c-0.4,2.2-1.5,4.6,2,5.3c1.8,2.3-0.8,5.7,2,7.7c-1.4,2.3-5.1,3.3-4.1,7c-1,2.2-4.3,4.3,0.2,6.3
			c0.8,0.8,1.7,1.2,2.4,0.2c0.5-0.7,0.1-1.5-0.6-2.1l-0.1-0.3c3.1,0.4,5.9,1.2,7.1,4.5c0.3,0.7,0.6,1.1,1.4,1
			c2.2-0.3,9.3-9.6,9.4-12c0.1-2.8-1.2-6.5,3.4-7.3c-1,3.5-3.6,7.8,3.3,8c-0.3,0.9-0.5,1.8-0.8,2.8c-3.5-0.2-2.7,3.6-4.6,4.9
			c-1.7,1.2-1.1,3-1.2,4.6c0,1.6,0,3.2-1.6,3.9c-5.3,2.4-3.8,6.8-3.1,10.8c0.3,1.7,0.7,3.2-0.2,4.8c-1.7,3-2.2,5.5,0.4,8.8
			c2.4,3.1-0.6,6-6.8,6.5c1.3,2.8,2.9,5.5,2.3,8.7c-1.3,1.1-3.6,3.4-3.5,0c0.2-7.1-1.5-13.3-5.5-19
			C26.5,118.5,26.5,118.2,26.4,117.9z"/>
		<path class="st0" d="M61.8,1.8c2.4-2.5,4-2.5,6.5,0.1c4.2,4.5,5.9,9.9,4.5,15.9c-1.8,8.1-4.6,15.8-9,22.9
			c-4.6,0.7-7.3,4.2-10.4,7.1c-3.8,1.2-5.2,6.5-10,6.2c-1.2-2.6,0-4.6,1.5-6.6c2.1-2,2.2-4.7,2.7-7.3c2.8-4.1,5.4-8.4,8.3-12.4
			c1.8-2.5,2.2-5.1,1.4-7.9c0.7,0.2,1.6,0.9,1.9-0.4c0.8-3.9,2.7-7.3,4.5-10.7c0.6-1.2,0.7-2.2-0.7-2.9C62.9,4.5,65.6,2,61.8,1.8z"
			/>
		<path class="st2" d="M28.9,356.5c0,0.3,0,0.5,0,0.8c0.2,0.8,0.4,1.6,0.5,2.4c0.4,1.7,0.7,3.5,0.8,5.4c0,0.2,0,0.4,0,0.6
			c0.8,1.8,1.3,3.7,1.4,5.7c0.3,1,0.5,2,0.6,3c0.1-0.4,0.1-0.7,0-1c-0.4-3.7,1.6-7.2,0.3-10.9c-0.4-1.1-0.9-2-1.4-3
			c-0.9-1.7,0.9-2.7,1.8-3.7s2.1-0.1,2.2,0.8c0.3,3.2,3.9,4,4.2,7.6c3.4-4.2,2.2-10.1,7.2-12.3c0-0.3,0-0.6,0-0.9
			c-2-1-4-1.9-5.9,0.4c-0.8,1-2.1,2.2-3.4,1.8c-1.9-0.6,0.1-2.6-1-3.9c-2.5,1-5.2,0.6-7.8,0.7c-0.2,0.8,0.1,1.9-0.1,2.7
			C28.7,353.9,28.8,355.2,28.9,356.5z"/>
		<path class="st2" d="M14.4,163.9c0,1.3,0,2.6,0,3.8c-2.1,4.2-4,8.5-2.1,13.3c-1.2,2.9-0.9,5.9-0.9,8.9c-1.8,0.1-2,1.4-1.9,2.8
			c0.4,5.4-0.8,10.7-1.2,16c-0.6,0-1.1,0-1.7,0c1.4-12.5,2.3-25.1,3-37.6c0.7-11.5,3-23.3,0.2-35c-0.4-1.7-0.3-3.6-0.5-5.4
			c5.9,0.6,5.6,4.8,5.1,9c-0.3,5-0.3,9.9-0.8,14.9C13.3,157.8,12.4,161.1,14.4,163.9z"/>
		<path class="st3" d="M96.4,28.8c-1.6-4.6-3.2-9.3-4.8-13.9c1.3-1.7,1.6-4.1,3.8-5.1c3-0.2,6.7-1.5,6.3,3.9
			c0.3,6.1,3.4,11.4,5,17.1c-2.6-0.1-6.4-2.7-6.3,3c-0.4-0.7-0.7-1.3-1.1-2C99.7,29.7,98.7,28.7,96.4,28.8z"/>
		<path class="st3" d="M26.4,69.1c-3.5-0.7-2.3-3.2-2-5.3c1.1-1.3,2.2-2.6,3.2-3.9c3.1-2.2,6.6-2.6,10.2-2c0.6,0.2,1.1,0.3,1.7,0.5
			c2.5,2.4,2.8-0.5,3.8-1.6h-0.1c0.4,0.1,0.9,0.1,1.3,0.2c1.6,2.3,3.2-2.6,4.8,0c-1.1,2.9-1.8,6.1-5.5,7c-1.5-1.9-2.9-0.2-4.3,0
			c-3.6,0.4-3.3,4.8-6.2,5.9c-1,0.3-1.9,0.7-2.9,1C29.4,69.6,29.2,66.4,26.4,69.1z"/>
		<path class="st3" d="M154.3,155.9c0.2-1.5,0.2-3.1,2.4-3c2.7-0.2,1.8,1.7,1.7,3.1c-1.1,0.6-0.7,1.8-1,2.7
			c1.2,7.5,2.6,15.1,3.6,22.6c1,8.2,1.7,16.4,2.5,24.6c-1.3,0.1-2.6,0.1-3.8,0.2c-0.9-6.9-0.2-13.9-1.2-20.8
			c-1.3-9-1.5-18.1-2.2-27.2C156.1,156.7,155.9,155.7,154.3,155.9z"/>
		<path class="st3" d="M57.5,19.9c0.8,2.9,0.4,5.4-1.4,7.9c-2.9,4-5.6,8.2-8.3,12.4c-2-0.8-3.4-2.1-4-4.2c4.4-4.3,5.3-10.9,9.8-15.1
			C54.7,20,56,19.8,57.5,19.9z"/>
		<path class="st2" d="M57.5,19.9c-1.4-0.1-2.8,0.2-3.9,1c0.3-5.3,3-10,4.5-14.9c0-0.1,0.9,0,1.4,0c1,2.4,1,2.4,3.8-0.1
			c1.3,0.7,1.3,1.7,0.7,2.9c-1.8,3.5-3.7,6.9-4.5,10.7C59.1,20.8,58.2,20.1,57.5,19.9z"/>
		<path class="st3" d="M53.4,47.9c3.1-2.9,5.8-6.4,10.4-7.1c0.9,0.1,2-0.4,2.6,0.8c0.5,4.6-2.2,7-6.1,8.4c-1.2,0-2.5-0.3-3.3,1
			C56.9,48.8,52.6,51.3,53.4,47.9z"/>
		<path class="st3" d="M8.3,208.8c0.4-5.3,1.7-10.6,1.2-16c-0.1-1.4,0.1-2.7,1.9-2.8c0.1,0.3,0.4,0.6,0.4,0.9
			c0.1,10-1,19.9-4.2,29.5c-0.4,1.3-1.5,1.7-2.8,1.6c-0.2-2.6,2.3-4.5,1.7-7.2C10,213.6,7.8,210.8,8.3,208.8z"/>
		<path class="st4" d="M159.6,206c1.3-0.1,2.6-0.1,3.8-0.2c0,0.3,0,0.7,0,1c-2.5,3.9-0.6,7.5,1.1,11v-0.1c-0.9,0.7-0.5,1.5,0,2.2
			c2.4,2.3,2,5.4,2.7,8.3c-2.2,0.3-2.4-2.9-4.7-2.4c-1.4-2.2,0.1-4.8-1.1-7c-0.1-2.9,1.1-6-1.8-8.2l0.1,0.1
			c-0.1-0.6-0.2-1.3-0.3-1.9C159.4,207.9,159.5,207,159.6,206z"/>
		<path class="st3" d="M162.4,225.9c2.2-0.5,2.5,2.8,4.7,2.4c0.6,5.2,3.6,10.1,2.2,15.6c-2.3,0.3-1.5-3.3-3.8-3.1
			c-1.5-3.5-1.1-7.2-1.5-10.8C164.1,228.4,161.7,227.7,162.4,225.9z"/>
		<path class="st3" d="M45,47.5c-1.5,1.9-2.8,4-1.5,6.6v-0.2c-1.8,0-3.6-0.4-5.1,0.9c-1.2-1.2-3.4-1.8-3-4.2
			c0.3-0.3,0.6-0.5,0.8-0.8c1.3-0.2,2.7-0.2,1.1-2c0.7-1.7,1.4-3.3,2.1-5c2,0,3.7,0.5,3.4,2.8C42.6,47.7,43.5,47.8,45,47.5z"/>
		<path class="st1" d="M45,47.5c-1.5,0.3-2.4,0.2-2.1-1.9c0.3-2.3-1.4-2.9-3.4-2.8c0.8-2.7,1.2-5.6,4.2-6.8c0.6,2.1,2,3.4,4,4.2
			C47.2,42.8,47.1,45.5,45,47.5z"/>
		<path class="st1" d="M35.4,50.6c-0.3,2.4,1.8,3,3,4.2c0,0.7,0,1.4,0.1,2c-0.2,0.3-0.4,0.7-0.6,1c-3.6-0.5-7.1-0.2-10.2,2
			C29.1,55.9,32.9,53.8,35.4,50.6z"/>
		<path class="st0" d="M93.1,33.1c-0.2,3.6,3.4,8.4-3.1,10.1c-2.4-3.2,3.2-6.8-0.5-9.8C90.7,33.8,92,34.2,93.1,33.1z"/>
		<path class="st1" d="M2.5,272.9C5.2,274.8,8,282,7.2,285C5.3,281.1,3.1,277.3,2.5,272.9z"/>
		<path class="st2" d="M16.4,100.9c2.6,4.2,0,7.6-1.5,11.2c-0.1-0.1-0.3-0.1-0.4-0.2c-0.1-0.1-0.2-0.2-0.3-0.4
			C14.9,107.9,15.6,104.4,16.4,100.9z"/>
		<path class="st3" d="M63.3,5.9c-2.8,2.5-2.8,2.5-3.8,0.1c0.2-1.7,1.5-2.8,2.4-4.1C65.6,2,62.9,4.5,63.3,5.9z"/>
		<path class="st1" d="M164.5,217.9c-1.6-3.6-3.5-7.1-1.1-11C164.6,210.5,164.7,214.2,164.5,217.9z"/>
		<path class="st1" d="M8.3,208.8c-0.5,2,1.7,4.8-1.7,6c-0.6-2-0.4-4,0-6C7.2,208.8,7.7,208.8,8.3,208.8z"/>
		<path class="st1" d="M8.6,287.9c2,0.7,3.5,1.6,1.8,4C9.8,290.6,9.2,289.3,8.6,287.9z"/>
		<path class="st2" d="M9.6,125.9c0.8,0.1,1.6,0.3,1.7,1.3c0.1,1.3-0.8,1.6-1.8,1.7C9.5,127.9,9.5,126.9,9.6,125.9z"/>
		<path class="st1" d="M37.3,47.8c1.6,1.8,0.1,1.8-1.1,2C36.5,49.1,36.4,48.2,37.3,47.8z"/>
		<path class="st3" d="M1.1,265.8c1.2,0.5,1.6,1.2,0.3,2.1C0.8,267.3,0.7,266.6,1.1,265.8z"/>
		<path class="st1" d="M157.4,158.6c0.3-0.9-0.1-2.1,1-2.7C158.4,156.9,159.5,158.4,157.4,158.6z"/>
		<path class="st1" d="M164.4,220c-0.4-0.8-0.9-1.5,0-2.2C165.5,218.6,165.8,219.3,164.4,220z"/>
		<path class="st2" d="M98.1,385.5c0.5-1.8-0.2-4-2.1-6.9c-0.2,4.1-0.4,5.7-1.7,6.8C95.6,385.4,96.9,385.5,98.1,385.5z"/>
		<path class="st2" d="M28.1,275.5c2.1,0.3,3.8,2.9,3.9,5.4c0.2,3.5,0.2,7,0.8,10.6c0.4,2.2-1.7,4.9-2.7,7.4c1,3.3,2.1,6.6,3.1,10
			c2.5,0,4.4,0.6,5.4,3.3c2.3,6.1,5,12.1,7.4,18.2c0.9,2.3,1.5,4.7,4.3,5.5c0.3,3.6,2.9,6.4,3.8,9.7c1,3.7,3,4.1,5.3,2
			c2-1.8,3.9-2,5.7-0.6c2,1.6,0.6,3.8-0.2,5.5c-2.7,5.5-7.3,9.2-12.2,12.5c-1.3,0.8-3.4,1.7-2.8,3c2.1,5.2,2,11.9,8.6,14.5
			c-0.8,0.8-3.8,1.1-2.5,2.4c1,0,2,0,3,0c1.2-1,2.4-2,4.1-1.8c0.3-0.6,0.5-1.4,1-1.6c0.7-0.3,1.1,0.5,1.1,1.2
			c0.1,0.8,0.1,1.6-0.1,2.2c6.6,0,13.1,0.2,19.7,0.4c-0.9-1.4-2-2.8-1.2-4.5c0.9-1.8,3.4-3.4,4.6-3.1c2.9,0.8,3.2-1.8,3.3-2.6
			c0.3-1.5-1.6-2-2.8-1.9c-1.6,0.2-3.2,0.6-4.4,1.9c-0.9,0.9-0.8,3.4-3,2.2c-1.7-1-1.4-2.5-1.2-4.3c0.3-2.5,1.9-5.8-2.2-7.1
			c-0.4,2.4-1.2,4.4-3.5,6s-4,4-6,6.1c-2-0.4-4.8,2.1-6-0.6c-1.1-2.6-2.7-6.1,1.1-8.4c0.7-3.2,1.8-6,6-5c2.6,0.1,3.2-3.7,6.1-3.2
			c0.1-2.4,1.3-5-3.1-5.3c-1.8-0.1-3.1-2.6-3-5.1c0.1-2.8-0.8-5-3.4-7.1c-4.6-3.9-8.9-8.5-10.3-14.8c-2.7-11.7-8.8-21.7-15.5-31.4
			c-0.5-0.8-0.6-1.9-0.7-2.8c-0.8-4.8-1.7-9.7-0.2-14.5c1.1-3.5-2.3-5.6-2.9-8.7c-0.4-1.9-3.7-3.2-6.8-5.6c5.8-0.4,9.4-4.8,14.7-2.7
			c2.2,0.8,4.3-1.1,4.9-3.2c0.8-2.8,2.6-5.9,0.3-8.8c-0.2-0.3-1.3,0.1-1.9,0.2c-0.6,1.6,0.5,5-1.4,4.7c-5.4-0.9-8.6,5.2-14,3.7
			c-1.2-0.3-2.1,0.6-1.7,1.7c1.4,3.7-1.8,3.2-3.5,3.8c-2.5,1-5-0.8-8.2-1.2C21.3,268.7,21.1,274.5,28.1,275.5z"/>
		<path class="st1" d="M59.4,146.8c0.6-1,1.2-2,1.8-3c0.8,0.1,1.6,0.3,2.4,0.4c0.8,3.1,3.3,1.6,4.9,1.4c3.7-0.4,6.8-2.5,9.8-4.5
			c2.7-1.8,3.1-0.6,3,1.8c0,1.3,0.6,1.9,1.9,2c0.1,1.6,0.1,3.3,0.2,4.9c-0.2,3.4,0.4,6.4,3.9,8.1c1.3,1,0.9,2.6,1.1,3.9
			c-2,8.2,5.8,13.7,6,21.3c0,0.3,1.1,0.5,1.7,0.8l0.1,0.1c2,4.2,5.6,6.2,10.1,6.8c0.3,0,0.6,0,0.9,0.1c0,1.4,0.7,2.4,2.1,2.9
			c3,3.2,6.6,5.7,11,5.5c3.9-0.2,3.3,1.7,2.7,3.8c-0.4,1.4-1.3,2.7-1.9,4c-0.5,1-2.1,1.8-1.3,3c0.8,1.3,2.4,0.7,3.7,0.5
			c1-0.2,1.9-0.5,2.9-0.8l0,0c0,0.7,0,1.4,0,2c-1.3,0.6-2.3,1.6-1.8,3c0.4,1.1,1.2,0.7,1.8-0.2c0.7,0,1.4,0,2.1,0
			c0.3,2.3-2.9,3.1-2.6,5.5c1.5,0.7,3.4-1.5,4.7,1.3c1.6,3.5,4.6,5.3,8.8,4.4c1.1-0.2,2.6-0.6,3.5,0.9c-4.2,2.4-4.9,4.7-2.4,8l0,0
			c2.9,0.7,4.6,5.6,7.1,4.3c2.8-1.5,4.7,0.1,7-0.2c0,1,0,2,0,3c-0.4,2-1.1,3.8-3.6,2c-1.8-1.4-4.2,0-4.3,0.8
			c-0.1,4.5-2.1,7.5-5.7,9.8c-0.1,0.1-0.1,0.8,0,0.9c3.8,1.1-0.6,5.1,2.3,6.6c0.4,0.2,0,1.2-0.6,1.6c-2.8,2-2.8,2-0.9,4.4
			c-0.9,3.1-5.2-0.5-5.9,3.3c-0.1,0.5-1.2,0-1.3-0.7c-0.5-2.9-3.2-2.6-5.1-3.6c-0.1-3.1-4.1-3.9-4.1-7c0.9,0.4,1.9,0.6,2.7,1.1
			c1,0.7,2.3,1.3,3.2,0.6c1.2-1,0.3-2.5,0-3.6c-0.3-1-1.3-1.8-2.1-2.6c-3.2-3.4-7.1-1-10.7-1.4l0,0c-2.5-3.4-3.7-8.3-8-9.7
			c-3.2-1.1-4.3-3.2-4.6-5.6c-0.2-1.7-1.2-2.9-1.5-4.4c-1.4-6.3-4.7-12-5.1-18.8c-0.4-6.2-3.2-12.3-9.7-15.5
			c-0.1-0.6-0.1-1.3-0.2-1.9c0.2-1.4-0.5-2-1.9-2.1l0,0c-0.3-1.8-0.7-3.6-2.8-4.1c-0.4-0.7-0.7-1.4-1.1-2c0-7.9-7.6-11.3-10.3-17.6
			c-0.1-0.2-1.2-0.1-1.9-0.1l-0.1-0.1c0.2-1.5-0.6-2-2-1.9c-2.1-2-3-5-5.7-6.4c-0.3-0.1-0.5-0.2-0.8-0.3c0.1,0.3,0.2,0.5,0.3,0.8
			c0.7,9.4-0.6,18.7,1,28.2c-2.2-0.4-1.6-1.8-1.6-2.8c-0.4-8.8,0.4-17.5-0.9-26.3c-0.4-2.4-1-4.4-2.1-6.4c2.3-2.7,3.6-5.3-0.1-8
			C59.4,148.2,59.4,147.5,59.4,146.8z"/>
		<path class="st2" d="M129.4,266.9c1.9,1,4.6,0.7,5.1,3.6c0.1,0.8,1.2,1.2,1.3,0.7c0.7-3.9,5-0.3,5.9-3.3c-1.9-2.4-1.9-2.4,0.9-4.4
			c0.6-0.4,1-1.4,0.6-1.6c-2.9-1.5,1.6-5.5-2.3-6.6c-0.1,0-0.2-0.8,0-0.9c3.6-2.3,5.6-5.3,5.7-9.8c0-0.8,2.4-2.1,4.3-0.8
			c2.5,1.8,3.1,0.1,3.6-2c3-1.2,5.3-1,6.3,2.7c0.4,1.3,1.2,2.4,2.7,2.5c1.7,3.1,0.6,6.5-1.3,8.2c-2.6,2.3-3,5.9-5.8,7.9
			c-2.7,2,0.8,3.6,0.9,5.6c0.2,5.1-2.3,9.4-3,14.1c-1.5,9.6-3.8,19.2-3.7,28.7c0,4.2-1.3,9.6,2.3,13.7c0.6,0.6,0.7,2.1,0.1,2.3
			c-4.3,1.3-2.7,6.9-6.4,8.6c-0.5-0.5-1.4-1-1.4-1.3c0.8-7.9-5.1-1.7-7.2-3.4c-0.1-0.1-1.7,0.9-1.8,1.5c-1,6.4-6.9,8.3-10.7,12.1
			c-0.8,0.8-1.1,1.6-1.2,2.6c-0.3,6.1-4.4,9.8-8.3,13.8c-1.6,1.6-2.7,1.8-3.7-0.4c0.1-0.8,1.4-2.1,0.2-2.4c-1.7-0.3-0.9,1.5-1.2,2.4
			c-2.9-0.7-3.1-2.8-2.7-5.2c2,0.3,4.4,0.6,5.6-0.9c2-2.5,3.4-0.8,5.1,0.1c0.1-0.1,0.4-0.2,0.3-0.3c-0.1-0.2-0.2-0.5-0.3-0.7
			c-1.6-1.5-2.2-4.3-1.6-5.3c3.6-5.6,4.4-12.8,9.8-17.4c1-0.8,1.9-1.8,2.6-2.9c1.7-2.7,1.8-4.9-1.9-6c-1.2-0.3-2.6-0.3-2.7-2.7
			c-0.1-2.9-6.3-4-8.4-1.7c-2.3-1.2-4.2-4.1-7.2-1.1c-0.3,0.3-1.8-0.5-2.7-0.8l-0.2-0.2c1.7-4,4.3-6.6,9.2-6.1
			c2.3,0.2,3.5-2,2.2-3.6c-2.7-3.2-1.8-6.6-1.2-9.9c0.5-2.3,0.4-4.5-0.1-6.8c-0.7-3-0.9-6.2-5.1-6.5c1.4-6.9,3.1-13.8,1.6-21
			c2.2,3,2.9,7.4,7.6,8.1l0,0c0.5,1.1,1,0.5,1.5,0c5.6,6,2.5,12.5,0.7,18.7c-0.9,2.9,0.7,4.5,2.1,5.7c2.1,1.8,2.3-0.9,3.3-2.1
			c4.4-5.8,2.7-11.9,0.3-17.7C128.2,271.7,126.8,269.3,129.4,266.9z M139.5,293.8c3-1.2,8.8-9.3,9.2-11.3c0.2-1.1,1.3-2.4-0.1-3
			c-1.4-0.6-1.8,0.9-2.2,2c-0.7,2.2-2.6,3.3-4.6,3c-1.7-0.2-2.9-1.9-3.4-3.8c-0.6-2.1-0.8-4.3-0.5-6.7c-2.4,0.7-4.5,2.5-4.1,3.7
			c2.2,6.2,0.5,12.2,0.5,18.3c0,2.1,1.6,4.6,1.4,7.6C143,296.6,143,296.6,139.5,293.8z"/>
		<path class="st2" d="M146.6,337.8c5.3-1.1,5.7-0.7,5,4.5c-0.6,4.6-1.1,9.1-1.7,13.7c-0.3,2.7,0.5,4.6,3.4,5.3
			c1.2,0.3,0.6,1.2,0.5,2c-0.8,3.2-1.5,6.4-2.3,9.6c-2.9-2.9-4.9-3.3-7.8,0.7c-2.5,3.5-7.8,3.2-11.5,5.3c-3.8,2-7.5,0.8-11.2,0.7
			c-0.3,0-0.7,0-0.9-0.2c-1-1.1-3.5-2.4-1.6-3.9c3.1-2.5-2.7-9.4,4.8-9.1c3,0.1,4.7-0.9,6.5-3.3c1.8-2.3,2.6-6.4,7.1-5.6
			c1.2,0.2,2-1.6,1.4-2.6c-2.8-4.7,1.3-8.1,3.4-10.2C143.7,342.5,145,340.1,146.6,337.8z"/>
		<path class="st2" d="M57.4,194.9c-2.2,1.4-3.9,3.1-7.1,3.2c-4.4,0.2-6.3,7.4-3.2,10.8c2.9,3.2,0.4,6.1-0.3,9.4
			c-0.4-6.8-8.2-4.4-10.5-8.9c-0.5-1-2.5-1.9-1.7-3.1c3.4-5.3-0.9-10.4-0.4-15.7s1.2-10.6,0.7-16.1c-0.5-4.7-0.8-9.3-2.1-13.9
			c-0.8-2.6,0.5-5.5,3.6-6.8c0.8,0.8,2.3,1.7,2.3,2.5c-0.1,10.5,9,18.1,9.1,28.6c0,3.2,3,2.9,4.8,1.7c4.9-3.4,5.1-0.5,4.9,3.3
			C57.3,191.6,57.4,193.3,57.4,194.9z"/>
		<path class="st1" d="M117.4,317.9c2.1-2.2,8.3-1.1,8.4,1.7c0.1,2.4,1.5,2.3,2.7,2.7c3.7,1.1,3.6,3.3,1.9,6c-0.7,1.1-1.6,2-2.6,2.9
			c-5.4,4.6-6.2,11.8-9.8,17.4c-0.7,1-0.1,3.8,1.6,5.3c0,0.3-0.1,0.7-0.1,1c-1.7-0.9-3-2.6-5.1-0.1c-1.3,1.5-3.6,1.3-5.6,0.9
			c0-0.9-0.1-1.9-0.2-2.8c1.2-1.5-0.6-5.2,3.5-4.7c0.1,0,0.3-0.9,0.5-1.3c2.3-4.2-1.9-4.4-3.7-5.9c-1.8-1.5-3.1-3.3-2.9-5.4
			c0.1-1.8,2.2-1.6,3.7-1.7c5,4.6,6.9,4.5,8.9-1.5c1.1-3.4-0.1-7.4,2.6-10.5c0.5-0.5-0.6-1.5-1.4-1.7
			C118.5,319.8,117.4,319.4,117.4,317.9z M115.1,349c0.5-0.9,0.8-1.3,0.9-1.7c0-0.3-0.3-0.7-0.5-1.1c-0.3,0.3-0.8,0.5-0.9,0.8
			C114.5,347.4,114.8,347.8,115.1,349z"/>
		<path class="st3" d="M63.4,233.9c-6.2,15.7-3.8,31,2.6,46.1c0.6,1.5,1,3.1,1.5,4.7c0.1,1.2-0.4,2.6,1.1,3.3v-0.2
			c-0.2,1.2-0.6,2.2-2.1,2.1c-1.3-1.1-1.6-2.9-2.7-4c-3-3.3-1.1-9.1-6.1-11.2c-4.5-8-3.7-16.7-3.3-25.4c0.1-1.7,0.6-3.2,1.6-4.6
			c1.7-2.4,2.3-4.9,1.3-7.7c3.4-2,4.4-7.5,1.8-10c0.3-2.5,1.4-4.7,3-6.6c1.8,0.8,1.1,2.3,1.3,3.5C63,227.1,61.2,230.4,63.4,233.9z
			 M57.2,266.4c0.1-0.5,0.3-0.9,0.2-1.3c0-0.2-0.4-0.7-0.5-0.7c-0.7,0.3-0.8,0.9-0.5,1.5C56.4,266.1,56.8,266.2,57.2,266.4z"/>
		<path class="st2" d="M109.6,333.9c-1.5,0-3.5-0.1-3.7,1.7c-0.1,2.1,1.1,3.9,2.9,5.4s6,1.7,3.7,5.9c-0.2,0.4-0.4,1.3-0.5,1.3
			c-4.1-0.5-2.3,3.2-3.5,4.7c-2.3-0.4-4,1.1-5.3,1.8c-4.2-8.2-6.2-16.9-6.4-26.3c2.2,0.4,2.7,2.7,4.3,3.7c1.2,0.7,2.5,1.3,3.6,0.3
			c1-0.9,0.7-2.1,0.1-3.2c-3.7-7.8-3.7-7.8,2.4-13.3l0.2,0.2c-0.1,1.7,2.2,3.8,0.1,5c-3.7,2.2-1.3,5.1-0.2,6.5
			C109,329.6,109.2,331.6,109.6,333.9z"/>
		<path class="st2" d="M57.8,274.5c5,2.1,3.1,8,6.1,11.2c1,1.1,1.3,3,2.7,4c1,7.3,7.9,11,10.5,17.4c0.5,1.3,2,0.4,2.6-0.8
			c1.7,2.1,3.9,4,4,7c-1.1,3-1.4,4.2-5.7,2.1c-7.5-3.6-9.4-9.8-11.6-16.4c-1-2.9-2.1-5.9-4-8.3c-3-3.9-1.4-9.2-4.7-12.9
			C57.1,277.3,57.7,275.7,57.8,274.5z"/>
		<path class="st2" d="M71.3,172c0.6,0,1.8-0.2,1.9,0.1c2.7,6.3,10.3,9.7,10.3,17.6c-0.7,0.2-1.3,0.4-2,0.5
			c-2.3-1.3,0.6-5.7-3.8-6.1c0.1,10.2,0.6,20.4-4.6,29.7c-1.2-0.3-2.4-0.5-3.6-0.8c-0.2-3.7,4-5.3,4.2-9.2c0.1-2.3,0.8-4.3-0.9-6.4
			c-1.3-1.6-1.3-3.3,0.8-4.5c1.5,0.6-0.6,2.7,1.9,3.3c-1.6-3.3,3-8.4-4-9.2c-0.2-2.5-0.4-4.8,1.2-7.2C74.7,177,70.2,174.9,71.3,172z
			"/>
		<path class="st3" d="M69.4,363.9c2.6,0.1,3.2-3.7,6.1-3.2c1,0.9,1,2.2,1.1,3.4c-0.2,0.1-0.4,0.2-0.7,0.3c0.2,0,0.4,0,0.7,0.1
			c0.4,0.5,0.9,0.9,1.3,1.4c-0.4,2.5-1.2,4.4-3.5,6s-4,4-6,6.1C67.8,373.2,68.5,368.5,69.4,363.9z"/>
		<path class="st1" d="M69.6,213c1.2,0.3,2.4,0.5,3.6,0.8c-3.1,6.7-5.7,13.7-9.7,20c-2.2-3.4-0.4-6.8,0.2-10.1c0.7,0,1.6,0,1.6-0.7
			C64.9,218.9,67.4,216,69.6,213z"/>
		<path class="st2" d="M49.6,247c-2-4.4-0.6-8,2.8-11.1c0.9,0.1,2.8,0,2.5,0.9C53.7,240.4,55.2,245.6,49.6,247z"/>
		<path class="st2" d="M148.3,386.9c1.4-1.1,2.8-2.2,4.2-3.2c-0.4-2.6,1-5.4-1-7.8c-4.4,5-5.3,7.2-4.1,11.2
			C147.7,387,148,387,148.3,386.9z"/>
		<path class="st3" d="M63.8,215.5c0-5.9,0-11.7,0-17.6c2.2,5.7,1.5,11.6,1.5,17.5C64.7,215.4,64.3,215.4,63.8,215.5z"/>
		<path class="st1" d="M50.1,84.8c0.5,3.4,0.9,6.8-0.9,10c-2.9-0.5-2.2-3.6-3.7-5.1C47.4,88.4,46.6,84.6,50.1,84.8z"/>
		<path class="st1" d="M59.2,226.9c2.6,2.5,1.6,8-1.8,10C57.2,233.4,57.1,230,59.2,226.9z"/>
		<path class="st1" d="M71.6,187c7,0.8,2.4,6,4,9.2c-2.5-0.6-0.4-2.7-1.9-3.3C74,190.6,72.1,189,71.6,187z"/>
		<path class="st3" d="M59.4,148.9c3.7,2.6,2.3,5.3,0.1,8C58.6,154.2,57.4,151.5,59.4,148.9z"/>
		<path class="st3" d="M49.9,106.7c0.6,1.1,0.6,2.2,0.2,3.3c-1.3,0-2.5,0-3.8,0C44.8,105.8,48.4,107.3,49.9,106.7z"/>
		<path class="st1" d="M50,115.8c0.5,1.5,0.2,2.9-0.9,4.1C48.6,118.3,45.7,116.2,50,115.8z"/>
		<path class="st1" d="M46.4,109.9c1.3,0,2.5,0,3.8,0c0,1,0,2,0,3C47.7,113.3,47.2,111.5,46.4,109.9z"/>
		<path class="st2" d="M52.5,234.9c-0.1-2.3-0.4-4.7,2.9-5.1C55.1,232,54.5,233.8,52.5,234.9z"/>
		<path class="st2" d="M46.4,102.7c0.1-0.9,0.1-2.6,0.3-2.6c1.2-0.1,0.5,1,0.6,1.5c0.1,0.4-0.2,0.9-0.3,1.3
			C46.9,102.9,46.6,102.8,46.4,102.7z"/>
		<path class="st1" d="M111.4,360.9c0.3-0.9-0.5-2.7,1.2-2.4c1.2,0.3-0.1,1.5-0.2,2.4C112.1,360.9,111.7,360.9,111.4,360.9z"/>
		<path class="st2" d="M69.3,170c1.4-0.1,2.2,0.4,2,1.9C70.1,171.9,69.5,171.2,69.3,170z"/>
		<path class="st2" d="M76.6,364.4c-0.2,0-0.4,0-0.7-0.1c0.2-0.1,0.4-0.2,0.7-0.3C76.6,364.1,76.6,364.4,76.6,364.4z"/>
		<path class="st2" d="M15.9,141.9c2.1-1.3,3.9-2.5,1.6-5.4c-0.5-0.7-1.7-3.9,1.8-4.3c2.2-0.2,3.9-0.6,4.1,2.6
			c0.2,4.3,2.1,8.6,2,12.4c-0.1,7,0.1,14.4-2.6,21c-2.1,5-0.6,10.1-2.6,15c-1.2-4.2-1.7-8.7-0.4-12.7c1.2-3.8,1.3-7.4,1.5-11.2
			c0.1-1.8-1-4,1.8-5.1c1.1-0.4-1.7-5.4-3.5-5.7c-0.4-0.1-1,1-1.3-0.3c-0.5-2.1-0.6-2-2.8-1.5C15.8,145.1,15.9,143.5,15.9,141.9z"/>
		<path class="st3" d="M19.6,113.9c-1.9,2.1-0.5,3.9,0.6,5.6c2.2,3.4,1.6,5.3-2.6,5.8c-0.9,0.1-1.7,0.6-3.4,1.3
			c1.9-4.4,2.3-8.3,2.1-12.2c-0.1-2.1,1-3.4,3.2-3.7C19.6,111.8,19.6,112.8,19.6,113.9z"/>
		<path class="st3" d="M15.9,141.9c-0.1,1.6-0.1,3.2-0.2,4.8c-1,5.7,1,11.6-1.3,17.2c-2-2.9-1.1-6.2-0.8-9.1c0.5-5,0.5-9.9,0.8-14.9
			C15.5,140.2,15.6,141.2,15.9,141.9z"/>
		<path class="st3" d="M20.5,93.6c1.4,1.1,0.9,2.6,1.1,4c1,2,0.2,4.4,1.6,6.2c0.1,0.7,0.1,1.3,0.2,2c0.1,1.5-0.3,2.8-1.1,4
			c-1.8-1.2-0.7-3.2-1.2-4.7C20.6,101.3,19.8,97.5,20.5,93.6z"/>
		<path class="st3" d="M12.3,181.1c-1.9-4.8,0-9.1,2.1-13.3C14.5,172.3,15,176.9,12.3,181.1z"/>
		<path class="st2" d="M21.2,105.1c0.5,1.6-0.6,3.5,1.2,4.7c1.4,2,0.5,3.9-0.6,5.3c-0.7,0.9-1.3-1-2.2-1.3c0-1.1,0-2.1,0-3.2
			C20.1,108.8,20.7,107,21.2,105.1z"/>
		<path class="st3" d="M26.4,117.9c0.1,0.3,0.1,0.6,0,1c-2.6,2.6,1,5.6-0.5,8.3C22.2,123.1,22.4,119.2,26.4,117.9z"/>
		<path class="st3" d="M46.5,351.8c0-0.3,0-0.6,0-0.9c4.7-0.3,5,4.5,7.5,6.7c0.9,0.8-1.1,3.5-3.6,3.2l0,0c0.1-1.9-0.9-1.6-2-1
			c0-0.6-0.1-1.3-0.1-1.9C48.7,355.6,48.3,353.5,46.5,351.8z"/>
		<path class="st2" d="M45.7,341.8c0.9,2,3.9,2.7,3.2,5.4c-0.1,0.5-2.1,1.2-2.5,0.9C44.3,346.3,46.1,344,45.7,341.8z"/>
		<path class="st2" d="M48.3,358c0,0.6,0.1,1.3,0.1,1.9c-1.5,0.5-3,1.7-4.5,0.3c-0.6-0.6-0.4-1.5,0-2.3
			C45.4,355.1,46.8,359.1,48.3,358z"/>
		<path class="st0" d="M65.2,384.8c0.3-0.6,0.2-1.4,0.1-2.2c-0.1-0.7-0.4-1.4-1.1-1.2c-0.5,0.2-0.7,1-1,1.6c0,0.6,0.1,1.2,0.1,1.8
			C63.9,384.8,64.5,384.8,65.2,384.8z"/>
		<path class="st3" d="M50.4,360.9c-0.1,0.6-0.2,1.3-0.2,1.9c-0.2-0.1-0.5-0.2-0.6-0.3C49.5,361.8,49.8,361.2,50.4,360.9L50.4,360.9
			z"/>
		<path class="st2" d="M140.4,234.9c-2.4-3.3-1.7-5.6,2.4-8c-0.8-1.5-2.4-1.1-3.5-0.9c-4.2,0.9-7.1-0.9-8.8-4.4
			c-1.3-2.7-3.2-0.5-4.7-1.3c-0.4-2.4,2.8-3.2,2.6-5.5c2-1.4,3.6-0.6,5.4,0.7c2.8,2.2,6,1.3,8.1-0.7c2.5-2.5,1.6-7.9-0.9-9.7
			c-2.4-1.7-4.7-3.2-2.2-6.7c1.1-1.6,1.2-4.1-1.1-5.8c-1.5-1.1-3.8-2.6-0.2-4.1c0.4-0.2,0.6-1.2,0.6-1.8c-0.2-6.2-0.2-6.2,2.4-9.7
			c0.3-0.4,0-1.3,0-2c0.1-1.3-0.9-1.1-1.7-1.1c-1.7-0.1-2.8,0.6-3.6,2.1c-0.6,1.3-2.4,2.6-3,1.5c-1.8-3.1-5.2-2.9-7.4-4.2
			c-2,1.2,2.1,3.5-0.9,4.5c-1.2,0.4-2.3,0-2.5-1.6c0.8-3.6,0.3-6.1-4.3-5.4c-1.5,0.3-2.8,1.1-2.5,2.9c0.2,1.5,1.7,1.2,2.7,1.3
			c0,0.4,0.1,0.7,0.1,1.1c-1.9,1.5-4,1.2-6,0.3c-0.1-1.3-0.9-2-2-2.4c0.1-3.4,0.1-6.7,1.1-10c1,0,2.1,0,3.1,0
			c1.7,1.4,0.2,3.6,1.1,4.8c3.8-0.4,4.4-2.8,3.5-5.7c-0.9-3-1.2-5.7,0.7-8.5c1.2-1.9,0.5-3.5-2.2-3.6c-1.1-0.1-2.2-0.6-3.3-0.9
			c-0.5-3.3,2.1-5.8,2.1-9c0.2,0,0.5,0,0.7-0.1c1.2,0.9,1.4-0.3,1.6-0.9c2.8-9.4,2-18.7-0.5-28c0-1.6,0-3.3,0-4.9c0-0.4,0-0.8,0-1.2
			c-0.4-3.3,1.1-6.8-1-10c0-0.3,0-0.6,0-0.9c1.2-1,1.4-2,0.1-3c0-2.8-0.7-5.7-0.6-8.4c0.1-2.9-4.2-5.9-0.1-8.8
			c3.2,0.9,1.4,5.2,4.3,6.5c1.6-2.6-2.2-8.4,4.6-7.4c1.2-0.2,1.6-0.9,1.8-2c0.6-2.9,2.3-4.5,5.3-3.6c1.5,0.4,3.9-1.2,4.5,2.2
			c0.6,3.4-1.4,5.2-3.4,5.8c-4.1,1.3-3.6,4-3.2,7c0.6,4.4,1.2,8.8,1.7,13.2c0.1,0.5-0.2,1.2,0.1,1.5c3.6,4.4,2.2,10.2,2.7,15
			c0.7,6.6,3.6,13.3,1.6,20.2c-0.4,1.5-0.2,2.6,1,3.5c0.6,0.5,1.3,0.8,0.8,2c-2.4,6.5-2.1,8.1,2.2,12.1c0.1,2.1-3.7,0.4-3,3
			c0.4,1.4,1.3,2.1,2.9,2.3c1.7,0.2,3.5,1.4,4.7-1c0.8-1.6,1.9-3.1,4.4-2.8c-0.2,2.9-2.9,3.8-4.1,5.9c1.8,1.3,3.6,1.9,5.6,1.8
			c-0.6,1.9-1.9,3.8,0.4,5.9c0.9-2.8,4.5-4.6,1.6-8c0.1-1.1,0.6-2,1.9-1.9c1.6-0.2,1.9,0.8,2,2.1c0.7,9.1,0.9,18.2,2.2,27.2
			c1,7,0.3,13.9,1.2,20.8c-0.1,1-0.2,1.9-0.3,2.9c-0.5,0.3-1.4,0.6-1.4,0.9c0,1.1,1,0.9,1.7,1l-0.1-0.1c-0.1,1.9,0,3.9-0.5,5.8
			c-0.7,2.5,0.9,2.2,2.3,2.4c1.2,2.2-0.4,4.8,1.1,7c-0.7,1.9,1.7,2.5,1.6,4.1c-3.6,0.3-5.5,1.9-4.7,5.9c0.3,1.7-1.3,2-2.7,2
			c-1.5-1.6-2.1-0.7-2.2,0.9l0,0c-2.3,0.4-4.2-1.3-7,0.2C145,240.5,143.3,235.6,140.4,234.9c0.7-0.1,1.6-0.1,1.5-1.2
			c0-0.1-0.2-0.3-0.3-0.3C140.5,233.3,140.5,234.1,140.4,234.9z M145.2,161.3c-1.5-0.3-1.7,0.7-1.7,1.7c0,1.2-0.2,2.5,1.5,2.6
			c1.3,0.1,2.4-0.8,2.6-1.9C148.1,161.9,146.1,162,145.2,161.3z M112.5,171.2c-0.3,0.2-0.6,0.3-0.7,0.5s0.2,0.5,0.3,0.8
			c0.3-0.2,0.6-0.4,1-0.6C112.8,171.6,112.7,171.4,112.5,171.2z"/>
		<path class="st1" d="M124.6,73.8c-6.8-0.9-3.1,4.8-4.6,7.4c-2.9-1.3-1.1-5.5-4.3-6.5c-0.1-0.4-0.1-0.7-0.2-1.1
			c0-1.5,3-3.1-0.3-4.5c-0.2-0.1,0.1-2.6,0.8-3.5c1.3-1.6,3-0.2,4.5,0.1C121.9,68.4,123.2,71.1,124.6,73.8z"/>
		<path class="st2" d="M144.2,96.5c-3.9,0.8-6.2,0.8-4.9-3.8c0.5-1.6,0.8-4-0.5-5.2c-3.4-3.1,1.2-4.6,1.1-6.9c0-0.1,0.9-0.5,1.3-0.4
			c1.1,0.3,1,1.2,0.6,1.9c-1.6,3.9,1.4,7.7,0.1,11.6C141.7,94.2,143.1,95.3,144.2,96.5z"/>
		<path class="st1" d="M152.4,157.8c2.9,3.3-0.7,5.1-1.6,8c-2.3-2.2-1-4-0.4-5.9C151,159.2,151.7,158.5,152.4,157.8z"/>
		<path class="st0" d="M156.7,238c1.4-0.1,3-0.3,2.7-2c-0.8-4,1.1-5.6,4.7-5.9c0.3,3.6,0,7.3,1.5,10.8c0.1,2.3-1.3,4.1-2.1,6.2
			c-1.5-0.1-2.4-1.2-2.7-2.5c-1-3.6-3.3-3.9-6.3-2.7c0-1,0-2,0-3l0,0C155.2,238.6,155.9,238.3,156.7,238z"/>
		<path class="st3" d="M167.5,255c0.3,7.7-0.8,15.2-4,22.3c1.4-7.5-2.9-15.9,3.8-22.5L167.5,255z"/>
		<path class="st3" d="M167.3,254.8c0.2-0.7,0.4-1.4,0.6-2.1c0.1,0.1,0.3,0.2,0.4,0.3c0.3,0.8,0,1.5-0.7,2
			C167.5,255,167.3,254.8,167.3,254.8z"/>
		<path class="st0" d="M115.5,73.7c0.1,0.4,0.1,0.7,0.2,1.1c-4.1,2.9,0.2,5.9,0.1,8.8c-0.1,2.7,0.6,5.6,0.6,8.4c-1.4,1-1.1,2-0.1,3
			c0,0.3,0,0.6,0,0.9c0,1-0.1,2-0.1,3c-3.3-0.6-2.4-3.8-3.4-5.8c-2.1-4.3-4.8-5.4-7.3-2.8c-1.7-0.5,0.1-4-2.9-3.3
			c-0.1-0.7,0.8-1.7-0.4-2c-1.1-0.2-2.3-0.4-2.9,0.9l0,0c-1.9-1.1-3.9-1.2-6-1l0,0c-0.3-1-1.2-1-1.9-1.2c-2-2.3-3.7-1.8-5.2,0.6
			c-6.2-2-12.4-1.5-18.6-0.2c-5.3,1.2-10.5,0.6-15.3-2.3c-0.2-1.9,0.7-3.3,1.9-4.8c1.7-2.1,1.4-4-0.7-5.9c-2.4-2.2-2.9,0.5-4.2,1.3
			c-0.7,0.4-1.2,1-1.9,1.6c-4.6,0.8-3.3,4.4-3.4,7.3c-0.1,2.4-7.1,11.7-9.4,12c-0.8,0.1-1.1-0.3-1.4-1c-1.2-3.3-4.1-4.1-7.1-4.5
			c0.5-1.2,1.2-2.3,2.7-2.2c0.5,0,1,0.1,1.5,0.1c1,0.7,1.9-0.2,2.8-0.2c0.5,1,1.6,1.7,2.3,0.8c2-2.4,4.8-5.3,4.1-8.1
			c-0.8-3.3,1.3-4.4,2.7-5.2c6.6-3.9,10.5-10.3,16-15.2l0,0c3.8-3.6,7.1-7.8,11.4-11c3.2-2.4,7.6-2,10.5-4.9c0.1,0.3,0.1,0.6,0.2,1
			c-0.1,0.1-0.1,0.3-0.2,0.4c0.1-0.1,0.1-0.3,0.2-0.4c1.4,0.1,2.6-0.3,3.8-0.9c1.2-0.6,2.3-3.2,3.5-1.4c1.3,2-1.6,2.3-2.8,3.1
			c-4.1,2.6-6.4,6.4-7.4,11.1c4.7-1.4,9.1-3.9,14.2-2.3c1.7,0.5,2.3-0.9,2.9-2.1c0.9-2,2.3-3.5,4.1-4.8c2.6-2,4.9-0.1,5.2,1.4
			c1,5.6,3.6,10.5,5.7,15.6c0.4,0.9-0.5,2.2-0.7,3.3c-2.9-5.8-5.7-11.5-8.8-17.8c-2.6,5.1-5.6,8.9-10.4,11.1
			c-3-3.4-8.4-3.2-12.2,0.3c4.1,3,8-1.5,12.2-0.3c6.5,2.9,13,5.7,19.4,8.6c1.8,1.4,0.3,4.2,2.7,5.6
			C113.3,74.3,114.2,74.7,115.5,73.7z M64.4,65.5c-3.1,1.6-6.2,3.2-7.8,7.8c3.7-2.1,7.2-2.5,8.1-6.3c1.4-0.1,2.3-1.2,3.3-2.1
			c3.1-2.5,1.1-7.6,5-9.7c0.6-0.3-0.6-1.3-1.5-1.3c-2.9,0.2-4.9,2.4-6.4,4.3C63.7,60,61.9,62.8,64.4,65.5z"/>
		<path class="st5" d="M109.2,67.7c-6.5-2.9-13-5.7-19.4-8.6l-0.2-0.2l0.2,0.2c4.7-2.2,7.8-6.1,10.4-11.1c3.1,6.3,5.9,12,8.8,17.8
			C109,66.4,109.1,67.1,109.2,67.7z"/>
		<path class="st1" d="M100.4,33.9c-0.2-5.7,3.7-3.1,6.3-3c1.1,0.8,1.2,2.6,2.8,2.9l0,0c1.2,2.3,1.3,4.7,0.5,7.8
			C107,38.5,100.9,40,100.4,33.9z"/>
		<path class="st0" d="M57.1,51.1c0.8-1.3,2.1-1.1,3.3-1c-0.8,2.6-2.7,4.9-1.9,7.8l0,0c-1.8-0.4-3.6-0.8-5.4-1.2
			C54,54.6,57.1,53.9,57.1,51.1z"/>
		<path class="st1" d="M96.4,28.8c2.2-0.1,3.3,0.8,2.9,3.1C97.4,31.8,97,30.2,96.4,28.8z"/>
		<path class="st0" d="M109.4,33.9c0.1-0.4,0.2-0.8,0.4-1.3C110.7,33.3,109.8,33.5,109.4,33.9L109.4,33.9z"/>
		<path class="st1" d="M28.1,308.9c0.8,3.5,3.7,6.2,3.2,10.9C28.8,315.9,26.8,312.9,28.1,308.9z"/>
		<path class="st1" d="M47.6,74.1c0.6-0.5,1.2-1.2,1.9-1.6c1.3-0.8,1.8-3.5,4.2-1.3c2.1,1.9,2.4,3.9,0.7,5.9
			c-1.2,1.4-2.1,2.9-1.9,4.8C52,82,51.5,82,51,82.1C44,81.8,46.6,77.6,47.6,74.1z"/>
		<path class="st1" d="M23.3,103.9c-1.5-1.8-0.7-4.3-1.6-6.2c1.4-0.6,2.2-1.9,3.7-3.7C25.2,97.9,30.6,102,23.3,103.9z"/>
		<path class="st4" d="M29,85.7c-1.6-0.1-2.2,0.9-2.7,2.2l0.1,0.3c-1.2,0-1.4,1.1-1.9,1.9c-4.4-2-1.2-4.1-0.1-6.1
			c3.2,1,3.2-3.1,5.5-3.4c0.2,0.2,0.4,0.3,0.6,0.5c-0.8,1.1-1.4,2.3-1.2,3.8C29.2,85,29.1,85.3,29,85.7z"/>
		<path class="st3" d="M29.9,80.4c-2.3,0.3-2.4,4.4-5.5,3.4c-1-3.7,2.7-4.7,4.1-7c1.1-0.6,1.6-2.3,3.2-1.9
			C31.6,77,30.8,78.7,29.9,80.4z"/>
		<path class="st1" d="M31.6,75c-1.7-0.4-2.2,1.2-3.2,1.9c-2.9-2-0.3-5.5-2-7.7c2.8-2.7,3,0.5,4,1.8c0,1.4,0.1,2.7,1.6,3.4
			C32.1,74.6,32,74.9,31.6,75z"/>
		<path class="st0" d="M24.5,90c0.5-0.8,0.7-1.9,1.9-1.9c0.6,0.6,1.1,1.4,0.6,2.1C26.2,91.2,25.2,90.8,24.5,90z"/>
		<path class="st4" d="M57.1,51.1c0,2.9-3.1,3.5-4.1,5.6c-1.2,0.1-2.4,0.2-3.6,0.2c-1.6-2.5-3.2,2.4-4.8,0c0.3-0.1,0.4-0.2,0.5-0.5
			c0.3-0.5,0.6-0.9,0.9-1.4c-0.8-0.5-1.4-0.3-1.7,0.6c-0.3,0.4-0.7,0.7-1,1.1h0.1c-1.3,0.5-2.6,1-3.8,1.6c-0.6-0.2-1.1-0.3-1.7-0.5
			c0.2-0.3,0.4-0.7,0.6-1c2-0.4,3.9-1.1,5.1-2.9v0.2c4.8,0.3,6.1-5,10-6.2C52.6,51.3,56.9,48.8,57.1,51.1z"/>
		<path class="st2" d="M49.4,56.9c1.2-0.1,2.4-0.2,3.6-0.2c1.8,0.4,3.6,0.8,5.4,1.2c-5.4,4.9-9.4,11.4-16,15.2
			c-1.3,0.8-3.4,2-2.7,5.2c0.7,2.8-2.1,5.7-4.1,8.1c-0.7,0.9-1.8,0.2-2.3-0.8c1.5-2.1,3.2-4.1,1-6.8C34,71.6,40.1,68.5,43.9,64
			C47.6,63.1,48.3,59.9,49.4,56.9z"/>
		<path class="st4" d="M43.9,64c-3.8,4.5-9.9,7.6-9.6,14.8c-1.3,0.7-2.6,1.4-3.8,2.2c-0.2-0.2-0.4-0.3-0.6-0.5
			c0.9-1.7,1.7-3.5,1.8-5.5c0.3-0.1,0.4-0.3,0.4-0.7c1.7-1.1,2.6-2.4,1.3-4.4c2.9-1.1,2.6-5.5,6.2-5.9C41,63.8,42.4,62,43.9,64z"/>
		<path class="st2" d="M33.3,69.9c1.3,2,0.4,3.3-1.3,4.4c-1.5-0.7-1.6-2-1.6-3.4C31.4,70.6,32.4,70.2,33.3,69.9z"/>
		<path class="st1" d="M39.6,58.3c1.3-0.5,2.6-1,3.8-1.6C42.3,57.9,42,60.7,39.6,58.3z"/>
		<path class="st1" d="M45.1,56.5c-0.1,0.3-0.2,0.4-0.5,0.5c-0.4-0.1-0.9-0.1-1.3-0.2c0.3-0.4,0.7-0.7,1-1.1
			C44.5,56,44.8,56.2,45.1,56.5z"/>
		<path class="st0" d="M161.4,218.9c-1.4-0.2-3,0.1-2.3-2.4c0.5-1.8,0.4-3.8,0.5-5.8C162.4,212.9,161.3,216,161.4,218.9z"/>
		<path class="st0" d="M159.6,210.8c-0.7-0.1-1.7,0.1-1.7-1c0-0.3,0.9-0.6,1.4-0.9C159.4,209.5,159.5,210.1,159.6,210.8z"/>
		<path class="st2" d="M43.5,53.9c-1.2,1.9-3.1,2.5-5.1,2.9c0-0.7,0-1.4-0.1-2C39.9,53.5,41.7,53.9,43.5,53.9z"/>
		<path class="st1" d="M105.3,251c-6.4-8.1-11.7-16.8-13.9-27.1c2.3-0.2,2.8,1.9,4,3c0.4,3,3.2,4.1,4.7,6.2c0.7,0.9,2.4,1.8,1.8,2.7
			c-2.5,3.4,0.5,4.9,1.8,7.1c1.4,2.4,3.3,4.6,2.8,7.7C106.1,250.8,105.7,250.9,105.3,251z"/>
		<path class="st0" d="M81.5,190.2c0.7-0.2,1.3-0.4,2-0.5c0.4,0.7,0.7,1.4,1.1,2c0.1,2,0.4,3.8,2.8,4.1l0,0c0,1.3,0.6,2,1.9,2.1
			c0.1,0.6,0.1,1.3,0.2,1.9c0,1.7-1.3,3.1-0.4,5.2c2,4.7,4.4,9.6,1.4,14.8c-0.1,0.1-0.3,0.2-0.4,0.3c-1.9-3.9-2.8-8.2-3.4-12.4
			C85.8,201.7,83.7,196,81.5,190.2z"/>
		<path class="st3" d="M105.3,251c0.4-0.1,0.8-0.2,1.3-0.3c0.8,0.1,1.7,0.2,2.5,0.3c0.8,2.8,3.2,4.1,5.3,5.6
			c4.6,3.3,6.5,7.9,7.1,13.3c-4.7-0.6-5.4-5-7.6-8.1C111,258.2,108.1,254.6,105.3,251z"/>
		<path class="st1" d="M79.6,306.4c-0.6,1.2-2,2.1-2.6,0.8c-2.6-6.4-9.5-10.1-10.5-17.4c1.5,0.1,1.9-0.9,2.1-2.1
			C73.1,293.5,76,300.1,79.6,306.4z"/>
		<path class="st0" d="M95.4,226.9c-1.2-1.2-1.8-3.3-4-3c-0.5-1.2-0.9-2.5-1.4-3.7c0.1-0.1,0.3-0.2,0.4-0.3c2,0,4.1-3.9,5.2-1.2
			C96.4,220.8,99.6,224.4,95.4,226.9z"/>
		<path class="st1" d="M68.6,287.9c-1.5-0.7-1-2.1-1.1-3.3C68.2,285.6,69.2,286.4,68.6,287.9z"/>
		<path class="st0" d="M121.4,176.1c0.2,1.6,1.3,2,2.5,1.6c3-1.1-1-3.3,0.9-4.5c2.2,1.4,5.6,1.1,7.4,4.2c0.7,1.2,2.4-0.2,3-1.5
			c0.8-1.5,2-2.2,3.6-2.1c0.8,0.1,1.8-0.2,1.7,1.1c0,0.7,0.3,1.5,0,2c-2.5,3.4-2.5,3.4-2.4,9.7c0,0.6-0.2,1.6-0.6,1.8
			c-3.6,1.6-1.4,3,0.2,4.1c2.3,1.7,2.2,4.2,1.1,5.8c-2.5,3.6-0.2,5,2.2,6.7c2.5,1.8,3.4,7.2,0.9,9.7c-2.1,2.1-5.3,2.9-8.1,0.7
			c-1.7-1.3-3.4-2.1-5.4-0.7c-0.7,0-1.4,0-2.1,0c0-1,0-1.9,0-2.9c0-0.7,0-1.4,0-2c0.1-0.1,0.2-0.3,0.3-0.4c-0.1,0.1-0.1,0.3-0.2,0.4
			c-1,0.3-1.9,0.6-2.9,0.8c-1.3,0.2-2.8,0.8-3.7-0.5c-0.7-1.2,0.8-2,1.3-3c0.6-1.4,1.5-2.6,1.9-4c0.5-2.1,1.1-4-2.7-3.8
			c-4.4,0.3-8-2.3-11-5.5c0-1.4,0-2.9-2.1-2.9c-0.3,0-0.6-0.1-0.9-0.1c-2-4.3-6.3-5.1-10.1-6.8l-0.1-0.1c2.1-4.2-0.4-8.1-0.8-12.1
			c0.1-0.1,0.2-0.3,0.2-0.4c-0.1,0.1-0.1,0.3-0.2,0.4c-2.6-3.2-3-7.8-6.9-10c-0.2-1.4,0.2-2.9-1.1-3.9c-1.8-2.5,0.5-6.8-3.9-8.1
			c-0.1-1.6-0.1-3.3-0.2-4.9c4.7-0.3,4.8-2.4,2-5.8c-1.1,1.5-1.4,4-3.9,3.8c0-2.4-0.3-3.6-3-1.8c-3,2-6.1,4.1-9.8,4.5
			c-1.6,0.2-4.1,1.7-4.9-1.4c3.3-0.1,7.2,0.9,8.2-4.1c4-0.7,7.3-3.6,11.6-4c1.8-0.1,0.7-2.2,1-3.3c0.1-0.3,0.2-0.5,0.3-0.8
			c1.3-0.2,1.9-1.2,2.5-2.2c3.5-5.5,7.3-10.5,14.9-9.6c0.4,0.9,0.8,1.8,1.3,2.7c-0.6,0.1-1.3,0.1-1.3,0.9c0,1.1,0.9,1,1.6,1.1
			c0,0.7,0,1.3,0,2c-1.1,0.6-1.4,1.2-0.2,2c-1.2,8.1-5.9,14.4-10.7,20.5c-2.2,2.8-2.3,4.9-0.9,8c3.5,7.4,8.2,13.7,15.6,17.5
			c0.8,1.8,2.8,0.4,4,1.4c2,0.9,4.1,1.2,6-0.3C118.8,176.1,120.1,176.1,121.4,176.1z"/>
		<path class="st1" d="M102,120.2c-7.6-0.9-11.4,4.1-14.9,9.6c-0.6,1-1.2,2-2.5,2.2c-0.6-2.1,2.4-3.6,1.1-6.1
			c-2.3,1.3-4.7,2.1-5.7,4.7c-0.8,2.2-2.6,2.3-4.5,2.2c0.8-3.6,2.2-6.9,3.9-10.1C84,113.9,95.2,112.6,102,120.2z"/>
		<path class="st1" d="M105.6,90.2c2.6-2.6,5.3-1.5,7.3,2.8c1,2,0,5.2,3.4,5.8c0.6,2.3-0.8,4.9,1,7c0,0.4,0,0.8,0,1.2
			c-1.4,1.6-1.3,3.2,0,4.9c2.5,9.3,3.3,18.6,0.5,28c-0.2,0.6-0.3,1.8-1.6,0.9c0.4-1.9,0.4-3.8,1-5.8c1.8-5.8,0.4-11.5-0.9-17.2
			c-0.7-7.5-3-14.2-8.3-19.7c-1.5-1.5-3.5-3.2-2.7-5.9C105.4,91.5,105.5,90.8,105.6,90.2z"/>
		<path class="st0" d="M113.4,149.9c1.1,0.3,2.2,0.9,3.3,0.9c2.7,0.1,3.4,1.7,2.2,3.6c-1.9,2.9-1.6,5.5-0.7,8.5
			c0.8,2.9,0.2,5.4-3.5,5.7c-0.9-1.3,0.6-3.4-1.1-4.8c-0.7-2.3,0.7-5-1.3-7C112.3,154.5,112.5,152.1,113.4,149.9z"/>
		<path class="st2" d="M105.6,90.2c-0.1,0.7-0.2,1.3-0.3,2c-0.5-0.1-1-0.1-1.4-0.2c-0.6,0-1.2,0-1.8,0c-5-3.1-10.3-5.5-15.8-7.6
			c1.4-2.4,3.1-3,5.2-0.6c-0.4,2.2,1.3,0.7,1.9,1.1l0,0c1.7,1.4,3.7,2,5.9,2.1c0.2,0.1,0.3,0.3,0.5,0.4c-0.1-0.2-0.3-0.3-0.4-0.5
			c0-0.3,0-0.7-0.1-1l0,0c1.1,0.3,2.2,0.7,3.3,1C105.7,86.2,103.9,89.7,105.6,90.2z"/>
		<path class="st0" d="M116.4,117.8c1.3,5.7,2.7,11.4,0.9,17.2c-0.6,1.9-0.5,3.9-1,5.8c-0.2,0-0.5,0.1-0.7,0.1
			C113.4,133.1,114.9,125.5,116.4,117.8z"/>
		<path class="st1" d="M84.3,132.8c-0.2,1.2,0.8,3.2-1,3.3c-4.3,0.3-7.5,3.3-11.6,4c-0.5-4.4-4.7-1.4-6.4-3.3c2.5-3,6.8-1,9.6-3.2
			C78.2,134.2,81.5,136.3,84.3,132.8z"/>
		<path class="st3" d="M65.4,136.9c1.7,1.9,5.9-1.1,6.4,3.3c-0.9,5-4.8,4-8.2,4.1c-0.8-0.1-1.6-0.3-2.4-0.4
			C63,141.7,61.6,137.7,65.4,136.9z"/>
		<path class="st3" d="M84.3,132.8c-2.8,3.4-6.1,1.4-9.3,0.8c0.1-0.3,0.2-0.6,0.5-0.8c1.9,0,3.7,0,4.5-2.2c0.9-2.6,3.3-3.5,5.7-4.7
			c1.3,2.5-1.7,4-1.1,6.1C84.5,132.3,84.4,132.6,84.3,132.8z"/>
		<path class="st1" d="M112.3,156.9c2,2,0.6,4.7,1.3,7c-1,0-2.1,0-3.1,0C110.2,161.3,110.9,159,112.3,156.9z"/>
		<path class="st1" d="M111.4,176.3c-1.2-1-3.1,0.4-4-1.4c0.3-1,1.3-0.8,2-1C110.5,174.3,111.3,175,111.4,176.3z"/>
		<path class="st1" d="M103.5,124.8c-0.7-0.1-1.6,0-1.6-1.1c0-0.8,0.8-0.8,1.3-0.9C103.7,123.5,104,124.1,103.5,124.8z"/>
		<path class="st1" d="M103.4,128.9c-1.2-0.8-0.9-1.4,0.2-2C104.2,127.6,104.1,128.3,103.4,128.9z"/>
		<path class="st0" d="M102.1,92c0.6,0,1.2,0,1.8,0C103.3,93,102.7,93,102.1,92z"/>
		<path class="st0" d="M69.4,363.9c-1,4.6-1.6,9.3-1.1,14c-2-0.4-4.8,2.1-6-0.6c-1.1-2.6-2.7-6.1,1.1-8.4c0.3,0.3-0.4,1.3,0.7,1
			c-0.2-0.3-0.5-0.7-0.7-1C64.1,365.6,65.2,362.9,69.4,363.9z"/>
		<path class="st1" d="M50.4,335.9c0.1-0.1,0.2-0.3,0.2-0.4C50.6,335.6,50.5,335.7,50.4,335.9L50.4,335.9z"/>
		<path class="st2" d="M95.4,226.9c4.1-2.6,1-6.2,0.2-8.3c-1.1-2.6-3.2,1.3-5.2,1.2c3-5.3,0.6-10.1-1.4-14.8
			c-0.9-2.1,0.4-3.5,0.4-5.2c6.4,3.1,9.3,9.2,9.7,15.5c0.4,6.8,3.7,12.5,5.1,18.8c0.3,1.5,1.3,2.6,1.5,4.4c0.3,2.4,1.4,4.6,4.6,5.6
			c4.3,1.4,5.5,6.3,8,9.7c-3.5,0.3-5.8-3.1-9.3-3c-0.8-0.1-1.7-0.2-2.5-0.3c0.5-3.1-1.4-5.3-2.8-7.7c-1.3-2.2-4.3-3.8-1.8-7.1
			c0.7-0.9-1.1-1.8-1.8-2.7C98.6,231.1,95.8,229.9,95.4,226.9z"/>
		<path class="st0" d="M109.1,250.9c3.5-0.1,5.8,3.3,9.3,3l0,0c1.2,3.3,4,4.7,7,5.9c0,3.1,4,3.9,4.1,7c-2.6,2.5-1.3,4.8-0.2,7.5
			c2.4,5.8,4.1,11.9-0.3,17.7c-0.9,1.2-1.2,3.9-3.3,2.1c-1.4-1.2-3-2.8-2.1-5.7c1.8-6.2,4.9-12.7-0.7-18.7c-0.5,0-1,0-1.5,0l0,0
			c-0.6-5.4-2.5-10-7.1-13.3C112.3,255,109.8,253.8,109.1,250.9z"/>
		<path class="st2" d="M88.5,161.9c3.9,2.2,4.3,6.9,6.9,10l0,0c0.4,4,2.9,7.9,0.8,12.1c-0.6-0.3-1.7-0.5-1.7-0.8
			C94.3,175.6,86.5,170.1,88.5,161.9z"/>
		<path class="st2" d="M125.3,259.9c-2.9-1.3-5.8-2.6-7-5.9c3.6,0.4,7.5-2,10.7,1.4c0.8,0.8,1.8,1.6,2.1,2.6c0.3,1.1,1.3,2.7,0,3.6
			c-0.9,0.7-2.2,0.1-3.2-0.6C127.2,260.5,126.2,260.2,125.3,259.9z"/>
		<path class="st2" d="M96.3,184.1c3.8,1.7,8.1,2.4,10.1,6.8C101.9,190.3,98.4,188.3,96.3,184.1z"/>
		<path class="st2" d="M81.4,142.9c2.5,0.1,2.8-2.3,3.9-3.8c2.8,3.4,2.7,5.5-2,5.8C82,144.9,81.4,144.2,81.4,142.9z"/>
		<path class="st2" d="M83.5,149.8c4.3,1.3,2.1,5.6,3.9,8.1C83.9,156.2,83.3,153.2,83.5,149.8z"/>
		<path class="st2" d="M87.4,195.9c-2.4-0.4-2.7-2.2-2.8-4.1C86.8,192.3,87.2,194,87.4,195.9z"/>
		<path class="st2" d="M126.4,211.9c0,1,0,1.9,0,2.9c-0.5,0.8-1.4,1.2-1.8,0.2C124.1,213.4,125.1,212.5,126.4,211.9z"/>
		<path class="st2" d="M107.4,190.9c2.1,0,2,1.5,2.1,2.9C108.1,193.4,107.4,192.4,107.4,190.9z"/>
		<path class="st2" d="M89.3,198c-1.3-0.1-1.9-0.8-1.9-2.1C88.8,195.9,89.5,196.6,89.3,198z"/>
		<path class="st0" d="M63.2,164.1c-0.1-0.3-0.2-0.5-0.3-0.8c0.3,0.1,0.5,0.2,0.8,0.3C63.5,163.8,63.3,164,63.2,164.1z"/>
		<path class="st3" d="M109.6,333.9c-0.3-2.3-0.6-4.3-2.2-6.4c-1.1-1.4-3.5-4.3,0.2-6.5c2.1-1.3-0.2-3.3-0.1-5
			c0.9,0.3,2.4,1.1,2.7,0.8c3-3,5,0,7.2,1.1c0,1.5,1,1.8,2.2,2.2c0.8,0.2,1.9,1.2,1.4,1.7c-2.7,3.2-1.5,7.2-2.6,10.5
			C116.5,338.4,114.5,338.5,109.6,333.9z"/>
		<path class="st1" d="M139.5,293.8c3.5,2.8,3.5,2.8-3.8,9.8c0.2-2.9-1.4-5.4-1.4-7.6c0-6.1,1.7-12.2-0.5-18.3
			c-0.4-1.2,1.7-3,4.1-3.7c-0.2,2.4-0.1,4.5,0.5,6.7c0.6,1.9,1.7,3.6,3.4,3.8c2,0.3,3.9-0.8,4.6-3c0.4-1.1,0.8-2.6,2.2-2
			c1.5,0.6,0.4,2,0.1,3C148.3,284.5,142.4,292.6,139.5,293.8z"/>
		<path class="st0" d="M119.4,354.9c0-0.3,0-0.7,0.1-1c0.1,0.2,0.2,0.5,0.3,0.7C119.8,354.7,119.6,354.8,119.4,354.9z"/>
		<path class="st3" d="M121.4,269.8c0.5,0,1,0,1.5,0C122.4,270.3,121.9,271,121.4,269.8z"/>
		<path class="st2" d="M115.1,349c-0.3-1.2-0.6-1.6-0.5-1.9s0.6-0.5,0.9-0.8c0.2,0.4,0.5,0.7,0.5,1.1
			C115.9,347.8,115.6,348.1,115.1,349z"/>
		<path class="st0" d="M57.2,266.4c-0.4-0.2-0.7-0.3-0.8-0.5c-0.2-0.6-0.1-1.2,0.5-1.5c0.1,0,0.5,0.4,0.5,0.7
			C57.4,265.5,57.3,265.9,57.2,266.4z"/>
		<path class="st3" d="M121.4,176.1c-1.3,0-2.7-0.1-4-0.1c0-0.4-0.1-0.7-0.1-1.1c-0.1-1.4-0.1-2.8-0.2-4.2
			C121.7,170,122.2,172.5,121.4,176.1z"/>
		<path class="st0" d="M145.2,161.3c0.9,0.7,2.9,0.5,2.5,2.4c-0.3,1.1-1.3,2-2.6,1.9c-1.7-0.1-1.6-1.4-1.5-2.6
			C143.5,162,143.7,161,145.2,161.3z"/>
		<path class="st1" d="M117.1,170.7c0.1,1.4,0.1,2.8,0.2,4.2c-1.1-0.2-2.5,0.2-2.7-1.3C114.3,171.8,115.6,171.1,117.1,170.7z"/>
		<path class="st3" d="M117.3,105.8c-1.9-2.1-0.4-4.7-1-7c0-1,0-2,0.1-3C118.4,99,117,102.4,117.3,105.8z"/>
		<path class="st1" d="M116.4,94.9c-1-1-1.3-2,0.1-3C117.8,92.9,117.6,93.9,116.4,94.9z"/>
		<path class="st3" d="M117.3,111.8c-1.3-1.6-1.4-3.3,0-4.9C117.3,108.6,117.3,110.2,117.3,111.8z"/>
		<path class="st1" d="M140.4,234.9c0.1-0.7,0.1-1.6,1.2-1.5c0.1,0,0.3,0.2,0.3,0.3C142,234.8,141.2,234.8,140.4,234.9L140.4,234.9z
			"/>
		<path class="st1" d="M156.7,238c-0.7,0.3-1.5,0.6-2.2,0.9C154.6,237.2,155.1,236.4,156.7,238z"/>
		<path class="st1" d="M112.5,171.2c0.2,0.2,0.3,0.4,0.5,0.6c-0.3,0.2-0.6,0.4-1,0.6c-0.1-0.3-0.3-0.6-0.3-0.8
			C111.9,171.4,112.2,171.3,112.5,171.2z"/>
		<path class="st2" d="M64.4,65.5c-2.5-2.7-0.6-5.5,0.7-7.3c1.4-1.9,3.5-4,6.4-4.3c0.9-0.1,2,1,1.5,1.3c-4,2.1-1.9,7.3-5,9.7
			c-1,0.8-1.8,1.9-3.3,2.1C64.5,66.5,64.5,66,64.4,65.5z"/>
		<path class="st2" d="M89.7,59.1c-4.1-1.2-8.1,3.4-12.2,0.3C81.3,55.9,86.8,55.7,89.7,59.1l-0.2-0.2L89.7,59.1z"/>
		<path class="st3" d="M30.5,80.9c1.3-0.7,2.6-1.4,3.8-2.2c2.2,2.6,0.5,4.7-1,6.8c-0.9,0-1.8,0.9-2.8,0.2c-0.4-0.4-0.9-0.7-1.3-1.1
			C29.1,83.3,29.7,82.1,30.5,80.9z"/>
		<path class="st1" d="M64.4,65.5c0.1,0.5,0.2,1,0.2,1.5c-0.9,3.9-4.4,4.3-8.1,6.3C58.2,68.7,61.3,67.1,64.4,65.5z"/>
		<path class="st1" d="M99.4,86.9c-2.2,0-4.2-0.6-5.9-2.1c2.1-0.3,4.1-0.1,6,1C99.4,86.2,99.4,86.5,99.4,86.9L99.4,86.9z"/>
		<path class="st1" d="M102.7,86.9c-1.1-0.3-2.2-0.7-3.3-1c0.6-1.4,1.8-1.2,2.9-0.9C103.5,85.2,102.6,86.2,102.7,86.9z"/>
		<path class="st1" d="M93.4,84.8c-0.6-0.4-2.4,1.1-1.9-1.1C92.3,83.9,93.2,83.9,93.4,84.8z"/>
		<path class="st2" d="M80.4,42.9c-0.1,0.1-0.1,0.3-0.2,0.4C80.3,43.2,80.4,43,80.4,42.9L80.4,42.9z"/>
		<path class="st2" d="M29.3,84.7c0.4,0.4,0.8,0.7,1.3,1.1c-0.5,0-1-0.1-1.5-0.1C29.1,85.3,29.2,85,29.3,84.7z"/>
		<path class="st1" d="M44.3,55.7c0.3-0.9,0.9-1.1,1.7-0.6c-0.3,0.5-0.6,0.9-0.9,1.4C44.8,56.2,44.5,56,44.3,55.7z"/>
		<path class="st2" d="M95.4,171.9c0.1-0.1,0.1-0.3,0.2-0.4C95.6,171.6,95.5,171.7,95.4,171.9L95.4,171.9z"/>
		<path class="st1" d="M126.4,209.9c0.1-0.1,0.1-0.3,0.2-0.4C126.6,209.6,126.5,209.7,126.4,209.9L126.4,209.9z"/>
		<path class="st1" d="M99.5,86.8c0.1,0.2,0.3,0.3,0.4,0.5C99.7,87.2,99.5,87.1,99.5,86.8C99.4,86.9,99.5,86.8,99.5,86.8z"/>
		<path class="st2" d="M63.4,368.9c0.2,0.3,0.5,0.7,0.7,1C63,370.2,63.7,369.2,63.4,368.9L63.4,368.9z"/>
	</g>
</g>
</svg>
